<svg width="955" height="780" viewBox="0 0 955 780" fill="none" xmlns="http://www.w3.org/2000/svg">
<g filter="url(#filter0_d)">
<g filter="url(#filter1_d)">
<path d="M463.844 744.454L34.7621 469.584C21.1056 461.279 9.38293 447.618 22.7052 438.692L453.339 169.618C459.809 165.271 469.621 162.425 476.187 166.565L926.613 449.973C940.269 458.562 942.728 482.572 929 491.188L520.475 743.962C511.891 749.378 502.152 752.273 492.22 752.359C482.287 752.445 472.506 749.72 463.844 744.454Z" fill="#FFC2A4"/>
</g>
<path opacity="0.32" d="M257.85 570.642L312.022 556.852L444.696 611.184L388.47 648.234C388.47 648.234 283.563 586.631 257.85 570.642Z" fill="url(#paint0_linear)"/>
<path opacity="0.32" d="M663.009 543.295L710.759 507.254L788.806 552.997L733.727 588.339C733.727 588.339 688.722 559.206 663.009 543.295Z" fill="url(#paint1_linear)"/>
<path d="M684.117 145.624C687.268 107.686 663.9 74.404 631.925 71.2855C599.949 68.1669 571.474 96.393 568.323 134.33C565.172 172.268 588.539 205.55 620.515 208.669C652.491 211.787 680.966 183.561 684.117 145.624Z" fill="#F2AE16"/>
<path d="M670.335 143.915C673.313 106.115 649.9 73.0825 618.04 70.1348C586.181 67.1871 557.939 95.4403 554.961 133.24C551.983 171.04 575.396 204.072 607.256 207.02C639.115 209.968 667.357 181.715 670.335 143.915Z" fill="#FFD008"/>
<path d="M663.198 143.254C665.809 110.124 645.292 81.1734 617.374 78.5903C589.456 76.0073 564.708 100.77 562.097 133.9C559.487 167.03 580.003 195.982 607.922 198.565C635.84 201.148 660.588 176.384 663.198 143.254Z" stroke="#F7931E" stroke-width="1.015" stroke-miterlimit="10"/>
<path d="M614.16 93.3453L623.472 95.0529L622.135 104.755L631.685 110.292L628.485 118.7C624.824 116.916 620.987 115.588 617.049 114.742C616.433 114.697 615.814 114.75 615.211 114.897C615.378 114.897 609.911 115.725 610.818 123.332L610.508 122.659C610.886 124.177 611.59 125.578 612.561 126.747C615.14 129.309 617.947 131.589 620.941 133.551C626.623 138.364 629.846 144.625 627.769 153.292C627.119 156.944 625.378 160.262 622.815 162.735C620.252 165.209 617.01 166.7 613.587 166.979C613.282 167.012 612.983 167.099 612.704 167.237L611.2 178.544L601.65 176.836L603.011 166.927L591.217 160.019C592.577 156.5 593.604 153.628 594.726 150.989C599.286 153.033 603.25 155.905 607.428 156.319C608.623 156.366 609.809 156.071 610.866 155.465C616.93 152.205 614.041 144.832 613.492 143.642C613.207 143.078 612.88 142.542 612.513 142.037C610.46 139.295 607.165 137.95 604.563 135.776C599.453 131.533 596.206 126.074 597.758 118.105C598.229 114.665 599.693 111.475 601.941 108.993C604.188 106.511 607.104 104.864 610.269 104.289C611.033 104.108 611.797 103.824 612.656 103.539L614.16 93.3453Z" fill="#F7931E"/>
<path d="M629.441 207.081C629.441 207.081 620.153 192.722 618.84 188.841C617.527 184.96 624.307 179.941 630.634 179.475C636.961 179.009 637.63 186.823 637.63 186.823C638.431 186.575 639.287 186.641 640.047 187.01C640.807 187.38 641.422 188.028 641.784 188.841C643.312 191.816 639.396 200.949 639.014 201.208L646.368 210.936L634.144 217.43L629.441 207.081Z" fill="#EF986C"/>
<path d="M711.141 517.112C711.141 511.446 711.379 505.754 711.427 500.088L688.412 504.978C688.412 504.978 689.558 514.628 687.051 518.095C684.544 521.562 665.348 531.704 663.176 534.938C661.003 538.172 660.215 544.2 673.681 543.657C687.146 543.114 697.914 532.972 700.874 532.221C703.835 531.471 709.947 530.591 711.881 529.091C711.618 525.081 711.117 521.07 711.141 517.112Z" fill="#2A343D"/>
<path d="M750.296 524.278C750.296 518.612 750.535 512.92 750.582 507.254L727.567 512.144C727.567 512.144 728.713 521.795 726.206 525.262C723.699 528.729 704.504 538.871 702.331 542.105C700.158 545.339 699.37 551.367 712.836 550.824C726.301 550.28 737.069 540.138 740.029 539.388C742.99 538.638 749.102 537.758 751.036 536.257C750.773 532.299 750.272 528.237 750.296 524.278Z" fill="#2A343D"/>
<path d="M739.743 280.947L728.068 283.25C728.168 281.665 728.168 280.074 728.068 278.489C725.681 278.334 723.293 278.101 720.762 277.765C713.934 276.859 708.323 269.434 701.925 266.691C699.179 281.025 698.415 312.331 695.192 335.047C691.086 363.817 678.599 497.423 682.156 508.393C682.156 508.393 682.013 512.403 703.31 513.567C703.31 513.567 708.395 516.724 715.868 505.34L723.412 363.041L719.951 515.689C726.373 522.079 736.066 525.055 753.829 515.43L762.376 322.059L739.743 280.947Z" fill="#35406E"/>
<path d="M722.338 271.918C724.2 272.142 726.071 272.314 727.949 272.435C726.492 245.321 718.709 184.753 702.044 266.717C708.537 269.521 715.375 271.273 722.338 271.918Z" fill="#35406E"/>
<path d="M752.755 390C752.169 385.37 753.046 380.661 755.244 376.64C757.442 372.618 760.831 369.522 764.859 367.853C779.184 361.566 778.993 388.37 778.993 388.37L786.156 385.291C786.156 385.291 790.382 356.987 765.05 358.953C739.719 360.919 743.563 392.768 743.563 392.768L752.755 390Z" fill="#CE4823"/>
<path d="M772.619 350.958L772.428 349.975C772.49 349.651 772.49 349.316 772.428 348.992L769.3 325.319C769.276 324.958 769.151 324.614 768.942 324.332C768.733 324.051 768.45 323.844 768.13 323.74C768.048 322.315 767.832 320.902 767.486 319.523C766.69 318.613 765.645 318.005 764.505 317.791C763.365 317.576 762.191 317.767 761.159 318.333C760.085 317.065 757.769 316.884 757.482 319.032C757.116 321.602 756.774 324.189 756.456 326.793L756.265 325.965C756.205 325.693 756.096 325.436 755.945 325.21C755.793 324.984 755.601 324.792 755.381 324.646C754.856 322.731 754.426 320.791 754.02 318.876C753.376 316.004 749.245 317.22 749.914 320.092C750.121 321.058 750.344 322.024 750.582 322.99C749.078 322.524 747.216 323.689 747.932 325.577C750.484 332.48 752.093 339.749 752.707 347.155C751.704 351.657 750.821 356.21 750.153 360.79C749.723 363.61 749.174 367.465 752.54 368.552C753.085 368.711 753.665 368.633 754.156 368.332C754.648 368.032 755.01 367.535 755.166 366.948C755.803 363.86 756.328 360.755 756.742 357.633C757.06 358.789 757.387 359.936 757.721 361.074C758.38 363.506 759.178 365.89 760.108 368.215C760.658 369.483 761.422 370.621 762.878 370.57C763.298 370.597 763.718 370.512 764.101 370.322C764.484 370.133 764.818 369.845 765.074 369.483C765.315 370.138 765.779 370.667 766.37 370.961C766.962 371.255 767.635 371.291 768.25 371.061C770.136 370.466 770.637 368.319 770.637 366.094C775.794 363.325 773.55 355.874 772.619 350.958Z" fill="#EF986C"/>
<path d="M771.926 312.9C770.598 297.481 768.373 282.169 765.265 267.054C762.878 254.971 760.323 234.868 756.193 223.251C752.994 214.222 744.781 211.195 735.445 209.617C726.028 207.811 716.478 206.945 706.915 207.029C706.524 207.048 706.133 206.978 705.769 206.822C705.029 206.822 704.265 207.107 703.548 207.314C700.707 208.09 697.89 217.068 697.078 219.707C695.714 224.76 694.913 229.971 694.691 235.23C693.569 249.124 695.813 262.578 697.078 276.316C697.628 282.163 695.932 291.839 700.588 296.212C704.456 299.86 711.141 301.542 716.059 302.37C724.916 303.624 733.911 303.08 742.584 300.765L748.195 340.868C758.437 345.189 772.07 340.221 772.07 340.221C772.07 340.221 773.383 331.735 771.926 312.9Z" fill="#1789FC"/>
<path d="M730.79 409.456C730.787 406.977 731.361 404.537 732.458 402.362C733.556 400.187 735.142 398.347 737.069 397.012C752.23 386.533 789.594 361.023 792.172 363.377C795.276 366.456 801.436 424.307 799.072 426.248C797.282 427.722 759.44 448.472 740.865 458.614C739.806 459.193 738.627 459.468 737.442 459.413C736.256 459.359 735.103 458.976 734.093 458.301C733.083 457.627 732.249 456.683 731.671 455.56C731.093 454.438 730.789 453.173 730.79 451.887V409.456Z" fill="#CE4823"/>
<path d="M705.769 206.848C705.769 206.848 702.761 227.805 720.261 227.805C737.761 227.805 738.669 210.807 738.669 210.807C727.951 207.687 716.857 206.352 705.769 206.848Z" fill="#F2F2F2"/>
<path d="M703.525 207.34C703.525 207.34 678.742 225.451 666.685 227.805C656.73 229.823 644.1 198.44 644.1 198.44L626.981 208.892C626.981 208.892 640.208 255.463 661.337 259.188C682.467 262.914 703.62 241.88 703.62 241.88" fill="#1789FC"/>
<path d="M729.095 201.932C728.952 202.45 729.095 208.608 729.095 208.608L721.192 210.367H713.075L711.571 203.899" fill="#DB784D"/>
<path d="M730.575 204.597C730.575 204.597 725.633 209.953 721.168 210.367C717.396 210.729 712.86 205.529 711.618 203.899C711.531 208.97 712.283 214.017 713.839 218.801C714.579 220.173 715.295 221.052 715.796 220.845C717.515 220.095 720.786 215.076 720.786 215.076C720.786 215.076 724.439 221.078 725.967 220.871C727.495 220.664 732.557 210.988 732.557 210.988L730.575 204.597Z" fill="#35406E"/>
<path d="M741.581 164.676C740.534 163.137 739.027 162.038 737.316 161.566C735.606 161.095 733.798 161.279 732.198 162.089C732.132 161.937 732.043 161.797 731.936 161.675C729.954 159.346 729.047 156.888 725.991 155.957C723.165 155.239 720.214 155.355 717.444 156.293C714.77 157.034 712.477 158.895 711.069 161.468C710.841 161.314 710.573 161.242 710.305 161.261C707.318 161.402 704.501 162.806 702.457 165.17C700.413 167.535 699.305 170.673 699.37 173.913C699.609 179.501 703.692 185.788 708.92 186.176C711.481 187.168 714.208 187.556 716.918 187.315C717.501 187.273 718.063 187.061 718.544 186.702C719.025 186.344 719.408 185.851 719.652 185.276C719.896 184.702 719.993 184.066 719.932 183.437C719.871 182.807 719.655 182.207 719.306 181.7L719.688 181.441L719.998 181.571C720.427 182.122 721.032 182.477 721.692 182.563C722.353 182.65 723.019 182.461 723.556 182.037L724.009 181.752C724.67 181.579 725.31 181.327 725.919 181.002L726.659 181.286L726.421 182.114C726.243 182.814 726.282 183.557 726.532 184.23C726.783 184.904 727.23 185.469 727.805 185.84C728.376 186.123 728.993 186.281 729.62 186.306C728.208 188.509 726.355 190.34 724.2 191.661C721.288 193.265 722.935 197.482 725.609 197.715C724.32 198.75 724.821 205.192 726.325 204.261C730.1 202.005 733.4 198.92 736.015 195.205C738.629 191.49 740.5 187.226 741.51 182.683C742.512 178.259 744.255 168.35 741.581 164.676Z" fill="#2A343D"/>
<path d="M706.7 177.69C705.96 177.535 705.936 204.804 716.25 206.615C729.238 208.892 734.132 192.153 734.132 192.153C734.132 192.153 736.042 179.76 727.925 175.62C719.807 171.48 716.035 179.501 706.7 177.69Z" fill="#EF986C"/>
<path d="M706.7 177.69C706.7 177.69 716.942 179.76 722.434 177.69C727.925 175.62 720.046 194.74 724.105 194.74C728.164 194.74 727.925 184.391 731.029 188.272C734.132 192.153 726.254 204.132 726.254 204.132C726.254 204.132 737.308 198.103 739.839 187.78C742.369 177.457 730.289 167.626 718.518 168.66C706.748 169.695 706.7 177.69 706.7 177.69Z" fill="#2A343D"/>
<path d="M421.898 288.842C454.375 285.838 478.242 252.159 475.205 213.619C472.169 175.078 443.379 146.271 410.902 149.276C378.425 152.281 354.559 185.96 357.595 224.5C360.632 263.04 389.421 291.847 421.898 288.842Z" fill="#F2AE16"/>
<path d="M432.112 285.609C464.589 282.604 488.456 248.926 485.419 210.385C482.383 171.845 453.594 143.038 421.116 146.043C388.639 149.048 364.773 182.727 367.809 221.267C370.846 259.807 399.635 288.614 432.112 285.609Z" fill="#FFD008"/>
<path d="M431.432 276.973C459.889 274.341 480.801 244.83 478.14 211.059C475.48 177.288 450.254 152.046 421.797 154.679C393.34 157.312 372.428 186.823 375.089 220.594C377.749 254.364 402.975 279.606 431.432 276.973Z" stroke="#F7931E" stroke-width="1.015" stroke-miterlimit="10"/>
<path d="M423.113 193.964C421.509 195.469 420.245 197.352 419.418 199.469C418.59 201.586 418.221 203.88 418.338 206.175L438.25 200.328C438.25 203.174 438.25 205.839 438.369 208.659L418.815 214.377L419.723 219.241L438.417 213.756C438.417 216.628 438.417 219.345 438.536 222.139L422.11 227.003C422.831 229.25 424.099 231.245 425.78 232.775C427.461 234.305 429.493 235.315 431.66 235.696C433.261 235.909 434.886 235.768 436.435 235.282C438.598 234.578 440.605 233.399 442.33 231.819C444.055 230.239 445.461 228.291 446.463 226.097L447.441 231.427C447.943 234.014 448.396 236.886 448.969 239.577C449.128 240.039 449.139 240.545 449 241.014C448.862 241.483 448.582 241.888 448.205 242.164C445.276 244.668 441.916 246.515 438.321 247.597C427.912 250.65 416.595 246.33 410.459 232.074L409.767 230.573L404.275 232.177C404.275 229.383 404.275 226.667 404.156 223.846L407.498 222.863L406.615 218.051L401.84 219.422C401.84 216.525 401.84 213.782 401.84 210.884C403.296 210.444 405.779 209.565 405.899 209.513C406.018 209.461 406.257 206.253 406.472 204.571C408.064 192.204 413.698 183.925 423.375 179.734C424.373 179.299 425.394 178.927 426.431 178.621C429.672 177.663 433.057 177.417 436.387 177.897C437.629 178.052 438.154 178.518 438.106 180.277C438.106 184.287 438.106 188.323 438.106 192.437C436.7 191.476 435.127 190.838 433.485 190.562C431.842 190.286 430.165 190.378 428.556 190.833C426.572 191.486 424.724 192.549 423.113 193.964Z" fill="#F7931E"/>
<path d="M366.147 279.886C372.307 276.437 378.379 272.858 384.364 269.149C385.424 266.661 386.604 264.235 387.897 261.879C388.761 259.997 390.146 258.454 391.858 257.466C393.57 256.478 395.524 256.095 397.447 256.368C398.192 256.534 398.859 256.981 399.33 257.629C399.801 258.276 400.045 259.084 400.019 259.908C399.993 260.732 399.699 261.519 399.189 262.131C398.679 262.743 397.986 263.139 397.232 263.25L396.731 263.897C404.156 264.259 417.55 265.45 414.542 273.392C414.81 273.626 415.057 273.886 415.282 274.169C416.028 275.183 416.395 276.464 416.311 277.757C416.227 279.051 415.698 280.263 414.828 281.154C414.167 281.842 413.357 282.337 412.472 282.595C411.587 282.853 410.657 282.865 409.767 282.629C409.18 283.877 408.179 284.837 406.966 285.317C405.752 285.797 404.415 285.761 403.225 285.216L401.41 284.621C401.471 285.12 401.42 285.627 401.262 286.1C401.103 286.573 400.842 286.997 400.5 287.337C400.158 287.677 399.745 287.923 399.297 288.054C398.849 288.185 398.378 288.196 397.925 288.088L391.789 286.794C377.87 291.607 370.946 293.34 365.693 297.143C363.521 298.748 365.693 299.343 365.693 297.143C365.448 296.802 365.271 296.41 365.171 295.991C365.072 295.573 365.053 295.136 365.116 294.709C365.179 294.283 365.321 293.874 365.536 293.51C365.75 293.145 366.031 292.832 366.362 292.59L366.959 292.124C366.629 291.863 366.352 291.531 366.146 291.149C365.94 290.766 365.809 290.342 365.762 289.902C365.715 289.462 365.753 289.016 365.872 288.593C365.992 288.169 366.191 287.777 366.457 287.441C366.696 287.105 366.959 286.82 367.198 286.51C366.538 286.369 365.933 286.015 365.463 285.493C364.993 284.972 364.681 284.308 364.567 283.59C364.453 282.872 364.543 282.133 364.825 281.472C365.107 280.811 365.568 280.258 366.147 279.886Z" fill="#FF7D09"/>
<path d="M294.809 511.756L291.418 563.656L297.411 569.271L304.072 567.408C304.072 567.408 303.213 553.67 305.552 550.668C307.892 547.667 311.879 562.57 314.147 562.492C316.415 562.415 343.561 554.549 343.967 550.953C344.492 546.167 338.38 540.604 326.873 543.709C314.41 546.995 312.237 531.781 310.16 517.189" fill="#F8997C"/>
<path d="M314.291 522.131C314.291 522.131 302.353 527.564 282.131 513.49C282.131 513.49 289.15 444.643 288.553 432.767C287.956 420.892 275.732 335.305 290.941 316.341C306.149 297.376 333.104 479.002 331.815 480.011" fill="#1789FC"/>
<path d="M304.43 552.661L305.552 550.643C305.552 550.643 308.871 547.305 312.142 548.935C315.413 550.565 314.935 562.906 314.935 562.906L303.642 558.327C303.524 556.399 303.793 554.466 304.43 552.661Z" fill="#9E005D"/>
<path d="M331.719 537.215L332.889 589.245L339.359 594.212L345.829 591.625C345.829 591.625 343.776 578.042 345.829 574.808C347.883 571.574 353.183 586.01 355.379 585.7C357.576 585.39 384.029 574.782 384.029 571.134C384.029 566.296 377.583 561.483 366.386 565.675C354.257 570.202 350.772 555.326 347.525 540.992" fill="#F8997C"/>
<path d="M344.874 576.955L345.829 574.833C345.829 574.833 348.838 571.16 352.252 572.453C355.666 573.747 356.263 586.062 356.263 586.062L344.612 582.673C344.317 580.769 344.407 578.818 344.874 576.955Z" fill="#9E005D"/>
<path d="M335.659 336.754C335.659 336.754 355.761 395.459 360.322 420.918C364.882 446.376 365.097 541.717 363.425 544.278C361.754 546.839 342.272 551.341 329.093 551.108C315.914 550.876 317.729 438.382 317.729 438.382C317.729 438.382 281.916 339.859 291.466 329.044C301.016 318.23 335.659 336.754 335.659 336.754Z" fill="#1789FC"/>
<path d="M336.446 337.841C318.206 344.076 295.047 336.599 283.922 319.73C286.023 291.943 290.439 245.993 297.005 239.111C306.555 229.15 327.135 243.303 334.608 257.222C338.452 264.389 345.71 289.925 345.71 289.925L373.787 272.59L382.31 294.22C382.31 294.22 363.067 333.52 336.948 324.568L336.446 337.841Z" fill="#F8997C"/>
<path d="M318.898 286.872C318.898 286.563 319.012 286.267 319.213 286.049C319.415 285.83 319.688 285.708 319.973 285.708C320.258 285.708 320.531 285.83 320.732 286.049C320.934 286.267 321.047 286.563 321.047 286.872C321.047 295.695 321.286 305.138 325.225 313.107C328.448 319.627 334.298 325.086 341.365 325.474C342.75 325.474 342.75 327.88 341.365 327.802C337.702 327.432 334.182 326.082 331.119 323.874C328.056 321.666 325.547 318.668 323.817 315.151C319.256 306.639 318.851 296.419 318.898 286.872Z" fill="white"/>
<path d="M328.711 188.505C330.191 188.841 332.555 191.402 336.112 200.458C339.67 209.513 331.146 221.156 327.446 223.51C323.745 225.865 318.373 235.386 318.373 235.386C318.373 235.386 304.764 238.956 295.62 220.871C286.476 202.786 306.627 183.278 328.711 188.505Z" fill="#35406E"/>
<path d="M332.555 198.543C332.555 198.543 339.407 228.736 329.308 235.644C319.209 242.552 305.552 224.235 304.239 216.913C302.926 209.591 310.375 193.808 332.555 198.543Z" fill="#FF7D09"/>
<path d="M332.555 198.543C332.555 198.543 334.25 218.284 324.819 222.605C315.389 226.925 315.269 233.135 315.269 233.135C315.269 233.135 298.032 223.148 296.169 214.3C294.307 205.451 319.376 190.781 332.555 198.543Z" fill="#35406E"/>
<path d="M300.825 222.294C304.263 251.866 297.363 289.744 308.704 317.531C309.396 319.239 310.9 326.949 312.07 326.923L284.542 310.649C273.512 303.249 265.442 298.463 269.406 279.602C273.369 260.741 295.668 220.819 295.668 220.819L300.825 222.294Z" fill="#35406E"/>
<path d="M342.893 275.022C344.642 282.873 346.005 290.818 346.975 298.825C347.166 300.3 344.994 300.3 344.827 298.825C343.873 290.992 342.534 283.219 340.816 275.54C340.481 274.169 342.558 273.574 342.893 275.022Z" fill="white"/>
<path d="M304.12 235.67L306.698 229.59C311.786 232.428 317.052 234.874 322.456 236.912C328.926 239.059 327.231 247.261 327.231 247.261C327.231 247.261 312.07 247.261 304.12 235.67Z" fill="#5FAD00"/>
<path d="M588.447 387.025C620.607 387.025 646.678 358.772 646.678 323.922C646.678 289.071 620.607 260.818 588.447 260.818C556.287 260.818 530.216 289.071 530.216 323.922C530.216 358.772 556.287 387.025 588.447 387.025Z" fill="#F2AE16"/>
<path d="M582.741 388.681C614.901 388.681 640.972 360.428 640.972 325.577C640.972 290.726 614.901 262.474 582.741 262.474C550.581 262.474 524.51 290.726 524.51 325.577C524.51 360.428 550.581 388.681 582.741 388.681Z" fill="#FFD008"/>
<path d="M603.536 330.027C604.205 324.491 604.205 324.491 593.174 322.266L608.813 293.263H597.663C595.657 294.401 594.464 297.014 592.172 302.163C589.45 308.295 586.776 314.452 583.815 321.231C580.95 314.426 578.467 308.295 575.913 302.421C573.764 297.247 572.594 294.66 570.756 293.418H559.153C564.142 303.172 569.18 313.184 573.74 322.085C570.541 326.043 561.803 319.058 562.853 330.131H577.178V337.22H563.14L562.185 340.144C564.572 347.517 572.666 341.437 577.799 344.982V360.738H589.426V344.206C604.181 342.834 604.181 342.834 603.345 337.091H589.713V330.027H603.536Z" fill="#F7931E"/>
<path d="M604.348 336.91H561.85V345.06H604.348V336.91Z" fill="#F7931E"/>
<path d="M604.109 322.136H561.612V330.286H604.109V322.136Z" fill="#F7931E"/>
<path d="M559.033 293.263H571.95L583.839 321.257L595.419 293.263H608.836L593.174 322.214L582.86 327.078L559.033 293.263Z" fill="#F7931E"/>
<path d="M583.983 380.66C612.055 380.66 634.812 355.999 634.812 325.577C634.812 295.156 612.055 270.495 583.983 270.495C555.91 270.495 533.153 295.156 533.153 325.577C533.153 355.999 555.91 380.66 583.983 380.66Z" stroke="#F7931E" stroke-width="1.015" stroke-miterlimit="10"/>
<path d="M582.741 484.15C613.002 484.15 637.534 477.652 637.534 469.636C637.534 461.62 613.002 455.121 582.741 455.121C552.48 455.121 527.948 461.62 527.948 469.636C527.948 477.652 552.48 484.15 582.741 484.15Z" fill="#E8A182"/>
<path d="M542.559 76.4764L540.172 84.5746C531.602 81.1795 522.363 80.2625 513.366 81.9139C504.37 83.5653 495.925 87.7281 488.864 93.9922L500.372 104.341L471.483 115.156V78.7791L482.561 87.9897C482.561 87.9897 510.448 60.4613 542.559 76.4764Z" fill="#35406E"/>
<path d="M430.108 315.513L437.486 312.615C440.239 322.039 445.209 330.523 451.907 337.233C458.605 343.942 466.8 348.646 475.686 350.881L476.259 334.633L501.805 352.744L475.113 375.072V359.936C475.113 359.936 438.011 352.847 430.108 315.513Z" fill="#35406E"/>
<path d="M136.899 413.958C135.557 413.964 134.229 413.655 133.008 413.052L132.411 417.296L195.489 419.055V413.88L136.899 413.958Z" fill="#EF8A3F"/>
<path d="M132.984 413.285L132.411 417.373L167.244 439.158V433.983C155.498 427.619 144.181 420.53 132.984 413.285Z" fill="#EF8A3F"/>
<path d="M168.152 118.519C166.09 118.9 163.97 118.574 162.087 117.588L122.121 451.706C124.508 453.31 127.063 454.733 129.522 456.26L169.966 118.338L168.152 118.519Z" fill="#EF8A3F"/>
<path d="M177.344 118.131C175.891 118.303 174.426 118.303 172.974 118.131C171.805 118.131 170.587 118.131 169.465 118.312L196.444 460.917C198.518 459.818 200.646 458.842 202.818 457.993L203.869 457.398H204.06L177.344 118.131Z" fill="#EF8A3F"/>
<path d="M172.974 118.157C171.377 118.164 169.782 118.285 168.199 118.519C167.572 118.573 166.941 118.573 166.313 118.519L163.687 480.735C165.042 480.217 166.499 480.092 167.913 480.373H170.3L171.637 480.218L174.144 118.338L172.974 118.157Z" fill="#EF8A3F"/>
<path d="M129.379 123.927V198.776C129.379 198.776 208.835 201.363 208.835 198.776V123.927" fill="#1789FC"/>
<path d="M169.107 143.719C191.048 143.719 208.835 134.788 208.835 123.771C208.835 112.755 191.048 103.824 169.107 103.824C147.165 103.824 129.379 112.755 129.379 123.771C129.379 134.788 147.165 143.719 169.107 143.719Z" fill="#35406E"/>
<path d="M169.107 219.836C191.048 219.836 208.835 210.905 208.835 199.889C208.835 188.872 191.048 179.941 169.107 179.941C147.165 179.941 129.379 188.872 129.379 199.889C129.379 210.905 147.165 219.836 169.107 219.836Z" fill="#1789FC"/>
<path opacity="0.32" d="M199.523 459.571L108.106 516.543L59.401 485.366L122.121 451.706" fill="url(#paint2_linear)"/>
<path d="M323.291 542.648C323.22 542.377 323.07 542.137 322.864 541.965C322.658 541.792 322.406 541.696 322.145 541.691H321.763H321.501C320.976 538.043 319.877 531.652 319.734 530.695C319.018 525.883 318.564 521.018 318.206 516.18C317.561 507.332 317.37 498.432 317.203 489.557C316.869 472.611 316.654 455.509 313.574 438.821C310.28 420.969 301.828 405.187 297.291 387.723C292.585 369.428 290.768 350.402 291.92 331.45C291.92 329.795 289.532 329.795 289.532 331.45C288.385 350.285 290.128 369.196 294.689 387.413C299.464 406.015 308.441 422.806 311.664 441.9C314.887 460.994 314.482 479.933 315.007 498.975C315.269 508.212 315.699 517.448 316.774 526.633C317.323 531.264 317.179 542.57 321.286 545.209C321.516 545.351 321.783 545.408 322.046 545.371C322.309 545.333 322.553 545.204 322.742 545.002C323.067 544.736 323.299 544.358 323.399 543.93C323.499 543.502 323.461 543.05 323.291 542.648Z" fill="#F9F9F9"/>
</g>
<defs>
<filter id="filter0_d" x="-4" y="0" width="963" height="788" filterUnits="userSpaceOnUse" color-interpolation-filters="sRGB">
<feFlood flood-opacity="0" result="BackgroundImageFix"/>
<feColorMatrix in="SourceAlpha" type="matrix" values="0 0 0 0 0 0 0 0 0 0 0 0 0 0 0 0 0 0 127 0"/>
<feOffset dy="4"/>
<feGaussianBlur stdDeviation="2"/>
<feColorMatrix type="matrix" values="0 0 0 0 0 0 0 0 0 0 0 0 0 0 0 0 0 0 0.25 0"/>
<feBlend mode="normal" in2="BackgroundImageFix" result="effect1_dropShadow"/>
<feBlend mode="normal" in="SourceGraphic" in2="effect1_dropShadow" result="shape"/>
</filter>
<filter id="filter1_d" x="12.8474" y="164.549" width="929.308" height="598.812" filterUnits="userSpaceOnUse" color-interpolation-filters="sRGB">
<feFlood flood-opacity="0" result="BackgroundImageFix"/>
<feColorMatrix in="SourceAlpha" type="matrix" values="0 0 0 0 0 0 0 0 0 0 0 0 0 0 0 0 0 0 127 0"/>
<feOffset dy="7"/>
<feGaussianBlur stdDeviation="2"/>
<feColorMatrix type="matrix" values="0 0 0 0 0 0 0 0 0 0 0 0 0 0 0 0 0 0 0.2 0"/>
<feBlend mode="normal" in2="BackgroundImageFix" result="effect1_dropShadow"/>
<feBlend mode="normal" in="SourceGraphic" in2="effect1_dropShadow" result="shape"/>
</filter>
<linearGradient id="paint0_linear" x1="394.63" y1="624.819" x2="314.054" y2="571.078" gradientUnits="userSpaceOnUse">
<stop offset="0.01" stop-color="#F2F2F2" stop-opacity="0"/>
<stop offset="1" stop-color="#DD6F31"/>
</linearGradient>
<linearGradient id="paint1_linear" x1="40323.1" y1="18285.9" x2="38642.6" y2="16401.1" gradientUnits="userSpaceOnUse">
<stop offset="0.01" stop-color="#F2F2F2" stop-opacity="0"/>
<stop offset="1" stop-color="#DD6F31"/>
</linearGradient>
<linearGradient id="paint2_linear" x1="110.207" y1="502.132" x2="140.902" y2="461.869" gradientUnits="userSpaceOnUse">
<stop stop-color="white" stop-opacity="0"/>
<stop offset="1" stop-color="#D43500"/>
</linearGradient>
</defs>
</svg>
