<svg width="406" height="306" viewBox="0 0 406 306" fill="none" xmlns="http://www.w3.org/2000/svg">
<g clip-path="url(#clip0)">
<path opacity="0.18" d="M162.578 17.0259L149.765 13.7682C131.055 9.1641 110.923 4.62512 92.9297 11.5205C78.3137 17.1562 67.4766 29.4918 57.2476 41.2845C43.7935 56.856 30.2418 72.5687 20.2082 90.5509C-3.45313 132.965 -7.00396 193.297 13.0957 237.416C21.0986 254.997 31.8163 272.067 47.8439 282.926C64.5339 294.251 85.6434 297.726 105.721 295.848C125.799 293.969 145.085 287.106 163.544 279.179C184.176 270.34 206.035 259.861 228.057 264.161C239.556 266.398 249.861 272.523 260.199 278.028C278.376 287.714 297.814 295.891 318.337 297.672C338.86 299.453 360.686 294.154 375.552 279.863C390.005 265.942 396.184 245.56 399.615 225.797C403.264 205.28 404.078 184.359 402.037 163.62C400.082 143.488 408.552 124.474 405.207 103.809C402.569 87.619 394.11 71.928 380.341 63.0021C363.26 51.9369 341.412 52.7514 321.062 53.2291C303.775 53.6345 286.488 53.5187 269.201 52.8817C258.602 52.5016 247.863 51.8827 237.786 48.5381C226.276 44.7484 216.199 37.6793 205.416 32.1305C191.919 25.246 177.324 20.8047 162.578 17.0259Z" fill="#3D9BFB"/>
<path d="M189.03 106.492L198.803 74.5886C200.063 68.4751 200.616 61.2649 201.311 55.0428C201.657 53.0107 201.639 50.9332 201.257 48.9076C200.627 46.2689 198.857 43.413 200.269 41.0892C201.681 38.7654 205.601 39.1455 208 40.7526C211.312 42.9244 213.528 47.8977 210.9 50.8947C210.083 51.5957 209.317 52.3541 208.609 53.1642C207.707 54.5541 207.957 56.4219 208.131 58.0181C208.934 65.6193 207.349 73.2204 205.785 80.8216L201.442 101.605C200.356 106.666 198.684 112.464 193.841 114.343C193.487 114.515 193.102 114.612 192.71 114.627C192.317 114.642 191.925 114.575 191.56 114.43C191.125 114.181 190.754 113.835 190.474 113.42C189.356 111.65 189.15 108.609 189.03 106.492Z" fill="#C1A7A7"/>
<path d="M189.03 106.492L198.803 74.5886C200.063 68.4751 200.616 61.2649 201.311 55.0428C201.657 53.0107 201.639 50.9332 201.257 48.9076C200.627 46.2689 198.857 43.413 200.269 41.0892C201.681 38.7654 205.601 39.1455 208 40.7526C211.312 42.9244 213.528 47.8977 210.9 50.8947C210.083 51.5957 209.317 52.3541 208.609 53.1642C207.707 54.5541 207.957 56.4219 208.131 58.0181C208.934 65.6193 207.349 73.2204 205.785 80.8216L201.442 101.605C200.356 106.666 198.684 112.464 193.841 114.343C193.487 114.515 193.102 114.612 192.71 114.627C192.317 114.642 191.925 114.575 191.56 114.43C191.125 114.181 190.754 113.835 190.474 113.42C189.356 111.65 189.15 108.609 189.03 106.492Z" fill="url(#paint0_linear)"/>
<path d="M245.279 187.813C245.372 193.926 244.261 199.997 242.008 205.68C239.755 211.363 236.405 216.547 232.149 220.935C227.892 225.323 222.814 228.83 217.202 231.255C211.591 233.681 205.556 234.977 199.444 235.071C193.331 235.164 187.26 234.053 181.577 231.8C175.894 229.547 170.711 226.197 166.322 221.941C161.934 217.684 158.427 212.606 156.002 206.994C153.576 201.383 152.28 195.348 152.186 189.236C152.186 188.758 152.186 188.291 152.186 187.813C152.163 186.624 152.21 185.435 152.327 184.252C153.228 172.236 158.754 161.038 167.742 153.014C176.73 144.989 188.48 140.763 200.52 141.224C212.56 141.685 223.952 146.798 232.3 155.487C240.648 164.176 245.3 175.764 245.279 187.813Z" fill="#3D9BFB"/>
<path opacity="0.14" d="M179.17 208.955C177.628 215.688 179.507 222.855 178.084 229.587C167.331 224.276 159.039 215.023 154.933 203.754C154.705 201.439 154.76 199.106 155.096 196.804C155.411 194.329 155.867 191.766 155.172 189.366C154.5 187.523 153.523 185.805 152.284 184.284C152.798 177.479 154.807 170.871 158.166 164.931C161.526 158.99 166.154 153.864 171.721 149.916C171.776 150.229 171.776 150.548 171.721 150.861L169.723 159.722C170.125 162.349 170.125 165.021 169.723 167.648C169.51 168.961 169.01 170.211 168.26 171.309C167.509 172.407 166.526 173.326 165.38 174.001C164.521 174.359 163.687 174.772 162.882 175.239C162.104 175.865 161.458 176.641 160.982 177.519C159.692 179.311 158.732 181.319 158.148 183.448C157.86 184.512 157.843 185.631 158.099 186.702C158.355 187.774 158.876 188.765 159.614 189.583L172.644 187.064C174.002 186.803 175.641 186.619 176.575 187.64C177.661 188.856 176.988 190.81 177.237 192.45C177.542 194.546 179.409 196.055 180.278 198.01C181.852 201.408 180.017 205.285 179.17 208.955Z" fill="#020202"/>
<path opacity="0.14" d="M167.356 155.183C165.499 157.354 163.577 159.667 163.012 162.458C162.837 163.057 162.837 163.694 163.012 164.293C163.262 164.766 163.609 165.18 164.03 165.509C164.451 165.839 164.937 166.075 165.456 166.204C169.869 167.899 174.575 168.703 179.301 168.571C179.029 171.232 178.91 174.316 180.853 176.173C181.588 176.814 182.44 177.308 183.362 177.628C186.288 178.78 189.385 179.44 192.527 179.582C195.155 179.702 197.815 179.441 200.443 179.734C203.687 180.089 206.79 181.254 209.466 183.122C210.153 183.537 210.719 184.125 211.106 184.827C211.39 185.586 211.505 186.397 211.443 187.205C211.461 190.062 211.826 192.906 212.529 195.675C213.234 198.368 214.375 201.104 216.633 202.744C217.829 203.514 219.131 204.103 220.499 204.492L229.783 207.663C230.008 207.766 230.261 207.789 230.5 207.728C230.729 207.606 230.906 207.405 230.999 207.164C232.031 205.144 233.052 202.907 232.628 200.648C232.205 198.39 230.457 196.75 229.642 194.676C228.306 191.418 229.349 187.553 228.252 184.186C227.471 182.146 226.234 180.312 224.636 178.822C221.952 176.174 219.097 173.703 216.09 171.427C211.312 167.648 206.469 163.826 200.888 161.307C198.651 160.286 196.154 159.363 194.861 157.278C193.309 154.77 193.982 151.328 192.31 148.895C190.941 146.919 188.368 146.159 185.968 146.029C181.996 145.909 178.062 146.83 174.555 148.7C171.395 150.296 169.658 152.479 167.356 155.183Z" fill="#020202"/>
<path opacity="0.14" d="M245.279 187.813C245.287 194.853 243.695 201.802 240.623 208.136C237.551 214.47 233.08 220.023 227.546 224.375C226.904 223.954 226.354 223.407 225.928 222.768C224.538 220.661 224.995 217.338 227.242 216.144C226.46 216.557 223.387 215.547 222.464 215.406L217.676 214.667C215.384 214.309 211.378 214.461 210.075 212.148C209.927 211.827 209.749 211.522 209.542 211.236C209.257 210.945 208.918 210.713 208.543 210.552C207.099 209.846 205.416 209.053 205.069 207.479C204.83 206.328 205.405 205.025 204.808 204.004C204.623 203.689 204.341 203.439 204.156 203.124C203.955 202.65 203.88 202.133 203.937 201.621C203.994 201.11 204.182 200.621 204.482 200.203C206.502 196.674 210.683 194.958 214.7 194.285C218.718 193.612 222.866 193.71 226.775 192.58C229.24 191.864 231.586 190.669 234.127 190.322C235.528 190.126 237.287 189.974 237.797 188.66C238.079 187.911 237.797 187.042 238.09 186.293C238.21 185.967 238.427 185.685 238.546 185.359C238.624 185.119 238.654 184.866 238.634 184.614C238.614 184.362 238.544 184.117 238.429 183.892C238.314 183.667 238.156 183.467 237.964 183.303C237.771 183.14 237.549 183.015 237.308 182.938C237.188 182.902 237.064 182.877 236.939 182.862C237.265 181.993 237.526 180.875 236.841 180.256C236.601 180.079 236.321 179.964 236.026 179.918C235.731 179.873 235.43 179.899 235.147 179.995C233.475 180.408 232.27 181.819 230.869 182.818C226.222 186.076 219.847 184.99 215.971 181.059C215.342 180.504 214.892 179.775 214.679 178.963C214.618 178.271 214.775 177.577 215.127 176.977C215.479 176.378 216.009 175.903 216.644 175.619C217.917 175.076 219.289 174.805 220.673 174.826C220.162 171.449 219.587 168.061 219.12 164.695C211.388 166.769 208.261 159.396 207.175 153.272C206.089 147.147 210.433 144.954 216.036 144.584C224.671 148.045 232.071 154.012 237.283 161.717C242.495 169.422 245.28 178.511 245.279 187.813Z" fill="#020202"/>
<path d="M211.019 208.467C211.019 211.029 215.156 213.451 217.176 214.048C218.02 214.223 218.843 214.489 219.63 214.841C220.018 215.033 220.344 215.33 220.571 215.699C220.798 216.068 220.916 216.493 220.912 216.926C220.825 217.675 220.217 218.283 220.054 219.011C219.965 219.65 220.044 220.301 220.282 220.9C221.053 223.387 224.115 224.929 224.864 227.415C229.099 226.992 231.01 227.35 235.202 226.644L238.698 224.407C236.939 221.15 235.191 217.827 233.421 214.526C232.748 213.127 231.913 211.811 230.934 210.606C229.779 209.41 228.472 208.369 227.047 207.511C223.369 205.12 219.543 202.965 215.591 201.061C216.123 201.365 211.019 207.804 211.019 208.467Z" fill="url(#paint1_linear)"/>
<path d="M213.495 196.837C213.061 198.249 212.67 199.91 213.495 201.094C213.898 201.592 214.432 201.968 215.037 202.179C215.741 202.524 216.529 202.663 217.309 202.58C218.088 202.498 218.829 202.197 219.446 201.713C220.096 200.995 220.556 200.125 220.781 199.182C221.879 195.737 222.671 192.201 223.148 188.617C223.236 188.289 223.236 187.945 223.148 187.618C222.964 187.272 222.67 186.997 222.312 186.836C220.434 185.826 217.491 185.012 216.438 187.259C215.059 190.202 214.429 193.764 213.495 196.837Z" fill="#C1A7A7"/>
<path d="M219.153 198.477C219.555 198.424 219.963 198.464 220.347 198.596C220.606 198.739 220.832 198.935 221.009 199.172L225.071 203.819C225.863 204.721 226.699 205.991 226.156 207.012C225.966 207.313 225.71 207.568 225.407 207.756C225.104 207.944 224.763 208.061 224.408 208.098C222.439 208.297 220.455 207.92 218.696 207.012C217.437 206.458 216.21 205.861 214.994 205.209C214.086 204.793 213.295 204.159 212.691 203.363C211.768 201.93 211.486 198.477 213.148 197.402C213.973 196.87 214.7 197.25 215.504 197.63C216.634 198.202 217.886 198.493 219.153 198.477Z" fill="#3D9BFB"/>
<path d="M236.049 212.648C236.08 212.911 236.05 213.179 235.962 213.429C235.822 213.676 235.62 213.882 235.376 214.027C234.6 214.563 233.69 214.871 232.748 214.917C232.281 214.938 231.816 214.851 231.388 214.663C230.96 214.475 230.582 214.19 230.283 213.831C229.849 213.132 229.588 212.339 229.523 211.518C229.179 209.751 229.008 207.954 229.012 206.154C228.988 206.049 228.988 205.939 229.011 205.833C229.035 205.728 229.081 205.629 229.148 205.543C229.214 205.458 229.299 205.389 229.396 205.34C229.493 205.292 229.599 205.266 229.707 205.264C231.173 204.949 234.051 204.178 234.833 205.991C235.583 208.133 235.994 210.379 236.049 212.648Z" fill="#C1A7A7"/>
<path d="M242.249 212.463C243.504 212.526 244.743 212.767 245.93 213.18C246.528 213.389 247.076 213.719 247.541 214.149C248.006 214.578 248.378 215.098 248.634 215.677C248.87 216.254 248.897 216.896 248.71 217.491C248.307 218.355 247.594 219.037 246.712 219.402C242.53 221.672 237.79 222.712 233.041 222.399C231.819 222.44 230.629 222 229.729 221.172C229.063 220.178 228.753 218.987 228.849 217.795L228.687 212.17C229.772 212.007 230.717 212.702 231.727 213.049C233.475 213.646 234.159 212.213 235.604 211.866C237.482 211.431 240.327 212.267 242.249 212.463Z" fill="#3D9BFB"/>
<path d="M219.153 198.477C219.555 198.424 219.963 198.464 220.347 198.596C220.606 198.739 220.832 198.935 221.009 199.172L225.071 203.819C225.863 204.721 226.699 205.991 226.156 207.012C225.966 207.313 225.71 207.568 225.407 207.756C225.104 207.944 224.763 208.061 224.408 208.098C222.439 208.297 220.455 207.92 218.696 207.012C217.437 206.458 216.21 205.861 214.994 205.209C214.086 204.793 213.295 204.159 212.691 203.363C211.768 201.93 211.486 198.477 213.148 197.402C213.973 196.87 214.7 197.25 215.504 197.63C216.634 198.202 217.886 198.493 219.153 198.477Z" fill="url(#paint2_linear)"/>
<path d="M212.116 199.324C212.18 199.748 212.293 200.163 212.453 200.562C212.628 201.089 212.861 201.595 213.148 202.071C213.538 202.623 214.023 203.101 214.581 203.483C215.98 204.424 217.509 205.155 219.12 205.654C221.564 206.607 224.22 206.884 226.808 206.458C226.574 207.03 226.131 207.491 225.57 207.75C225.013 208.002 224.411 208.139 223.8 208.152C221.413 208.083 219.076 207.45 216.981 206.306L214.581 205.22C214.244 205.071 213.921 204.893 213.614 204.688C213.188 204.37 212.821 203.981 212.529 203.537C211.984 202.739 211.651 201.816 211.562 200.855C211.519 200.389 211.552 199.92 211.66 199.465C211.66 199.269 211.942 198.379 212.203 198.379C212.109 198.684 212.08 199.006 212.116 199.324Z" fill="#473F47"/>
<path d="M242.249 212.463C243.504 212.526 244.743 212.767 245.93 213.18C246.528 213.389 247.076 213.719 247.541 214.149C248.006 214.578 248.378 215.098 248.634 215.677C248.87 216.254 248.897 216.896 248.71 217.491C248.307 218.355 247.594 219.037 246.712 219.402C242.53 221.672 237.79 222.712 233.041 222.399C231.819 222.44 230.629 222 229.729 221.172C229.063 220.178 228.753 218.987 228.849 217.795L228.687 212.17C229.772 212.007 230.717 212.702 231.727 213.049C233.475 213.646 234.159 212.213 235.604 211.866C237.482 211.431 240.327 212.267 242.249 212.463Z" fill="url(#paint3_linear)"/>
<path d="M227.21 150.34C228.431 150.568 229.561 151.141 230.467 151.99C231.553 153.163 231.553 154.9 231.553 156.486C231.53 167.85 229.417 179.113 225.32 189.714C225.227 190.104 225.056 190.472 224.817 190.795C224.579 191.118 224.277 191.389 223.93 191.592C223.305 191.776 222.636 191.745 222.03 191.505C219.575 190.82 217.158 190.008 214.787 189.073L217.991 167.475C218.144 166.871 218.11 166.235 217.893 165.65C217.655 165.245 217.324 164.902 216.926 164.651C213.27 161.944 209.403 159.533 205.362 157.441C202.104 155.78 198.456 153.89 197.576 150.329C197.395 149.732 197.358 149.102 197.468 148.489C197.577 147.875 197.83 147.297 198.206 146.8C198.714 146.291 199.315 145.886 199.976 145.605C202.148 144.519 204.808 143.162 207.273 143.433C209.228 143.629 209.988 144.791 211.616 145.605C216.221 148.005 222.269 148.874 227.21 150.34Z" fill="white"/>
<path d="M217.339 189.931C217.068 189.844 218.023 184.751 218.11 184.241C218.284 183.242 219.033 178.811 219.826 181.884C219.954 182.558 220.034 183.241 220.065 183.926C220.163 184.744 220.304 185.556 220.488 186.358C220.59 186.989 220.776 187.602 221.042 188.183C221.546 189.034 222.218 189.773 223.018 190.354C223.167 190.514 223.367 190.617 223.583 190.647C223.898 190.647 224.137 190.354 224.267 190.061C224.593 189.15 224.734 188.182 224.68 187.216C224.842 181.787 227.655 177.052 227.47 171.482C227.47 170.124 226.178 168.485 225.635 167.236C225.154 166.227 224.79 165.167 224.549 164.076C223.865 160.373 226.048 156.757 226.352 153L218.99 156.616L214.787 189.116L217.339 189.931Z" fill="url(#paint4_linear)"/>
<path d="M198.206 147.169C196.73 147.994 195.211 148.741 193.656 149.406C193.243 149.59 192.831 149.764 192.407 149.927C187.627 151.894 182.432 152.64 177.292 152.099C176.771 152.033 176.249 151.947 175.728 151.838C172.765 151.364 170.053 149.893 168.04 147.668C165.64 144.791 165.076 140.784 164.924 137.016V135.93C164.791 131.232 165.154 126.533 166.009 121.911C166.896 116.415 169.024 111.193 172.232 106.644C174.395 103.717 177.209 101.334 180.452 99.6831C183.807 97.9783 187.781 97.1096 191.365 98.2932C193.224 98.979 194.943 99.9983 196.436 101.301C196.994 101.718 197.494 102.207 197.924 102.756C198.525 103.636 198.939 104.63 199.14 105.677C200.627 112.192 198.564 118.849 196.968 125.321C196.088 129.013 195.415 133.074 197.098 136.462C199.498 141.251 205.307 143.205 198.206 147.169Z" fill="#3D9BFB"/>
<path d="M198.206 147.191C198.076 148.689 196.186 149.243 194.677 149.362L193.656 149.417C188.23 149.731 182.788 149.233 177.509 147.94C176.859 147.711 176.156 147.68 175.489 147.853C175.388 147.888 175.292 147.94 175.207 148.005V148.363C175.035 148.955 175 149.578 175.103 150.186C175.207 150.793 175.446 151.369 175.804 151.871C172.841 151.397 170.129 149.926 168.116 147.701C165.716 144.823 165.152 140.816 165 137.048V135.963C164.929 133.18 165.016 130.396 165.26 127.623C165.339 125.143 165.704 122.68 166.346 120.282C167.914 115.734 170.701 111.703 174.403 108.631C174.748 108.309 175.149 108.055 175.587 107.882C176.082 107.759 176.597 107.74 177.1 107.826C177.603 107.911 178.082 108.101 178.508 108.381C179.249 108.736 179.908 109.243 180.441 109.869C181.126 110.819 181.505 111.955 181.527 113.127C181.56 114.712 181.418 116.296 181.103 117.85C180.778 120.176 180.277 122.474 179.605 124.724C179.282 125.546 179.038 126.396 178.877 127.265C178.747 128.382 178.943 129.514 179.442 130.522C179.844 131.434 179.909 132.39 180.234 133.346C180.906 135.31 181.983 137.112 183.394 138.634C186.337 141.733 190.218 143.779 194.438 144.454C195.317 144.531 196.178 144.747 196.99 145.095C197.363 145.301 197.674 145.605 197.888 145.974C198.102 146.344 198.212 146.764 198.206 147.191Z" fill="url(#paint5_linear)"/>
<path d="M184.437 107.567C185.011 108.291 185.732 108.887 186.551 109.315C187.37 109.744 188.27 109.995 189.193 110.053C189.484 110.086 189.779 110.021 190.029 109.869C190.292 109.602 190.44 109.244 190.442 108.87C190.529 108.121 190.637 107.165 190.713 106.209C190.789 105.254 190.941 104.038 191.05 103.278C191.269 101.115 192.089 99.0579 193.417 97.3378C193.688 96.9625 194.001 96.6199 194.351 96.3171C196.642 94.2539 187.325 95.0683 186.098 92.2559C184.687 94.091 184.817 96.6645 184.187 98.9123C183.767 100.007 183.404 101.124 183.101 102.257C182.941 103.186 182.977 104.139 183.207 105.053C183.437 105.968 183.856 106.824 184.437 107.567Z" fill="#C1A7A7"/>
<path d="M190.594 106.644L190.713 106.209C190.844 105.124 190.941 104.038 191.05 103.278C191.269 101.116 192.089 99.058 193.417 97.3379L193.482 97.1098C193.482 97.1098 186.098 92.2559 185.306 97.9351C184.513 103.614 190.594 106.644 190.594 106.644Z" fill="url(#paint6_linear)"/>
<path d="M198.293 93.9716C198.434 95.1493 198.215 96.3421 197.663 97.3922C197.368 97.8157 197.001 98.1834 196.577 98.478C193.645 100.65 189.236 100.248 186.326 97.9568C184.913 96.7457 183.774 95.248 182.984 93.5631C182.194 91.8782 181.771 90.0446 181.744 88.1839C181.539 86.2447 182.087 84.3009 183.275 82.7545C183.997 82.0537 184.883 81.5446 185.852 81.2734C186.821 81.0022 187.843 80.9776 188.824 81.2017C191.501 81.8316 193.94 83.2188 195.85 85.1977C197.728 87.3043 198.195 91.3112 198.293 93.9716Z" fill="#C1A7A7"/>
<path d="M224.919 165.412C226.442 167.38 227.641 169.58 228.469 171.927C233.098 183.303 236.1 195.275 237.384 207.49C233.595 207.967 229.761 207.967 225.972 207.49C225.675 198.837 224.359 190.25 222.052 181.906C221.651 180.12 220.953 178.413 219.989 176.857C218.305 174.37 215.536 172.937 212.876 171.59C206.749 168.548 200.337 166.119 193.732 164.337C190.952 163.555 188.151 162.849 185.414 161.904C183.055 161.201 180.846 160.067 178.899 158.56C177.926 157.798 177.116 156.849 176.515 155.77C175.915 154.69 175.536 153.501 175.402 152.273C175.402 152.902 189.236 152.273 190.529 152.077C194.872 151.61 199.954 149.091 204.232 150.872C207.577 152.262 210.628 155.161 213.636 157.159C217.448 159.646 221.965 161.969 224.919 165.412Z" fill="white"/>
<path d="M205.21 164.489L181.125 152.544L208.999 142.5L230.956 152.24L205.21 164.489Z" fill="#3D9BFB"/>
<path d="M205.34 162.675L185.24 152.696L208.511 144.313L226.851 152.446L205.34 162.675Z" fill="url(#paint7_linear)"/>
<path d="M171.775 113.322C171.721 113.735 171.667 114.147 171.623 114.56C170.972 120.684 171.558 126.711 171.786 132.814C171.928 136.582 172.416 143.781 176.358 145.714C183.764 149.33 198.01 147.94 198.01 147.94C199.661 147.679 201.348 147.745 202.973 148.135C203.863 148.418 204.678 148.895 205.536 149.221C208.652 150.437 212.138 149.818 215.417 149.221C215.985 149.156 216.533 148.971 217.024 148.678C218.295 147.81 218.24 145.746 217.296 144.53C216.229 143.417 214.845 142.659 213.332 142.358C209.191 140.979 204.743 140.806 200.508 141.859C199.967 142.043 199.416 142.195 198.857 142.315C198.204 142.422 197.543 142.469 196.881 142.456H191.843C186.066 142.511 180.615 142.532 179.746 135.659C179.42 133.116 179.355 130.548 179.55 127.992C179.898 123.377 181.081 118.806 180.832 114.18C180.806 112.713 180.434 111.273 179.746 109.978C179.407 109.339 178.909 108.799 178.301 108.409C177.692 108.019 176.993 107.792 176.271 107.751C175.515 107.81 174.788 108.065 174.161 108.492C173.534 108.918 173.03 109.502 172.698 110.184C172.215 111.17 171.903 112.231 171.775 113.322Z" fill="#C1A7A7"/>
<path d="M240.001 130.262L209.314 146.126L205.21 164.489L230.956 152.24L240.001 130.262Z" fill="#3D9BFB"/>
<path d="M198.618 80.941C198.484 80.752 198.319 80.5869 198.13 80.4523C198.336 80.3605 198.509 80.2065 198.624 80.0119C198.739 79.8172 198.79 79.5916 198.77 79.3664C198.705 78.9104 198.38 78.8778 198.054 78.6932C197.728 78.5086 197.902 78.3131 197.674 77.9548C197.51 77.7495 197.272 77.6168 197.011 77.5856L194.709 76.9992C194.709 76.706 194.785 76.3586 194.568 76.1631C194.351 75.9676 193.732 76.1631 193.287 76.0545C192.657 75.9568 192.375 75.2184 191.919 74.7623C190.898 73.7524 190.225 74.7623 189.302 74.9252C188.379 75.0881 188.009 74.0999 186.945 73.9588C186.113 73.8956 185.276 74.0103 184.491 74.2954C183.622 74.4926 182.816 74.9031 182.146 75.4898C181.678 76.0204 181.31 76.6311 181.06 77.2924C180.797 77.0959 180.467 77.0108 180.142 77.0555C179.817 77.1002 179.522 77.2712 179.322 77.5313L179.225 77.6942C179.018 78.1394 179.094 78.6932 178.801 79.0733C178.581 79.0516 178.359 79.0516 178.139 79.0733C177.92 79.1303 177.716 79.234 177.542 79.3773C177.364 79.5294 177.221 79.7175 177.122 79.929C177.023 80.1406 176.97 80.3707 176.966 80.6043C176.626 80.5209 176.269 80.5475 175.945 80.6804C176.12 80.3658 176.241 80.0246 176.304 79.6705C176.341 79.5377 176.345 79.3975 176.315 79.2629C176.285 79.1282 176.221 79.0032 176.13 78.8995C175.913 78.7258 175.489 78.8995 175.576 79.1818C175.623 79.0728 175.647 78.9556 175.648 78.837C175.649 78.7185 175.627 78.6008 175.583 78.4909C175.538 78.3809 175.473 78.2808 175.39 78.1963C175.306 78.1117 175.207 78.0444 175.098 77.9982C174.871 77.9233 174.627 77.9121 174.394 77.9656C174.16 78.0192 173.946 78.1356 173.774 78.3023C173.611 78.1503 173.893 77.8679 173.828 77.6507C173.797 77.575 173.749 77.5079 173.687 77.4553C173.396 77.181 173.062 76.9571 172.698 76.7929C172.522 76.7166 172.329 76.6885 172.138 76.7114C171.947 76.7343 171.766 76.8074 171.613 76.9232C171.482 76.1197 170.787 74.8926 169.788 75.1315C169.495 75.1967 169.245 75.5441 169.397 75.8156C169.042 75.4287 168.609 75.122 168.126 74.916C167.642 74.7101 167.121 74.6095 166.596 74.6211C166.237 74.6211 165.749 74.9143 165.933 75.2292C165.472 74.8853 164.945 74.6387 164.385 74.5044C163.825 74.37 163.243 74.3506 162.676 74.4474C162.575 74.4438 162.475 74.4709 162.39 74.5252C162.304 74.5795 162.238 74.6584 162.198 74.7514C162.144 74.936 162.459 75.1424 162.535 74.9578C162.25 74.9144 161.958 74.9503 161.692 75.0613C161.426 75.1724 161.195 75.3544 161.025 75.5876C160.745 75.9071 160.595 76.3209 160.608 76.746C160.62 77.171 160.792 77.5757 161.09 77.8788C161.753 78.4217 163.012 77.8788 162.839 76.9992C163.075 77.2898 163.409 77.4849 163.778 77.5488C164.147 77.6127 164.527 77.5409 164.848 77.3467C164.932 77.7784 165.184 78.1591 165.548 78.4054C165.912 78.6517 166.359 78.7435 166.791 78.6606C166.995 78.619 167.19 78.5418 167.367 78.4326C167.466 78.8504 167.683 79.2314 167.99 79.5313C168.298 79.8311 168.684 80.0376 169.104 80.1266C169.947 80.2895 170.813 80.2895 171.656 80.1266C171.44 80.3132 171.183 80.4467 170.905 80.5165C170.628 80.5862 170.339 80.5903 170.06 80.5283C169.792 80.4634 169.513 80.4634 169.245 80.5283C168.959 80.6811 168.705 80.8875 168.496 81.1364C168.454 81.1819 168.407 81.222 168.355 81.2559C168.221 81.3126 168.077 81.3419 167.931 81.3419C167.786 81.3419 167.642 81.3126 167.508 81.2559C167.128 81.1252 166.715 81.1252 166.335 81.2559C166.149 81.3285 165.992 81.4604 165.888 81.631C165.784 81.8017 165.739 82.0018 165.76 82.2006C165.523 82.1514 165.279 82.1496 165.041 82.1951C164.804 82.2406 164.578 82.3326 164.376 82.4658C164.174 82.599 164.001 82.7708 163.865 82.9712C163.73 83.1717 163.636 83.3969 163.588 83.634C163.561 83.8139 163.561 83.9969 163.588 84.1769C163.348 84.0972 163.089 84.0964 162.849 84.1746C162.608 84.2527 162.399 84.4057 162.252 84.6112C162.128 84.8037 162.04 85.0171 161.992 85.2411C161.903 85.6512 161.863 86.0703 161.872 86.4898C161.864 86.6595 161.901 86.8283 161.981 86.9785C162.019 87.0542 162.082 87.1153 162.158 87.1526C162.234 87.1898 162.321 87.2011 162.404 87.1848C162.289 87.3157 162.202 87.4693 162.15 87.6358C162.098 87.8022 162.081 87.9778 162.1 88.1512C162.142 88.2899 162.216 88.4166 162.317 88.5204C162.489 88.7435 162.73 88.9037 163.002 88.9765C163.136 89.0136 163.278 89.0151 163.413 88.9808C163.548 88.9466 163.672 88.8777 163.773 88.781C164.055 88.5096 164.055 88.0643 164.294 87.6951C164.267 87.808 164.272 87.9259 164.306 88.0366C164.34 88.1473 164.404 88.2469 164.489 88.325C164.676 88.4744 164.914 88.5446 165.152 88.5204C165.218 88.5152 165.281 88.4927 165.336 88.4553C165.381 88.4093 165.414 88.3535 165.434 88.2924C165.611 87.8235 165.638 87.3111 165.51 86.8264C165.615 86.9222 165.744 86.9886 165.883 87.0191C166.022 87.0496 166.167 87.043 166.303 87.0002C166.437 86.9519 166.556 86.8676 166.646 86.7566C166.736 86.6456 166.794 86.512 166.813 86.3704C166.802 86.2185 166.802 86.0661 166.813 85.9143C166.813 85.6971 167.139 85.632 167.313 85.5125C167.555 85.3467 167.784 85.1615 167.997 84.9587C168.094 84.861 169.083 83.7208 168.985 83.6448C169.237 83.8077 169.542 83.8712 169.838 83.8231C170.135 83.775 170.404 83.6186 170.592 83.3842C170.761 83.6857 171.032 83.9175 171.356 84.0387C171.68 84.1599 172.036 84.1627 172.362 84.0466C171.253 84.8177 170.233 85.71 169.321 86.707C168.416 87.6967 167.873 88.9635 167.779 90.3013C167.745 90.9806 167.953 91.65 168.366 92.1907C168.58 92.4515 168.866 92.6446 169.187 92.7467C169.509 92.8489 169.854 92.8556 170.179 92.7662C170.167 92.6664 170.133 92.5705 170.078 92.4858C170.024 92.401 169.952 92.3294 169.867 92.2763C169.781 92.2231 169.685 92.1898 169.585 92.1788C169.485 92.1677 169.384 92.1792 169.289 92.2124C169.101 92.2929 168.933 92.4132 168.796 92.5651C168.659 92.7169 168.557 92.8967 168.496 93.092C168.384 93.3315 168.325 93.5929 168.325 93.8575C168.325 94.1221 168.384 94.3835 168.496 94.6231C168.61 94.8489 168.809 95.0203 169.049 95.0997C169.289 95.1791 169.551 95.16 169.777 95.0466C169.979 94.8654 170.145 94.6481 170.266 94.4059C170.657 93.9683 171.07 93.5515 171.504 93.1571C171.71 92.9524 171.839 92.6835 171.871 92.3951C171.902 92.1067 171.834 91.8161 171.678 91.5717C172.286 91.2786 172.264 90.3664 171.928 89.78C171.511 89.2563 171.147 88.6925 170.842 88.0969H173.1L174.186 87.0979C174.649 87.3917 175.169 87.585 175.711 87.6654C176.254 87.7459 176.807 87.7116 177.335 87.5648C177.246 88.095 177.323 88.6399 177.556 89.1242C177.79 89.6086 178.168 90.0085 178.638 90.2687C178.454 90.4099 178.193 90.5836 178.226 90.8551C178.245 90.943 178.288 91.0235 178.352 91.0871C178.416 91.1506 178.496 91.1945 178.584 91.2134C178.756 91.246 178.933 91.246 179.105 91.2134C179.181 91.3763 178.997 91.55 179.018 91.7346C179.042 91.8401 179.104 91.933 179.192 91.9952C179.393 92.1574 179.626 92.2758 179.876 92.3427C179.829 92.4051 179.803 92.4814 179.803 92.5599C179.803 92.6384 179.829 92.7147 179.876 92.7771C179.964 92.9057 180.089 93.0042 180.234 93.0594C180.592 93.2456 180.977 93.3739 181.375 93.4395C181.329 93.6582 181.352 93.8857 181.44 94.091C181.479 94.1953 181.554 94.2822 181.652 94.3359C181.749 94.3897 181.863 94.4068 181.972 94.3842C182.07 94.3842 182.157 94.2756 182.254 94.2973C182.315 94.3167 182.368 94.3546 182.406 94.4059C182.587 94.611 182.724 94.8513 182.808 95.1117C182.835 95.2349 182.882 95.3524 182.949 95.4592C183.049 95.5892 183.185 95.6873 183.34 95.7415C183.546 95.8175 183.796 95.8827 183.959 95.7415C184.012 95.6842 184.048 95.6133 184.064 95.5366C184.079 95.46 184.073 95.3805 184.046 95.3072C183.991 95.1655 183.914 95.0336 183.818 94.9163C183.872 94.942 183.934 94.9474 183.992 94.9314C184.049 94.9155 184.1 94.8793 184.133 94.8294C184.176 94.7139 184.176 94.5866 184.133 94.471C184.004 94.1703 183.828 93.8918 183.612 93.6458C183.601 93.6219 183.595 93.596 183.595 93.5698C183.595 93.5436 183.601 93.5176 183.612 93.4938C183.618 93.468 183.631 93.4439 183.647 93.4233C183.664 93.4027 183.685 93.386 183.709 93.3743C183.894 93.168 183.709 92.8314 183.601 92.5925C183.492 92.3536 183.242 92.0821 183.362 91.8215C183.425 91.7114 183.502 91.6093 183.59 91.5175C183.709 91.3546 183.709 91.0614 183.861 90.9419C183.936 90.9005 184.023 90.8886 184.105 90.9088C184.188 90.9289 184.26 90.9796 184.307 91.0505C184.415 91.1808 184.459 91.3546 184.556 91.4849C184.75 91.6756 184.965 91.8433 185.197 91.9844C185.36 92.1364 185.479 92.3536 185.653 92.5056C185.706 92.5768 185.779 92.63 185.863 92.6583C185.947 92.6865 186.038 92.6883 186.123 92.6635C186.208 92.6386 186.284 92.5884 186.34 92.5194C186.395 92.4504 186.429 92.366 186.435 92.2776C186.452 92.1323 186.434 91.985 186.381 91.8486C186.328 91.7122 186.242 91.591 186.131 91.4957C186.045 91.4381 185.969 91.3687 185.903 91.2894C185.867 91.2512 185.847 91.2007 185.847 91.1482C185.847 91.0958 185.867 91.0453 185.903 91.0071C185.946 91.0143 185.99 91.0076 186.029 90.9881C186.068 90.9686 186.1 90.9372 186.12 90.8985C186.131 90.8631 186.131 90.8253 186.12 90.7899C186.1 90.6878 186.051 90.5935 185.979 90.5184C185.979 90.5184 185.892 90.4316 185.903 90.3773C185.892 90.3493 185.892 90.3183 185.903 90.2904C186.011 90.1058 186.163 89.9429 186.261 89.7583C186.338 89.6117 186.355 89.4415 186.311 89.2822C186.267 89.1229 186.163 88.9865 186.022 88.9005C186.24 89.0377 186.499 89.0933 186.753 89.0575C187.008 89.0217 187.241 88.8968 187.412 88.705C187.747 88.3222 187.991 87.8696 188.129 87.3802C188.205 87.438 188.292 87.4802 188.385 87.5043C188.477 87.5285 188.574 87.5342 188.668 87.5211C188.763 87.508 188.855 87.4763 188.937 87.4279C189.02 87.3795 189.092 87.3154 189.15 87.2391C189.207 87.1628 189.249 87.0759 189.274 86.9833C189.298 86.8907 189.304 86.7943 189.29 86.6995C189.277 86.6047 189.246 86.5134 189.197 86.4309C189.149 86.3483 189.085 86.2761 189.008 86.2183H188.922C189.205 86.3609 189.509 86.4563 189.823 86.5007C189.981 86.5216 190.142 86.5016 190.29 86.4427C190.438 86.3838 190.569 86.2879 190.67 86.1641C190.941 85.784 190.8 85.1868 191.158 84.8827C191.711 85.3654 192.312 85.791 192.95 86.1532C193.461 86.3213 194.018 86.2797 194.499 86.0374C194.979 85.7951 195.344 85.372 195.513 84.861C195.513 84.861 195.513 84.861 195.513 84.7958C195.779 84.9719 196.083 85.0824 196.4 85.1183C196.717 85.1541 197.038 85.1143 197.337 85.0022C197.575 84.8161 197.746 84.557 197.822 84.2647C197.899 83.9724 197.877 83.663 197.761 83.3842C198.085 83.3454 198.386 83.1916 198.607 82.9505C198.828 82.7095 198.955 82.3972 198.966 82.0703C198.979 81.6656 198.857 81.2681 198.618 80.941Z" fill="#473F47"/>
<path d="M229.001 219.521C229.001 219.521 230.087 221.693 237.428 220.455C244.768 219.217 248.221 216.926 248.634 215.634C248.779 215.879 248.874 216.152 248.914 216.434C248.954 216.717 248.937 217.005 248.865 217.281C248.794 217.557 248.668 217.817 248.497 218.045C248.325 218.273 248.109 218.464 247.863 218.609C246.028 219.695 238.915 224.581 230.25 221.584C230.25 221.628 229.164 221.324 229.001 219.521Z" fill="#473F47"/>
<path d="M182.667 90.1602C182.523 90.1653 182.384 90.2105 182.265 90.2905C182.002 90.4634 181.794 90.7069 181.663 90.9931C181.532 91.2793 181.485 91.5966 181.527 91.9084C181.615 92.5387 181.896 93.1265 182.33 93.5915C182.505 93.8178 182.728 94.0031 182.982 94.1345C183.326 94.2762 183.695 94.35 184.068 94.3517C184.211 94.3842 184.359 94.3842 184.502 94.3517C184.646 94.2724 184.766 94.1561 184.85 94.0148C184.934 93.8736 184.979 93.7124 184.98 93.5481C185.037 92.764 184.867 91.98 184.491 91.2895C184.371 91.068 184.185 90.8895 183.959 90.7791C183.58 90.4795 183.138 90.268 182.667 90.1602Z" fill="#C1A7A7"/>
<path d="M175.022 81.853C174.589 83.0912 174.38 84.3964 174.403 85.7079C174.341 86.4179 174.434 87.1329 174.675 87.8037C174.894 88.2478 175.171 88.6605 175.5 89.0307C175.826 89.0608 176.154 89.0168 176.461 88.9021C176.767 88.7874 177.044 88.605 177.27 88.3683C177.382 88.2565 177.464 88.1184 177.509 87.9665C177.628 87.5539 177.346 87.163 177.118 86.7938C176.443 85.5663 176.283 84.1214 176.673 82.776C176.857 82.0376 178.15 80.0613 176.488 80.3762C176.136 80.4734 175.816 80.6608 175.559 80.9198C175.302 81.1789 175.117 81.5005 175.022 81.853Z" fill="#3D9BFB"/>
<path d="M197.652 241.456H196.566C196.422 241.456 196.284 241.399 196.182 241.297C196.08 241.195 196.023 241.057 196.023 240.913C196.023 240.769 196.08 240.631 196.182 240.529C196.284 240.427 196.422 240.37 196.566 240.37H197.652C197.796 240.37 197.934 240.427 198.036 240.529C198.138 240.631 198.195 240.769 198.195 240.913C198.195 241.057 198.138 241.195 198.036 241.297C197.934 241.399 197.796 241.456 197.652 241.456ZM203.081 241.456C202.937 241.456 202.799 241.399 202.698 241.297C202.596 241.195 202.539 241.057 202.539 240.913C202.539 240.769 202.596 240.631 202.698 240.529C202.799 240.427 202.937 240.37 203.081 240.37H204.167C204.311 240.37 204.449 240.427 204.551 240.529C204.653 240.631 204.71 240.769 204.71 240.913C204.71 241.057 204.653 241.195 204.551 241.297C204.449 241.399 204.311 241.456 204.167 241.456H203.081ZM191.137 241.325H190.051C189.98 241.323 189.909 241.306 189.845 241.276C189.78 241.246 189.722 241.204 189.673 241.151C189.625 241.099 189.587 241.037 189.563 240.97C189.538 240.903 189.527 240.832 189.53 240.761C189.528 240.692 189.541 240.624 189.566 240.56C189.592 240.496 189.63 240.438 189.679 240.389C189.728 240.34 189.786 240.302 189.85 240.276C189.914 240.251 189.982 240.238 190.051 240.24H191.137C191.281 240.24 191.419 240.297 191.521 240.399C191.622 240.5 191.68 240.639 191.68 240.783C191.68 240.927 191.622 241.065 191.521 241.166C191.419 241.268 191.281 241.325 191.137 241.325ZM209.597 241.325C209.453 241.325 209.315 241.268 209.213 241.166C209.111 241.065 209.054 240.927 209.054 240.783C209.054 240.639 209.111 240.5 209.213 240.399C209.315 240.297 209.453 240.24 209.597 240.24H210.683C210.825 240.239 210.963 240.293 211.067 240.389C211.172 240.486 211.236 240.619 211.247 240.761C211.25 240.832 211.239 240.903 211.214 240.97C211.19 241.037 211.152 241.099 211.104 241.151C211.055 241.204 210.997 241.246 210.932 241.276C210.867 241.306 210.797 241.323 210.726 241.325H209.64H209.597ZM184.621 241.043L183.536 240.978C183.464 240.974 183.394 240.956 183.33 240.924C183.266 240.893 183.208 240.85 183.161 240.796C183.114 240.743 183.077 240.68 183.054 240.613C183.031 240.545 183.021 240.474 183.025 240.402C183.025 240.334 183.039 240.265 183.066 240.202C183.093 240.139 183.133 240.081 183.182 240.034C183.232 239.986 183.291 239.949 183.355 239.925C183.42 239.9 183.488 239.889 183.557 239.892L184.643 239.957C184.787 239.957 184.925 240.014 185.027 240.116C185.129 240.218 185.186 240.356 185.186 240.5C185.186 240.644 185.129 240.782 185.027 240.884C184.925 240.986 184.787 241.043 184.643 241.043H184.621ZM216.112 241.043C215.974 241.041 215.842 240.987 215.742 240.893C215.641 240.799 215.58 240.67 215.569 240.533C215.566 240.39 215.616 240.251 215.711 240.145C215.806 240.038 215.937 239.971 216.079 239.957L217.165 239.892C217.308 239.889 217.447 239.939 217.553 240.034C217.66 240.129 217.727 240.26 217.741 240.402C217.745 240.474 217.736 240.545 217.712 240.613C217.689 240.68 217.653 240.743 217.605 240.796C217.558 240.85 217.5 240.893 217.436 240.924C217.372 240.956 217.302 240.974 217.23 240.978L216.145 241.043H216.112ZM178.106 240.609L177.02 240.511C176.949 240.506 176.879 240.486 176.816 240.454C176.752 240.421 176.695 240.376 176.649 240.322C176.602 240.267 176.567 240.204 176.545 240.136C176.523 240.068 176.515 239.996 176.521 239.925C176.54 239.783 176.612 239.653 176.723 239.562C176.834 239.472 176.975 239.426 177.118 239.436L178.204 239.523C178.348 239.523 178.486 239.58 178.588 239.682C178.69 239.784 178.747 239.922 178.747 240.066C178.747 240.21 178.69 240.348 178.588 240.45C178.486 240.552 178.348 240.609 178.204 240.609H178.106ZM222.627 240.609C222.483 240.609 222.345 240.552 222.243 240.45C222.142 240.348 222.084 240.21 222.084 240.066C222.084 239.922 222.142 239.784 222.243 239.682C222.345 239.58 222.483 239.523 222.627 239.523L223.713 239.436C223.855 239.427 223.995 239.472 224.104 239.563C224.213 239.654 224.283 239.784 224.3 239.925C224.307 239.995 224.301 240.065 224.281 240.133C224.261 240.2 224.227 240.263 224.183 240.318C224.139 240.372 224.084 240.417 224.022 240.45C223.96 240.484 223.892 240.504 223.822 240.511L222.736 240.609H222.627ZM171.667 240.012H171.602L170.516 239.892C170.372 239.875 170.241 239.801 170.151 239.687C170.061 239.573 170.021 239.428 170.038 239.284C170.055 239.14 170.129 239.009 170.243 238.919C170.357 238.83 170.502 238.789 170.646 238.806L171.732 238.926C171.876 238.926 172.014 238.983 172.116 239.085C172.218 239.187 172.275 239.325 172.275 239.469C172.275 239.613 172.218 239.751 172.116 239.853C172.014 239.954 171.876 240.012 171.732 240.012H171.667ZM229.11 240.012C228.966 240.012 228.828 239.954 228.726 239.853C228.624 239.751 228.567 239.613 228.567 239.469C228.567 239.325 228.624 239.187 228.726 239.085C228.828 238.983 228.966 238.926 229.11 238.926L230.196 238.806C230.335 238.791 230.475 238.829 230.586 238.914C230.697 238.999 230.772 239.124 230.793 239.262C230.808 239.405 230.767 239.547 230.677 239.659C230.588 239.771 230.458 239.843 230.315 239.86L229.229 239.979L229.11 240.012ZM165.195 239.251H165.119L164.033 239.099C163.962 239.09 163.893 239.067 163.831 239.031C163.768 238.995 163.714 238.947 163.67 238.89C163.626 238.833 163.594 238.768 163.575 238.699C163.556 238.63 163.552 238.557 163.561 238.486C163.57 238.415 163.593 238.346 163.629 238.283C163.665 238.221 163.713 238.166 163.77 238.123C163.827 238.079 163.892 238.047 163.961 238.028C164.031 238.009 164.103 238.004 164.174 238.014L165.26 238.166C165.4 238.182 165.527 238.253 165.614 238.363C165.702 238.472 165.742 238.612 165.727 238.752C165.69 238.868 165.615 238.969 165.515 239.04C165.416 239.11 165.296 239.146 165.173 239.143L165.195 239.251ZM235.582 239.251C235.511 239.256 235.439 239.247 235.371 239.225C235.303 239.202 235.241 239.166 235.187 239.119C235.078 239.025 235.011 238.89 235.001 238.746C234.991 238.603 235.038 238.46 235.133 238.351C235.228 238.243 235.362 238.176 235.506 238.166L236.592 238.024C236.661 238.014 236.732 238.017 236.8 238.033C236.868 238.05 236.932 238.079 236.988 238.121C237.045 238.162 237.092 238.214 237.129 238.274C237.165 238.334 237.189 238.4 237.2 238.47C237.219 238.612 237.182 238.756 237.097 238.871C237.012 238.987 236.885 239.064 236.744 239.089L235.658 239.23L235.582 239.251ZM158.745 238.328H158.658L157.572 238.155C157.495 238.15 157.419 238.129 157.35 238.093C157.282 238.057 157.221 238.007 157.173 237.946C157.125 237.885 157.09 237.815 157.071 237.739C157.051 237.664 157.048 237.586 157.061 237.509C157.074 237.433 157.103 237.36 157.146 237.295C157.189 237.23 157.245 237.176 157.311 237.134C157.376 237.093 157.45 237.065 157.527 237.054C157.604 237.043 157.682 237.048 157.757 237.069L158.843 237.253C158.912 237.264 158.978 237.288 159.038 237.324C159.098 237.361 159.15 237.409 159.191 237.465C159.233 237.522 159.263 237.586 159.279 237.654C159.296 237.722 159.299 237.792 159.288 237.862C159.245 237.974 159.167 238.069 159.065 238.131C158.963 238.194 158.842 238.222 158.723 238.209L158.745 238.328ZM242.021 238.328C241.95 238.334 241.878 238.326 241.81 238.304C241.742 238.282 241.679 238.247 241.624 238.2C241.57 238.154 241.525 238.097 241.493 238.033C241.46 237.97 241.44 237.9 241.435 237.829C241.429 237.758 241.437 237.686 241.459 237.618C241.481 237.55 241.517 237.487 241.563 237.432C241.609 237.378 241.666 237.333 241.73 237.3C241.794 237.268 241.863 237.248 241.934 237.243L243.02 237.058C243.161 237.036 243.305 237.07 243.421 237.154C243.537 237.237 243.615 237.363 243.639 237.503C243.652 237.574 243.65 237.646 243.634 237.716C243.619 237.786 243.589 237.852 243.548 237.911C243.506 237.969 243.454 238.019 243.393 238.057C243.332 238.095 243.265 238.121 243.194 238.133L242.108 238.307L242.021 238.328ZM152.327 237.243H152.23L151.144 237.036C151.074 237.022 151.007 236.994 150.948 236.954C150.889 236.914 150.839 236.863 150.799 236.804C150.76 236.744 150.733 236.677 150.719 236.607C150.706 236.537 150.706 236.465 150.72 236.396C150.732 236.327 150.757 236.261 150.795 236.202C150.833 236.143 150.882 236.092 150.94 236.052C150.998 236.013 151.063 235.985 151.131 235.972C151.2 235.958 151.271 235.958 151.339 235.972L152.425 236.178C152.495 236.193 152.561 236.221 152.62 236.26C152.68 236.3 152.73 236.351 152.77 236.411C152.809 236.47 152.836 236.537 152.85 236.607C152.863 236.677 152.863 236.749 152.849 236.819C152.794 236.916 152.71 236.994 152.608 237.04C152.507 237.087 152.394 237.101 152.284 237.08L152.327 237.243ZM248.439 237.243C248.313 237.245 248.191 237.202 248.093 237.123C247.996 237.043 247.93 236.932 247.907 236.808C247.881 236.666 247.912 236.519 247.993 236.399C248.074 236.28 248.199 236.196 248.341 236.168L249.427 235.961C249.568 235.936 249.713 235.967 249.831 236.049C249.949 236.13 250.03 236.255 250.057 236.396C250.073 236.462 250.075 236.531 250.064 236.598C250.053 236.666 250.028 236.73 249.992 236.788C249.956 236.845 249.908 236.895 249.852 236.934C249.796 236.973 249.733 237 249.666 237.015L248.58 237.232L248.439 237.243ZM145.932 235.809H145.812L144.726 235.559C144.655 235.544 144.587 235.514 144.528 235.472C144.468 235.431 144.417 235.377 144.377 235.316C144.338 235.254 144.311 235.186 144.298 235.114C144.286 235.042 144.287 234.968 144.303 234.897C144.318 234.826 144.348 234.758 144.39 234.698C144.432 234.638 144.485 234.587 144.546 234.548C144.608 234.509 144.676 234.482 144.748 234.469C144.82 234.456 144.894 234.458 144.965 234.474L146.051 234.712C146.121 234.728 146.187 234.757 146.246 234.798C146.305 234.839 146.355 234.892 146.393 234.952C146.431 235.013 146.457 235.08 146.47 235.151C146.482 235.222 146.48 235.294 146.464 235.364C146.443 235.49 146.378 235.604 146.28 235.685C146.182 235.767 146.059 235.811 145.932 235.809ZM254.759 235.69C254.687 235.697 254.615 235.691 254.546 235.67C254.478 235.649 254.414 235.615 254.358 235.57C254.302 235.525 254.256 235.469 254.223 235.405C254.189 235.342 254.168 235.273 254.161 235.201C254.152 235.13 254.158 235.058 254.177 234.99C254.196 234.921 254.229 234.857 254.274 234.801C254.318 234.745 254.374 234.699 254.436 234.665C254.499 234.631 254.568 234.611 254.639 234.604L255.725 234.354C255.796 234.338 255.87 234.337 255.942 234.35C256.014 234.363 256.082 234.389 256.144 234.429C256.205 234.468 256.259 234.519 256.3 234.579C256.342 234.639 256.372 234.706 256.387 234.778C256.403 234.849 256.405 234.923 256.392 234.994C256.379 235.066 256.352 235.135 256.313 235.197C256.273 235.258 256.222 235.311 256.163 235.353C256.103 235.395 256.035 235.424 255.964 235.44L254.878 235.679L254.759 235.69ZM139.547 234.224C139.504 234.235 139.459 234.235 139.416 234.224L138.33 233.952C138.186 233.914 138.063 233.821 137.986 233.694C137.909 233.566 137.885 233.413 137.918 233.268C137.956 233.125 138.049 233.002 138.177 232.927C138.305 232.852 138.458 232.83 138.602 232.866L139.688 233.149C139.757 233.166 139.822 233.198 139.879 233.241C139.936 233.284 139.984 233.337 140.021 233.399C140.057 233.46 140.081 233.528 140.091 233.599C140.101 233.67 140.097 233.742 140.079 233.811C140.051 233.923 139.989 234.023 139.902 234.097C139.814 234.171 139.705 234.216 139.59 234.224H139.547ZM261.089 234.159C260.945 234.177 260.8 234.138 260.685 234.05C260.57 233.961 260.494 233.83 260.476 233.686C260.457 233.542 260.496 233.397 260.585 233.282C260.673 233.167 260.804 233.091 260.948 233.073L262.034 232.801C262.105 232.783 262.179 232.78 262.252 232.791C262.325 232.802 262.395 232.827 262.458 232.864C262.521 232.902 262.576 232.952 262.619 233.011C262.663 233.07 262.695 233.137 262.713 233.208C262.73 233.28 262.734 233.354 262.723 233.427C262.712 233.499 262.687 233.569 262.65 233.632C262.612 233.695 262.562 233.75 262.503 233.794C262.444 233.838 262.377 233.869 262.305 233.887L261.22 234.159H261.089ZM133.27 232.476H133.14L132.054 232.161C131.985 232.142 131.92 232.11 131.864 232.065C131.807 232.021 131.76 231.966 131.726 231.903C131.691 231.84 131.67 231.771 131.663 231.699C131.656 231.628 131.663 231.556 131.685 231.487C131.73 231.35 131.826 231.236 131.954 231.169C132.082 231.102 132.231 231.088 132.369 231.129L133.455 231.433C133.526 231.443 133.595 231.467 133.657 231.504C133.719 231.54 133.773 231.588 133.816 231.646C133.86 231.703 133.891 231.769 133.909 231.838C133.928 231.908 133.932 231.981 133.922 232.052C133.912 232.123 133.888 232.192 133.851 232.254C133.815 232.316 133.766 232.37 133.709 232.414C133.651 232.457 133.586 232.489 133.516 232.507C133.447 232.525 133.374 232.529 133.303 232.519L133.27 232.476ZM267.366 232.4C267.249 232.4 267.136 232.364 267.042 232.295C266.949 232.227 266.879 232.13 266.844 232.019C266.803 231.881 266.818 231.732 266.885 231.605C266.952 231.477 267.066 231.38 267.203 231.335L268.289 231.031C268.424 230.99 268.57 231.003 268.696 231.068C268.822 231.133 268.917 231.245 268.962 231.379C269.003 231.516 268.988 231.663 268.921 231.789C268.854 231.915 268.74 232.009 268.604 232.052L267.518 232.367H267.409L267.366 232.4ZM127.059 230.499H126.885L125.799 230.141C125.655 230.105 125.532 230.013 125.455 229.886C125.379 229.759 125.356 229.606 125.392 229.462C125.428 229.318 125.52 229.194 125.647 229.118C125.774 229.042 125.927 229.019 126.071 229.055H126.158L127.178 229.402C127.313 229.449 127.424 229.547 127.487 229.676C127.55 229.804 127.56 229.951 127.515 230.087C127.478 230.182 127.414 230.264 127.331 230.323C127.248 230.383 127.15 230.418 127.048 230.423L127.059 230.499ZM273.653 230.38C273.518 230.385 273.385 230.341 273.28 230.255C273.175 230.169 273.106 230.048 273.084 229.914C273.063 229.78 273.091 229.643 273.164 229.529C273.237 229.415 273.349 229.331 273.479 229.294L274.5 228.946C274.565 228.92 274.634 228.908 274.704 228.909C274.774 228.91 274.842 228.925 274.906 228.954C274.97 228.982 275.028 229.023 275.075 229.074C275.123 229.125 275.16 229.185 275.184 229.25C275.229 229.387 275.22 229.537 275.157 229.666C275.094 229.796 274.983 229.896 274.847 229.945L273.761 230.304L273.653 230.38ZM120.978 228.208H120.783L119.773 227.806C119.642 227.755 119.536 227.655 119.477 227.528C119.419 227.4 119.412 227.255 119.458 227.122C119.511 226.991 119.613 226.885 119.743 226.829C119.873 226.772 120.02 226.768 120.153 226.818L121.163 227.22C121.296 227.271 121.404 227.373 121.463 227.503C121.522 227.633 121.527 227.781 121.477 227.915C121.44 228.021 121.371 228.113 121.28 228.179C121.189 228.245 121.08 228.282 120.967 228.284L120.978 228.208ZM279.734 228.208C279.625 228.208 279.519 228.176 279.428 228.117C279.337 228.057 279.266 227.971 279.223 227.871C279.173 227.737 279.176 227.589 279.233 227.457C279.29 227.326 279.395 227.221 279.527 227.166L280.526 226.764C280.661 226.713 280.809 226.717 280.941 226.773C281.072 226.83 281.177 226.936 281.232 227.068C281.259 227.134 281.272 227.205 281.271 227.276C281.27 227.348 281.255 227.418 281.227 227.484C281.198 227.549 281.158 227.609 281.106 227.658C281.055 227.708 280.995 227.747 280.928 227.774L279.918 228.175C279.859 228.196 279.797 228.207 279.734 228.208ZM114.962 225.808C114.89 225.819 114.817 225.819 114.745 225.808L113.746 225.363C113.682 225.335 113.623 225.294 113.575 225.243C113.526 225.192 113.488 225.132 113.463 225.067C113.438 225.001 113.426 224.931 113.428 224.861C113.43 224.791 113.446 224.721 113.475 224.657C113.534 224.526 113.643 224.424 113.777 224.373C113.911 224.323 114.06 224.327 114.191 224.386L115.179 224.831C115.31 224.89 115.412 224.999 115.463 225.133C115.514 225.268 115.51 225.417 115.451 225.548C115.395 225.627 115.32 225.691 115.232 225.732C115.145 225.774 115.048 225.793 114.951 225.787L114.962 225.808ZM285.739 225.7C285.634 225.699 285.532 225.668 285.445 225.61C285.358 225.552 285.291 225.47 285.25 225.374C285.19 225.247 285.183 225.102 285.23 224.97C285.277 224.837 285.374 224.729 285.5 224.668L286.477 224.223C286.607 224.162 286.756 224.154 286.891 224.201C287.027 224.247 287.139 224.345 287.205 224.473C287.261 224.606 287.264 224.755 287.214 224.89C287.163 225.026 287.063 225.137 286.933 225.2L285.945 225.645C285.87 225.661 285.792 225.661 285.717 225.645L285.739 225.7ZM109.088 222.985H108.838L107.871 222.475C107.747 222.404 107.654 222.287 107.614 222.149C107.573 222.012 107.588 221.863 107.654 221.736C107.686 221.674 107.73 221.619 107.784 221.574C107.838 221.53 107.9 221.496 107.967 221.476C108.033 221.456 108.104 221.449 108.173 221.456C108.243 221.464 108.31 221.485 108.371 221.519L109.326 222.019C109.434 222.065 109.521 222.149 109.572 222.254C109.623 222.36 109.635 222.48 109.604 222.593C109.574 222.706 109.504 222.805 109.407 222.871C109.31 222.937 109.193 222.966 109.077 222.952L109.088 222.985ZM291.613 222.865C291.542 222.881 291.468 222.883 291.396 222.87C291.324 222.858 291.256 222.831 291.194 222.792C291.132 222.752 291.079 222.701 291.037 222.641C290.996 222.581 290.966 222.513 290.951 222.442C290.933 222.371 290.93 222.298 290.941 222.226C290.953 222.154 290.978 222.085 291.017 222.023C291.055 221.962 291.106 221.908 291.165 221.866C291.225 221.824 291.292 221.795 291.364 221.78L292.319 221.28C292.38 221.246 292.447 221.225 292.517 221.217C292.586 221.21 292.657 221.217 292.723 221.237C292.79 221.257 292.852 221.291 292.906 221.335C292.96 221.38 293.004 221.435 293.036 221.497C293.103 221.622 293.119 221.767 293.08 221.903C293.042 222.039 292.952 222.154 292.83 222.225L291.863 222.735C291.786 222.78 291.701 222.81 291.613 222.822V222.865ZM103.398 219.814C103.298 219.816 103.2 219.79 103.115 219.738L102.192 219.163C102.078 219.076 102.001 218.949 101.979 218.807C101.957 218.665 101.99 218.52 102.073 218.403C102.149 218.299 102.26 218.225 102.385 218.195C102.51 218.166 102.642 218.181 102.757 218.24L103.68 218.804C103.742 218.841 103.795 218.89 103.838 218.947C103.881 219.005 103.911 219.071 103.928 219.14C103.946 219.21 103.949 219.282 103.938 219.353C103.927 219.424 103.902 219.492 103.865 219.554C103.813 219.628 103.743 219.689 103.661 219.728C103.579 219.768 103.488 219.787 103.398 219.782V219.814ZM297.292 219.673C297.199 219.674 297.107 219.65 297.025 219.604C296.943 219.559 296.874 219.492 296.826 219.412C296.753 219.288 296.731 219.14 296.766 219C296.8 218.86 296.888 218.739 297.01 218.663L297.933 218.098C298.061 218.034 298.21 218.023 298.346 218.068C298.483 218.113 298.596 218.209 298.661 218.337C298.719 218.452 298.735 218.584 298.705 218.709C298.675 218.835 298.602 218.945 298.498 219.021L297.575 219.597C297.483 219.624 297.385 219.624 297.292 219.597V219.673ZM97.9573 216.198C97.845 216.198 97.7353 216.164 97.6424 216.1L96.7629 215.449C96.6541 215.37 96.5786 215.253 96.5509 215.122C96.5232 214.99 96.5453 214.853 96.6128 214.737C96.6804 214.621 96.7886 214.534 96.9166 214.493C97.0446 214.452 97.1833 214.46 97.3058 214.515L97.4035 214.58L98.2722 215.221C98.3888 215.3 98.4691 215.422 98.4955 215.561C98.522 215.699 98.4925 215.843 98.4134 215.959C98.3624 216.033 98.2942 216.093 98.2148 216.135C98.1354 216.177 98.047 216.198 97.9573 216.198ZM302.722 216.046C302.605 216.049 302.49 216.015 302.395 215.948C302.299 215.881 302.228 215.784 302.191 215.673C302.154 215.562 302.155 215.443 302.192 215.332C302.228 215.221 302.3 215.125 302.396 215.058L303.265 214.417C303.381 214.334 303.525 214.298 303.667 214.319C303.808 214.339 303.937 214.413 304.025 214.526C304.111 214.641 304.148 214.786 304.128 214.928C304.108 215.071 304.032 215.2 303.916 215.286C303.634 215.503 303.33 215.731 303.037 215.938C302.949 216.011 302.837 216.05 302.722 216.046ZM92.8645 212.148C92.7331 212.14 92.6076 212.091 92.5062 212.007L91.6918 211.268C91.5923 211.167 91.5366 211.03 91.5366 210.888C91.5366 210.746 91.5923 210.61 91.6918 210.508C91.7423 210.457 91.8023 210.417 91.8685 210.389C91.9346 210.362 92.0056 210.348 92.0773 210.348C92.1489 210.348 92.2199 210.362 92.2861 210.389C92.3522 210.417 92.4123 210.457 92.4628 210.508L93.2663 211.225C93.3749 211.318 93.4427 211.449 93.4549 211.592C93.4671 211.734 93.4227 211.875 93.3315 211.985C93.2777 212.047 93.2109 212.097 93.1359 212.131C93.0609 212.164 92.9794 212.181 92.8971 212.18L92.8645 212.148ZM307.793 211.92C307.717 211.92 307.641 211.904 307.572 211.872C307.502 211.84 307.441 211.794 307.391 211.735C307.292 211.636 307.237 211.501 307.237 211.361C307.237 211.22 307.292 211.086 307.391 210.986L308.184 210.258C308.234 210.208 308.294 210.167 308.361 210.14C308.427 210.112 308.498 210.098 308.569 210.098C308.641 210.098 308.712 210.112 308.778 210.14C308.844 210.167 308.904 210.208 308.955 210.258C309.005 210.308 309.046 210.367 309.073 210.432C309.1 210.498 309.115 210.568 309.115 210.638C309.115 210.709 309.1 210.779 309.073 210.845C309.046 210.91 309.005 210.969 308.955 211.019L308.901 211.073C308.64 211.323 308.368 211.572 308.086 211.811C308.003 211.878 307.9 211.916 307.793 211.92ZM88.2821 207.576C88.2043 207.576 88.1275 207.559 88.0565 207.527C87.9855 207.495 87.9218 207.449 87.8695 207.392L87.1637 206.545C87.1134 206.496 87.0735 206.438 87.0462 206.374C87.0189 206.309 87.0048 206.24 87.0048 206.17C87.0048 206.1 87.0189 206.031 87.0462 205.967C87.0735 205.902 87.1134 205.844 87.1637 205.795C87.2776 205.707 87.4209 205.666 87.5642 205.68C87.7076 205.694 87.8401 205.763 87.9346 205.871L88.6296 206.686C88.7298 206.789 88.7858 206.927 88.7858 207.071C88.7858 207.215 88.7298 207.354 88.6296 207.457C88.5299 207.534 88.4079 207.576 88.2821 207.576ZM312.31 207.327C312.166 207.327 312.028 207.269 311.926 207.168C311.824 207.066 311.767 206.928 311.767 206.784C311.776 206.658 311.821 206.537 311.898 206.436L312.593 205.611C312.636 205.556 312.69 205.51 312.751 205.476C312.812 205.442 312.88 205.42 312.949 205.412C313.019 205.404 313.089 205.409 313.157 205.429C313.224 205.448 313.287 205.48 313.342 205.524C313.397 205.567 313.443 205.621 313.477 205.682C313.511 205.744 313.533 205.811 313.541 205.881C313.549 205.95 313.543 206.021 313.524 206.088C313.505 206.155 313.472 206.218 313.429 206.273L312.723 207.12C312.673 207.183 312.611 207.234 312.54 207.269C312.468 207.305 312.39 207.325 312.31 207.327ZM84.3947 202.288C84.301 202.289 84.2087 202.265 84.1269 202.219C84.0451 202.174 83.9765 202.107 83.9277 202.027L83.3739 201.072C83.3424 201.008 83.3239 200.938 83.3194 200.867C83.3149 200.795 83.3245 200.724 83.3478 200.656C83.371 200.589 83.4073 200.526 83.4546 200.473C83.502 200.419 83.5594 200.376 83.6237 200.344C83.7429 200.284 83.8806 200.27 84.0094 200.306C84.1382 200.342 84.2486 200.426 84.3187 200.54C84.4924 200.855 84.677 201.159 84.8616 201.474C84.9338 201.596 84.9549 201.742 84.9203 201.881C84.8858 202.019 84.7984 202.138 84.677 202.212C84.6034 202.253 84.5221 202.279 84.4381 202.288H84.3947ZM316.122 202.06C316.022 202.062 315.924 202.036 315.839 201.984C315.718 201.91 315.631 201.791 315.596 201.653C315.561 201.514 315.583 201.368 315.655 201.246C315.828 200.931 316.013 200.627 316.176 200.312C316.21 200.249 316.256 200.194 316.312 200.149C316.368 200.104 316.432 200.07 316.5 200.05C316.569 200.03 316.641 200.024 316.712 200.031C316.783 200.039 316.852 200.06 316.914 200.095C316.977 200.129 317.032 200.175 317.077 200.231C317.122 200.286 317.156 200.35 317.176 200.419C317.196 200.487 317.202 200.559 317.195 200.63C317.187 200.701 317.166 200.77 317.132 200.833C316.958 201.159 316.773 201.474 316.589 201.789C316.544 201.863 316.482 201.927 316.409 201.974C316.335 202.021 316.252 202.051 316.165 202.06H316.122ZM81.6582 196.413C81.5435 196.415 81.4313 196.38 81.3376 196.314C81.244 196.247 81.1737 196.153 81.137 196.044C81.0176 195.686 80.909 195.338 80.8113 194.958C80.7745 194.813 80.7959 194.659 80.871 194.529C80.946 194.399 81.0687 194.304 81.213 194.263C81.357 194.227 81.5095 194.249 81.6375 194.324C81.7656 194.399 81.8588 194.522 81.8971 194.665C81.9949 195.002 82.1035 195.338 82.212 195.675C82.2572 195.808 82.2484 195.953 82.1874 196.079C82.1264 196.205 82.0182 196.301 81.8863 196.348C81.8357 196.376 81.7805 196.394 81.7234 196.403L81.6582 196.413ZM318.826 196.153H318.663C318.529 196.11 318.417 196.017 318.35 195.894C318.283 195.77 318.267 195.626 318.304 195.49C318.402 195.154 318.511 194.817 318.597 194.47C318.636 194.326 318.729 194.204 318.857 194.128C318.985 194.053 319.138 194.031 319.282 194.068C319.426 194.109 319.549 194.204 319.624 194.334C319.699 194.464 319.72 194.618 319.683 194.763L319.368 195.849C319.32 195.949 319.242 196.032 319.145 196.086C319.048 196.141 318.936 196.164 318.826 196.153ZM80.4638 190.061C80.3235 190.061 80.1886 190.007 80.0873 189.91C79.9861 189.813 79.9264 189.68 79.9208 189.54V188.454C79.9235 188.313 79.9801 188.178 80.079 188.077C80.1779 187.976 80.3117 187.917 80.4529 187.911C80.5942 187.914 80.7292 187.97 80.8301 188.069C80.931 188.168 80.9903 188.302 80.9959 188.443V189.529C81.0003 189.599 80.9908 189.669 80.9681 189.735C80.9454 189.801 80.9098 189.863 80.8634 189.915C80.817 189.967 80.7606 190.01 80.6977 190.041C80.6347 190.072 80.5663 190.089 80.4964 190.094L80.4638 190.061ZM320.009 189.79C319.864 189.781 319.728 189.716 319.631 189.608C319.533 189.501 319.482 189.359 319.488 189.214V188.128C319.488 187.984 319.545 187.846 319.647 187.744C319.749 187.642 319.887 187.585 320.031 187.585C320.175 187.585 320.313 187.642 320.415 187.744C320.517 187.846 320.574 187.984 320.574 188.128V189.214C320.578 189.285 320.568 189.357 320.545 189.424C320.522 189.492 320.486 189.554 320.438 189.608C320.391 189.661 320.333 189.705 320.269 189.736C320.205 189.767 320.135 189.785 320.063 189.79H320.009ZM320.009 187.086C319.871 187.083 319.739 187.03 319.639 186.936C319.539 186.841 319.477 186.713 319.466 186.575C319.454 186.212 319.421 185.849 319.368 185.489C319.353 185.344 319.396 185.199 319.488 185.085C319.579 184.971 319.712 184.898 319.857 184.881C319.928 184.874 320.001 184.881 320.069 184.901C320.138 184.922 320.202 184.956 320.258 185.001C320.313 185.047 320.359 185.103 320.393 185.166C320.427 185.229 320.448 185.299 320.454 185.37C320.454 185.728 320.53 186.098 320.552 186.456C320.558 186.527 320.55 186.599 320.528 186.667C320.506 186.735 320.471 186.799 320.424 186.853C320.378 186.908 320.321 186.952 320.257 186.985C320.194 187.017 320.124 187.037 320.053 187.042L320.009 187.086ZM81.0176 183.6H80.8981C80.829 183.587 80.7631 183.56 80.7045 183.521C80.646 183.482 80.5959 183.432 80.5574 183.373C80.5188 183.314 80.4926 183.248 80.4802 183.179C80.4679 183.11 80.4697 183.039 80.4855 182.97C80.5615 182.601 80.6484 182.243 80.7461 181.884C80.7638 181.817 80.7947 181.753 80.837 181.697C80.8794 181.641 80.9324 181.594 80.9929 181.559C81.0534 181.524 81.1204 181.501 81.1898 181.491C81.2593 181.482 81.3299 181.486 81.3976 181.504C81.5354 181.542 81.6526 181.633 81.7238 181.757C81.795 181.881 81.8143 182.028 81.7777 182.167C81.6908 182.503 81.604 182.851 81.5279 183.198C81.4992 183.312 81.4335 183.413 81.3412 183.486C81.2489 183.559 81.1351 183.599 81.0176 183.6ZM318.706 180.744C318.594 180.74 318.486 180.703 318.395 180.637C318.304 180.572 318.234 180.48 318.196 180.375C318.087 180.038 317.957 179.702 317.837 179.376C317.811 179.31 317.798 179.239 317.799 179.167C317.8 179.096 317.815 179.026 317.843 178.96C317.871 178.894 317.912 178.835 317.963 178.785C318.015 178.736 318.075 178.696 318.141 178.67C318.208 178.644 318.28 178.631 318.352 178.633C318.424 178.635 318.494 178.651 318.56 178.68C318.626 178.709 318.685 178.751 318.734 178.804C318.784 178.856 318.822 178.918 318.847 178.985C318.978 179.322 319.108 179.669 319.227 180.071C319.276 180.206 319.269 180.356 319.208 180.486C319.147 180.616 319.037 180.717 318.902 180.766C318.83 180.783 318.756 180.783 318.684 180.766L318.706 180.744ZM83.1676 177.487C83.0895 177.508 83.0069 177.508 82.9287 177.487C82.8025 177.425 82.7055 177.317 82.6587 177.185C82.6119 177.053 82.6192 176.908 82.679 176.781C82.831 176.455 83.0047 176.129 83.1785 175.803C83.2106 175.74 83.255 175.684 83.3092 175.638C83.3634 175.592 83.4263 175.557 83.4941 175.536C83.5619 175.515 83.6333 175.507 83.7041 175.514C83.7748 175.521 83.8435 175.542 83.906 175.575C84.0309 175.646 84.1233 175.763 84.1639 175.901C84.2044 176.038 84.1898 176.187 84.1232 176.314L83.6346 177.258C83.5861 177.338 83.5173 177.403 83.4352 177.447C83.3531 177.491 83.2607 177.512 83.1676 177.508V177.487ZM315.915 174.88C315.824 174.882 315.734 174.86 315.654 174.816C315.574 174.773 315.507 174.709 315.459 174.631C315.275 174.327 315.079 174.023 314.884 173.729C314.805 173.608 314.776 173.46 314.805 173.318C314.833 173.176 314.916 173.051 315.036 172.969C315.157 172.892 315.304 172.865 315.444 172.896C315.585 172.926 315.707 173.011 315.785 173.132C315.991 173.436 316.187 173.751 316.382 174.055C316.42 174.116 316.445 174.184 316.456 174.255C316.467 174.326 316.463 174.399 316.446 174.468C316.429 174.538 316.398 174.604 316.356 174.661C316.313 174.719 316.259 174.768 316.198 174.804C316.103 174.861 315.993 174.888 315.883 174.88H315.915ZM86.599 171.981C86.48 171.98 86.365 171.938 86.2732 171.862C86.2166 171.82 86.1687 171.767 86.1325 171.707C86.0964 171.646 86.0725 171.579 86.0624 171.51C86.0523 171.44 86.0562 171.369 86.0737 171.301C86.0913 171.233 86.1222 171.169 86.1647 171.112L86.8379 170.255C86.8884 170.204 86.9484 170.163 87.0146 170.136C87.0807 170.108 87.1517 170.094 87.2234 170.094C87.2951 170.094 87.366 170.108 87.4322 170.136C87.4984 170.163 87.5584 170.204 87.6089 170.255C87.6995 170.344 87.7566 170.462 87.7704 170.589C87.7842 170.715 87.754 170.843 87.6849 170.95L87.0225 171.797C86.9681 171.868 86.8972 171.925 86.8158 171.963C86.7345 172 86.6452 172.018 86.5556 172.014L86.599 171.981ZM312.039 169.668C311.961 169.667 311.884 169.651 311.813 169.619C311.742 169.587 311.678 169.541 311.626 169.484C311.398 169.223 311.159 168.952 310.909 168.691C310.861 168.638 310.823 168.576 310.799 168.509C310.774 168.442 310.763 168.37 310.766 168.299C310.769 168.227 310.786 168.157 310.816 168.092C310.847 168.027 310.889 167.968 310.942 167.92C310.995 167.871 311.057 167.834 311.124 167.809C311.191 167.785 311.263 167.774 311.334 167.777C311.406 167.78 311.476 167.797 311.541 167.827C311.606 167.857 311.665 167.9 311.713 167.952L312.441 168.767C312.491 168.817 312.532 168.877 312.559 168.944C312.587 169.01 312.601 169.081 312.601 169.152C312.601 169.224 312.587 169.295 312.559 169.361C312.532 169.427 312.491 169.487 312.441 169.538C312.381 169.588 312.311 169.625 312.237 169.648C312.162 169.67 312.084 169.677 312.006 169.668H312.039ZM90.9208 167.105C90.8149 167.106 90.711 167.076 90.6221 167.018C90.5331 166.961 90.463 166.878 90.4202 166.781C90.3775 166.684 90.3641 166.577 90.3817 166.473C90.3992 166.368 90.447 166.271 90.519 166.193C90.7688 165.933 91.0403 165.683 91.3009 165.433C91.3513 165.382 91.4114 165.342 91.4776 165.314C91.5437 165.287 91.6147 165.273 91.6864 165.273C91.758 165.273 91.829 165.287 91.8952 165.314C91.9613 165.342 92.0214 165.382 92.0718 165.433C92.1707 165.533 92.2261 165.668 92.2261 165.808C92.2261 165.948 92.1707 166.083 92.0718 166.183L91.3009 166.932C91.2482 166.991 91.1826 167.037 91.1092 167.068C91.0358 167.098 90.9565 167.111 90.8774 167.105H90.9208ZM307.424 165.086C307.291 165.083 307.164 165.033 307.065 164.945L306.251 164.25C306.142 164.155 306.074 164.021 306.061 163.877C306.049 163.733 306.094 163.59 306.186 163.479C306.282 163.372 306.415 163.305 306.558 163.293C306.702 163.281 306.844 163.324 306.957 163.414L307.782 164.13C307.89 164.226 307.956 164.361 307.966 164.505C307.976 164.649 307.93 164.791 307.836 164.901C307.782 164.965 307.713 165.015 307.636 165.047C307.559 165.079 307.475 165.092 307.391 165.086H307.424ZM95.7856 162.827C95.6425 162.822 95.5071 162.761 95.4079 162.657C95.3087 162.554 95.2534 162.417 95.2535 162.273C95.2582 162.194 95.2789 162.117 95.3144 162.046C95.3498 161.975 95.3993 161.912 95.4598 161.861L96.3176 161.187C96.4355 161.103 96.5813 161.067 96.7248 161.088C96.8683 161.108 96.9986 161.182 97.0886 161.296C97.1723 161.412 97.2077 161.556 97.1874 161.698C97.1672 161.84 97.0929 161.968 96.98 162.056L96.1222 162.719C96.0252 162.791 95.9067 162.83 95.7856 162.827ZM302.288 161.046C302.175 161.047 302.065 161.013 301.973 160.949L301.082 160.33C300.963 160.248 300.881 160.121 300.854 159.979C300.828 159.836 300.859 159.689 300.941 159.569C301.023 159.45 301.149 159.368 301.292 159.341C301.434 159.315 301.582 159.346 301.701 159.428L302.602 160.058C302.717 160.145 302.793 160.272 302.816 160.414C302.838 160.556 302.804 160.701 302.722 160.818C302.673 160.888 302.608 160.946 302.533 160.985C302.457 161.025 302.373 161.046 302.288 161.046ZM101.096 159.059C100.981 159.058 100.869 159.02 100.777 158.951C100.685 158.882 100.617 158.786 100.583 158.676C100.549 158.566 100.551 158.448 100.589 158.34C100.626 158.231 100.697 158.137 100.791 158.071L101.714 157.485C101.837 157.408 101.985 157.384 102.125 157.416C102.266 157.449 102.387 157.536 102.464 157.658C102.54 157.781 102.565 157.928 102.532 158.069C102.499 158.209 102.412 158.331 102.29 158.408L101.389 158.983C101.297 159.039 101.192 159.069 101.085 159.07L101.096 159.059ZM296.826 157.485C296.73 157.486 296.635 157.46 296.554 157.409L295.62 156.855C295.559 156.821 295.504 156.775 295.461 156.72C295.417 156.665 295.385 156.602 295.365 156.534C295.346 156.466 295.341 156.396 295.349 156.326C295.357 156.256 295.379 156.188 295.414 156.127C295.488 156.003 295.609 155.913 295.749 155.877C295.889 155.84 296.038 155.86 296.163 155.932L297.097 156.486C297.159 156.519 297.213 156.565 297.257 156.621C297.3 156.676 297.332 156.74 297.35 156.808C297.368 156.876 297.373 156.947 297.363 157.016C297.353 157.086 297.329 157.153 297.292 157.213C297.245 157.295 297.177 157.363 297.095 157.411C297.013 157.459 296.92 157.484 296.826 157.485ZM106.699 155.725C106.578 155.726 106.46 155.686 106.364 155.612C106.268 155.538 106.2 155.434 106.17 155.317C106.14 155.2 106.15 155.076 106.199 154.965C106.247 154.854 106.331 154.762 106.438 154.705L107.394 154.184C107.522 154.116 107.672 154.102 107.81 154.145C107.949 154.187 108.064 154.283 108.132 154.412C108.2 154.54 108.214 154.69 108.171 154.828C108.128 154.966 108.032 155.082 107.904 155.15L106.959 155.66C106.879 155.704 106.79 155.726 106.699 155.725ZM291.136 154.368C291.049 154.372 290.963 154.353 290.886 154.314L289.919 153.825C289.793 153.764 289.696 153.656 289.649 153.524C289.603 153.391 289.61 153.246 289.67 153.119C289.701 153.055 289.745 152.998 289.798 152.95C289.852 152.903 289.914 152.867 289.982 152.843C290.049 152.82 290.121 152.811 290.192 152.815C290.263 152.82 290.333 152.838 290.397 152.87L291.374 153.369C291.437 153.403 291.493 153.449 291.538 153.505C291.583 153.561 291.616 153.625 291.636 153.693C291.657 153.762 291.663 153.834 291.655 153.905C291.648 153.976 291.626 154.045 291.592 154.108C291.547 154.193 291.48 154.265 291.398 154.315C291.316 154.364 291.221 154.391 291.125 154.39L291.136 154.368ZM112.508 152.761C112.406 152.761 112.307 152.733 112.22 152.679C112.134 152.625 112.064 152.548 112.019 152.457C111.959 152.327 111.951 152.178 111.997 152.043C112.044 151.907 112.141 151.795 112.269 151.729L113.257 151.273C113.384 151.232 113.521 151.238 113.643 151.29C113.765 151.343 113.864 151.439 113.92 151.559C113.976 151.68 113.986 151.817 113.948 151.944C113.91 152.072 113.827 152.181 113.713 152.251L112.736 152.718C112.664 152.747 112.586 152.762 112.508 152.761ZM285.261 151.523C285.19 151.545 285.115 151.545 285.044 151.523L284.077 151.11C283.95 151.051 283.851 150.944 283.801 150.813C283.751 150.682 283.754 150.537 283.809 150.407C283.863 150.278 283.966 150.175 284.095 150.12C284.224 150.065 284.37 150.062 284.501 150.111L285.5 150.546C285.641 150.577 285.765 150.663 285.844 150.784C285.924 150.905 285.952 151.053 285.924 151.195C285.895 151.337 285.812 151.463 285.692 151.544C285.572 151.626 285.425 151.657 285.283 151.632L285.261 151.523ZM118.47 150.133C118.363 150.131 118.259 150.098 118.17 150.039C118.081 149.979 118.012 149.895 117.97 149.797C117.919 149.664 117.921 149.516 117.975 149.385C118.03 149.254 118.133 149.148 118.263 149.091L119.273 148.678C119.339 148.652 119.41 148.639 119.482 148.64C119.553 148.64 119.624 148.656 119.689 148.684C119.755 148.712 119.814 148.753 119.864 148.804C119.914 148.855 119.953 148.916 119.979 148.982C120.007 149.048 120.022 149.118 120.023 149.189C120.023 149.261 120.009 149.331 119.982 149.397C119.955 149.463 119.914 149.523 119.863 149.573C119.812 149.623 119.752 149.662 119.686 149.688L118.676 150.09C118.604 150.106 118.53 150.106 118.459 150.09L118.47 150.133ZM279.245 149.047H279.05L278.04 148.656C277.896 148.622 277.771 148.531 277.694 148.405C277.617 148.279 277.593 148.127 277.627 147.983C277.662 147.839 277.752 147.715 277.878 147.637C278.005 147.56 278.156 147.536 278.3 147.571H278.42L279.441 147.961C279.572 148.015 279.677 148.117 279.734 148.247C279.791 148.377 279.795 148.524 279.745 148.656C279.7 148.752 279.627 148.831 279.536 148.884C279.445 148.936 279.339 148.959 279.234 148.95L279.245 149.047ZM124.54 147.853C124.43 147.847 124.323 147.811 124.233 147.747C124.143 147.684 124.072 147.596 124.029 147.494C123.98 147.359 123.987 147.21 124.048 147.08C124.109 146.949 124.22 146.849 124.355 146.8L125.441 146.43C125.576 146.381 125.726 146.388 125.856 146.449C125.986 146.51 126.087 146.621 126.136 146.756C126.181 146.891 126.171 147.039 126.108 147.167C126.045 147.295 125.934 147.393 125.799 147.44L124.779 147.809C124.704 147.845 124.622 147.86 124.54 147.853ZM273.099 146.767H272.925L271.905 146.419C271.761 146.375 271.64 146.275 271.57 146.141C271.5 146.008 271.485 145.852 271.53 145.708C271.575 145.564 271.675 145.444 271.808 145.374C271.941 145.303 272.097 145.289 272.241 145.334L273.273 145.681C273.407 145.724 273.519 145.817 273.585 145.94C273.652 146.064 273.669 146.208 273.631 146.343C273.604 146.464 273.536 146.572 273.44 146.649C273.343 146.726 273.223 146.768 273.099 146.767ZM130.718 145.681C130.647 145.692 130.574 145.688 130.504 145.67C130.434 145.653 130.368 145.621 130.311 145.578C130.253 145.534 130.205 145.48 130.169 145.417C130.132 145.355 130.109 145.286 130.099 145.214C130.087 145.143 130.089 145.071 130.106 145.001C130.122 144.931 130.153 144.865 130.195 144.807C130.238 144.749 130.292 144.701 130.354 144.664C130.416 144.628 130.484 144.604 130.555 144.595L131.641 144.269C131.778 144.229 131.925 144.243 132.051 144.31C132.177 144.378 132.272 144.492 132.315 144.628C132.337 144.693 132.346 144.761 132.342 144.83C132.337 144.898 132.319 144.965 132.289 145.027C132.259 145.088 132.217 145.143 132.165 145.188C132.114 145.234 132.054 145.268 131.989 145.29L130.903 145.616C130.857 145.645 130.805 145.664 130.751 145.67L130.718 145.681ZM266.888 144.812C266.838 144.823 266.786 144.823 266.736 144.812L265.65 144.508C265.513 144.462 265.399 144.365 265.332 144.237C265.265 144.109 265.249 143.961 265.288 143.821C265.327 143.682 265.417 143.563 265.541 143.489C265.665 143.415 265.813 143.391 265.954 143.422L267.04 143.726C267.109 143.745 267.174 143.778 267.23 143.822C267.287 143.866 267.333 143.922 267.368 143.984C267.402 144.047 267.424 144.116 267.431 144.188C267.438 144.259 267.431 144.331 267.409 144.4C267.391 144.524 267.328 144.638 267.232 144.72C267.136 144.802 267.014 144.846 266.888 144.845V144.812ZM136.973 143.846C136.902 143.857 136.83 143.853 136.761 143.835C136.691 143.817 136.626 143.785 136.57 143.742C136.513 143.698 136.465 143.644 136.43 143.581C136.395 143.519 136.373 143.45 136.365 143.379C136.354 143.308 136.358 143.235 136.376 143.165C136.393 143.095 136.425 143.029 136.468 142.971C136.512 142.914 136.566 142.865 136.629 142.829C136.691 142.793 136.76 142.769 136.832 142.76L137.918 142.478C138.055 142.458 138.195 142.49 138.31 142.567C138.425 142.644 138.508 142.761 138.543 142.895C138.578 143.029 138.562 143.171 138.499 143.295C138.436 143.418 138.329 143.514 138.2 143.564L137.114 143.846C137.068 143.857 137.019 143.857 136.973 143.846ZM260.611 143.086H260.47L259.384 142.814C259.245 142.781 259.124 142.693 259.049 142.571C258.974 142.449 258.95 142.302 258.983 142.163C259.019 142.023 259.108 141.902 259.232 141.827C259.356 141.752 259.504 141.728 259.645 141.761L260.731 142.033C260.802 142.041 260.871 142.064 260.934 142.099C260.996 142.134 261.051 142.181 261.096 142.238C261.14 142.294 261.173 142.359 261.192 142.428C261.212 142.497 261.217 142.569 261.209 142.641C261.2 142.712 261.178 142.781 261.142 142.843C261.107 142.906 261.06 142.961 261.004 143.005C260.947 143.05 260.882 143.083 260.813 143.102C260.744 143.121 260.672 143.127 260.601 143.118L260.611 143.086ZM143.336 142.228C143.192 142.244 143.048 142.202 142.935 142.111C142.822 142.021 142.749 141.889 142.734 141.745C142.718 141.601 142.76 141.456 142.85 141.343C142.941 141.23 143.073 141.158 143.217 141.142L144.303 140.892C144.447 140.856 144.599 140.879 144.726 140.955C144.854 141.032 144.945 141.156 144.981 141.3C145.017 141.444 144.995 141.596 144.918 141.723C144.842 141.85 144.718 141.942 144.574 141.978L143.488 142.228H143.336ZM254.324 141.555H254.205L253.119 141.327C253.049 141.311 252.983 141.282 252.924 141.241C252.865 141.2 252.815 141.148 252.777 141.087C252.738 141.026 252.712 140.959 252.7 140.888C252.688 140.817 252.69 140.745 252.706 140.675C252.719 140.606 252.746 140.54 252.785 140.482C252.824 140.423 252.874 140.373 252.933 140.334C252.992 140.296 253.058 140.27 253.127 140.257C253.196 140.245 253.267 140.247 253.336 140.263L254.422 140.501C254.493 140.508 254.563 140.529 254.626 140.563C254.689 140.597 254.745 140.643 254.791 140.698C254.836 140.754 254.87 140.818 254.891 140.886C254.911 140.955 254.918 141.027 254.911 141.099C254.894 141.244 254.821 141.377 254.707 141.468C254.593 141.56 254.448 141.603 254.302 141.587L254.324 141.555ZM149.7 140.816C149.576 140.817 149.456 140.775 149.359 140.698C149.262 140.621 149.195 140.513 149.167 140.393C149.141 140.251 149.171 140.104 149.249 139.983C149.328 139.861 149.45 139.775 149.591 139.741L150.677 139.524C150.819 139.499 150.966 139.53 151.086 139.611C151.205 139.692 151.289 139.817 151.318 139.958C151.332 140.028 151.332 140.1 151.319 140.17C151.305 140.24 151.278 140.307 151.238 140.367C151.199 140.426 151.148 140.477 151.089 140.517C151.03 140.557 150.964 140.585 150.894 140.599L149.808 140.805L149.7 140.816ZM247.95 140.241H247.841L246.756 140.045C246.614 140.016 246.489 139.933 246.408 139.813C246.327 139.694 246.296 139.547 246.321 139.405C246.348 139.264 246.429 139.139 246.547 139.058C246.665 138.976 246.81 138.945 246.951 138.97L248.037 139.177C248.178 139.203 248.303 139.284 248.384 139.402C248.465 139.52 248.497 139.665 248.471 139.806C248.443 139.937 248.37 140.053 248.265 140.134C248.159 140.216 248.029 140.257 247.896 140.252L247.95 140.241ZM156.106 139.6C155.962 139.613 155.819 139.568 155.708 139.476C155.597 139.383 155.527 139.25 155.514 139.106C155.501 138.962 155.546 138.819 155.639 138.708C155.732 138.597 155.865 138.527 156.009 138.514L157.094 138.33C157.166 138.318 157.239 138.32 157.309 138.336C157.38 138.352 157.446 138.382 157.505 138.423C157.564 138.465 157.615 138.518 157.653 138.58C157.691 138.641 157.718 138.709 157.73 138.78C157.742 138.852 157.74 138.925 157.724 138.995C157.708 139.066 157.678 139.132 157.636 139.191C157.594 139.25 157.541 139.3 157.48 139.339C157.419 139.377 157.35 139.403 157.279 139.416L156.193 139.6H156.106ZM241.533 139.111H241.446L240.36 138.938C240.218 138.914 240.092 138.836 240.007 138.72C239.922 138.605 239.885 138.461 239.904 138.319C239.93 138.177 240.011 138.052 240.128 137.969C240.246 137.885 240.391 137.851 240.533 137.874L241.619 138.036C241.761 138.063 241.887 138.144 241.97 138.261C242.053 138.379 242.087 138.524 242.065 138.666C242.059 138.738 242.04 138.807 242.007 138.871C241.975 138.935 241.93 138.992 241.875 139.038C241.821 139.084 241.758 139.12 241.69 139.142C241.621 139.163 241.55 139.172 241.478 139.166L241.533 139.111ZM162.535 138.569C162.464 138.574 162.393 138.566 162.325 138.544C162.258 138.522 162.195 138.487 162.142 138.44C162.088 138.394 162.044 138.337 162.013 138.273C161.981 138.209 161.963 138.14 161.959 138.069C161.953 137.998 161.961 137.926 161.983 137.858C162.005 137.79 162.04 137.726 162.087 137.672C162.133 137.617 162.19 137.573 162.254 137.54C162.318 137.508 162.387 137.488 162.459 137.483L163.545 137.331C163.687 137.312 163.831 137.349 163.946 137.434C164.061 137.519 164.139 137.645 164.163 137.787C164.182 137.93 164.144 138.076 164.056 138.192C163.969 138.307 163.84 138.384 163.697 138.406L162.611 138.558L162.535 138.569ZM235.082 138.156H235.006L233.92 138.015C233.778 137.996 233.649 137.921 233.561 137.807C233.474 137.693 233.435 137.549 233.454 137.407C233.47 137.267 233.541 137.14 233.651 137.052C233.76 136.965 233.9 136.924 234.04 136.94L235.126 137.081C235.265 137.097 235.393 137.168 235.48 137.278C235.567 137.388 235.608 137.528 235.593 137.667C235.587 137.739 235.568 137.808 235.535 137.872C235.503 137.936 235.458 137.993 235.403 138.039C235.349 138.085 235.286 138.121 235.218 138.143C235.15 138.164 235.078 138.173 235.006 138.167L235.082 138.156ZM228.567 137.385L227.481 137.265C227.339 137.249 227.209 137.177 227.119 137.065C227.03 136.953 226.988 136.811 227.003 136.668C227.025 136.528 227.098 136.401 227.209 136.313C227.319 136.224 227.459 136.181 227.601 136.19L228.687 136.299C228.831 136.299 228.969 136.356 229.07 136.458C229.172 136.56 229.229 136.698 229.229 136.842C229.229 136.986 229.172 137.124 229.07 137.226C228.969 137.328 228.831 137.385 228.687 137.385H228.567ZM222.052 136.777L220.966 136.69C220.895 136.685 220.825 136.665 220.761 136.632C220.697 136.6 220.641 136.555 220.594 136.501C220.548 136.446 220.513 136.383 220.491 136.315C220.469 136.247 220.46 136.175 220.466 136.104C220.483 135.962 220.552 135.831 220.661 135.738C220.77 135.646 220.91 135.598 221.053 135.604L222.139 135.691C222.209 135.695 222.277 135.713 222.34 135.744C222.403 135.774 222.459 135.817 222.506 135.87C222.552 135.922 222.588 135.983 222.61 136.049C222.633 136.116 222.643 136.186 222.638 136.256C222.637 136.327 222.621 136.397 222.593 136.463C222.564 136.528 222.523 136.587 222.471 136.636C222.42 136.686 222.359 136.725 222.293 136.751C222.227 136.777 222.156 136.789 222.084 136.788L222.052 136.777ZM215.537 136.332H214.451C214.307 136.323 214.172 136.258 214.076 136.15C213.981 136.042 213.932 135.9 213.94 135.756C213.949 135.612 214.014 135.477 214.122 135.382C214.23 135.286 214.372 135.237 214.516 135.246L215.602 135.311C215.746 135.311 215.884 135.368 215.986 135.47C216.087 135.572 216.145 135.71 216.145 135.854C216.145 135.998 216.087 136.136 215.986 136.238C215.884 136.34 215.746 136.397 215.602 136.397L215.537 136.332ZM209.021 136.038H207.935C207.864 136.037 207.794 136.022 207.728 135.993C207.663 135.964 207.604 135.923 207.555 135.872C207.505 135.82 207.466 135.76 207.44 135.693C207.414 135.627 207.402 135.556 207.403 135.485C207.405 135.412 207.42 135.341 207.45 135.275C207.479 135.209 207.521 135.149 207.574 135.1C207.626 135.05 207.688 135.012 207.756 134.987C207.824 134.961 207.896 134.95 207.968 134.953H209.054C209.198 134.953 209.336 135.01 209.438 135.112C209.54 135.213 209.597 135.352 209.597 135.496C209.597 135.64 209.54 135.778 209.438 135.879C209.336 135.981 209.198 136.038 209.054 136.038H209.021ZM202.506 135.908H201.42C201.276 135.908 201.138 135.851 201.036 135.749C200.934 135.647 200.877 135.509 200.877 135.365C200.882 135.223 200.941 135.088 201.042 134.987C201.143 134.887 201.278 134.828 201.42 134.822H202.506C202.577 134.824 202.648 134.839 202.713 134.868C202.778 134.896 202.837 134.938 202.887 134.989C202.936 135.04 202.975 135.101 203.001 135.167C203.027 135.234 203.039 135.305 203.038 135.376C203.038 135.512 202.987 135.642 202.894 135.741C202.801 135.84 202.674 135.9 202.539 135.908H202.506Z" fill="#3D9BFB"/>
<path d="M77.293 202.516C89.0055 202.516 98.5003 193.021 98.5003 181.309C98.5003 169.596 89.0055 160.102 77.293 160.102C65.5806 160.102 56.0858 169.596 56.0858 181.309C56.0858 193.021 65.5806 202.516 77.293 202.516Z" fill="white"/>
<path d="M74.8823 178.627H87.7174V183.6H74.9041V187.368H81.0176V190.202H74.8823V194.546H69.2575V190.202H66.6188V187.325H69.214V168.04H87.9672V172.991H75.4361C74.9583 172.991 74.8063 173.089 74.8172 173.61V177.954L74.8823 178.627Z" fill="#3D9BFB"/>
<path d="M134.237 154.325C145.949 154.325 155.444 144.83 155.444 133.117C155.444 121.405 145.949 111.91 134.237 111.91C122.524 111.91 113.029 121.405 113.029 133.117C113.029 144.83 122.524 154.325 134.237 154.325Z" fill="white"/>
<path d="M148.114 125.549L143.108 128.014C141.251 125.071 138.678 123.594 135.149 124.115C133.821 124.293 132.557 124.789 131.463 125.563C130.37 126.336 129.481 127.364 128.872 128.557H139.014V131.673H127.884V134.377H139.025V137.559H128.796C129.372 138.765 130.238 139.81 131.316 140.6C132.394 141.391 133.651 141.901 134.975 142.087C136.561 142.409 138.21 142.204 139.668 141.502C141.127 140.8 142.316 139.64 143.054 138.199L148.168 140.675C147.549 141.511 147.028 142.326 146.398 143.064C145.224 144.457 143.756 145.574 142.101 146.336C140.446 147.098 138.643 147.486 136.821 147.473C133.909 147.572 131.028 146.854 128.503 145.399C125.731 143.83 123.629 141.299 122.596 138.286C122.4 137.743 122.162 137.461 121.51 137.548C121.073 137.58 120.634 137.58 120.196 137.548V134.399H121.64V131.695H120.196V128.568H121.847C121.985 128.597 122.129 128.572 122.248 128.497C122.368 128.422 122.454 128.303 122.487 128.166C123.195 125.949 124.499 123.969 126.255 122.443C127.934 120.953 129.945 119.885 132.119 119.327C134.295 118.739 136.569 118.61 138.797 118.947C140.399 119.16 141.941 119.697 143.33 120.524C144.719 121.35 145.925 122.45 146.876 123.757C147.256 124.257 147.593 124.843 147.962 125.321C148.021 125.391 148.072 125.467 148.114 125.549Z" fill="#3D9BFB"/>
<path d="M268.984 157.278C280.696 157.278 290.191 147.783 290.191 136.071C290.191 124.359 280.696 114.864 268.984 114.864C257.271 114.864 247.776 124.359 247.776 136.071C247.776 147.783 257.271 157.278 268.984 157.278Z" fill="white"/>
<path d="M261.176 150.144L259.2 146.17C259.699 145.877 260.21 145.616 260.687 145.301C262.03 144.544 263.061 143.336 263.598 141.891C263.862 140.89 263.746 139.826 263.272 138.905C263.272 138.797 262.979 138.721 262.816 138.721H258.298V135.333H260.959C260.524 134.54 260.068 133.802 259.721 133.009C259.23 131.917 259.032 130.716 259.146 129.524C259.26 128.332 259.683 127.19 260.372 126.211C261.099 125.105 262.045 124.161 263.154 123.438C264.262 122.715 265.507 122.228 266.812 122.009C269.632 121.383 272.581 121.723 275.184 122.975C276.804 123.802 278.117 125.127 278.93 126.754L274.304 129.393C273.937 128.839 273.534 128.31 273.099 127.807C272.528 127.236 271.81 126.832 271.025 126.641C270.24 126.449 269.417 126.477 268.647 126.722C267.635 126.931 266.747 127.533 266.179 128.396C265.611 129.26 265.409 130.313 265.617 131.326C265.683 131.654 265.793 131.971 265.943 132.27C266.387 133.252 266.91 134.197 267.507 135.094C267.577 135.169 267.663 135.229 267.759 135.268C267.854 135.308 267.957 135.326 268.061 135.322H273.599V138.699H268.929C269.05 139.705 268.896 140.725 268.483 141.651C268.07 142.576 267.413 143.373 266.584 143.955L267.387 143.857C268.889 143.717 270.398 144.019 271.731 144.725C272.531 145.112 273.422 145.269 274.306 145.179C275.19 145.089 276.031 144.755 276.737 144.215C276.944 144.051 277.137 143.87 277.312 143.672C278.094 145.225 278.854 146.756 279.636 148.331C278.921 149.083 278.017 149.63 277.019 149.916C274.849 150.622 272.511 150.622 270.341 149.916C269.71 149.702 269.09 149.455 268.484 149.178C267.635 148.801 266.714 148.615 265.786 148.632C264.857 148.649 263.944 148.868 263.109 149.275L261.176 150.144Z" fill="#3D9BFB"/>
<path d="M307.521 231.412C319.234 231.412 328.729 221.917 328.729 210.204C328.729 198.492 319.234 188.997 307.521 188.997C295.809 188.997 286.314 198.492 286.314 210.204C286.314 221.917 295.809 231.412 307.521 231.412Z" fill="white"/>
<path d="M307.554 207.728L308.955 205.448C310.453 202.994 311.963 200.54 313.45 198.075C313.521 197.926 313.636 197.802 313.78 197.72C313.924 197.638 314.089 197.603 314.254 197.619H319.911C317.327 201.604 314.808 205.513 312.223 209.488H318.825V212.506H310.236V215.493H318.825V218.435H310.247V222.779H304.904V218.435H296.337V215.482H304.85V212.495H296.326V209.488H302.917L295.186 197.543H300.865C300.991 197.528 301.118 197.551 301.23 197.609C301.342 197.667 301.435 197.757 301.495 197.869C302.733 199.903 303.978 201.93 305.23 203.95L307.554 207.728Z" fill="#3D9BFB"/>
<path d="M133.726 253.292C145.439 253.292 154.933 243.797 154.933 232.085C154.933 220.372 145.439 210.877 133.726 210.877C122.014 210.877 112.519 220.372 112.519 232.085C112.519 243.797 122.014 253.292 133.726 253.292Z" fill="white"/>
<path d="M131.956 218.435V214.852H136.137V218.533C139.143 218.896 141.961 220.191 144.194 222.236L140.806 226.71C139.503 225.482 137.912 224.601 136.18 224.147V229.077C137.266 229.446 138.352 229.75 139.362 230.163C141.17 230.649 142.721 231.816 143.69 233.418C144.659 235.021 144.972 236.935 144.563 238.763C144.404 239.878 143.999 240.943 143.377 241.882C142.755 242.821 141.933 243.61 140.969 244.192C139.644 244.992 138.163 245.499 136.626 245.68C136.213 245.68 136.137 245.886 136.148 246.255V249.285H131.956V245.886C130.87 245.658 129.839 245.474 128.829 245.202C126.746 244.671 124.832 243.617 123.269 242.14C122.607 241.532 122.618 241.51 123.139 240.772C124.04 239.48 124.952 238.198 125.908 236.852C127.504 238.612 129.612 239.827 131.935 240.327V234.723C130.74 234.322 129.578 233.996 128.46 233.54C127.461 233.217 126.545 232.682 125.772 231.972C125 231.261 124.391 230.392 123.986 229.424C123.612 228.471 123.438 227.45 123.475 226.426C123.512 225.403 123.76 224.398 124.203 223.474C124.806 222.276 125.675 221.232 126.745 220.423C127.814 219.613 129.054 219.06 130.371 218.804C130.87 218.652 131.37 218.576 131.956 218.435ZM136.169 240.251C136.794 240.185 137.376 239.901 137.811 239.448C138.247 238.994 138.507 238.402 138.548 237.775C138.548 236.841 137.462 236.07 136.169 235.809V240.251ZM131.902 227.958V223.865C131.325 223.878 130.774 224.109 130.361 224.512C129.948 224.915 129.703 225.46 129.676 226.036C129.676 226.916 130.631 227.73 131.902 227.948V227.958Z" fill="#3D9BFB"/>
</g>
<defs>
<linearGradient id="paint0_linear" x1="178.931" y1="79.9095" x2="235.495" y2="71.3419" gradientUnits="userSpaceOnUse">
<stop offset="0.01"/>
<stop offset="0.13" stop-opacity="0.69"/>
<stop offset="0.25" stop-opacity="0.32"/>
<stop offset="1" stop-opacity="0"/>
</linearGradient>
<linearGradient id="paint1_linear" x1="21055.3" y1="-3647.23" x2="19476.1" y2="-2114.17" gradientUnits="userSpaceOnUse">
<stop offset="0.01"/>
<stop offset="0.13" stop-opacity="0.69"/>
<stop offset="0.25" stop-opacity="0.32"/>
<stop offset="1" stop-opacity="0"/>
</linearGradient>
<linearGradient id="paint2_linear" x1="3522.03" y1="1706.57" x2="3431.55" y2="1519.13" gradientUnits="userSpaceOnUse">
<stop offset="0.01"/>
<stop offset="0.13" stop-opacity="0.69"/>
<stop offset="0.25" stop-opacity="0.32"/>
<stop offset="1" stop-opacity="0"/>
</linearGradient>
<linearGradient id="paint3_linear" x1="14968.4" y1="-1057.51" x2="14889.3" y2="-1391.99" gradientUnits="userSpaceOnUse">
<stop offset="0.01"/>
<stop offset="0.13" stop-opacity="0.69"/>
<stop offset="0.25" stop-opacity="0.32"/>
<stop offset="1" stop-opacity="0"/>
</linearGradient>
<linearGradient id="paint4_linear" x1="148.397" y1="168.724" x2="228.969" y2="171.981" gradientUnits="userSpaceOnUse">
<stop/>
<stop offset="1" stop-opacity="0"/>
</linearGradient>
<linearGradient id="paint5_linear" x1="8606.12" y1="8493.9" x2="6020.22" y2="8771.22" gradientUnits="userSpaceOnUse">
<stop/>
<stop offset="1" stop-opacity="0"/>
</linearGradient>
<linearGradient id="paint6_linear" x1="5280.41" y1="-2505.29" x2="5098.75" y2="-2220.07" gradientUnits="userSpaceOnUse">
<stop offset="0.01"/>
<stop offset="0.13" stop-opacity="0.69"/>
<stop offset="0.25" stop-opacity="0.32"/>
<stop offset="1" stop-opacity="0"/>
</linearGradient>
<linearGradient id="paint7_linear" x1="30608.7" y1="-2919.05" x2="30528.7" y2="-3324.7" gradientUnits="userSpaceOnUse">
<stop/>
<stop offset="1" stop-opacity="0"/>
</linearGradient>
<clipPath id="clip0">
<rect width="406" height="306" fill="white"/>
</clipPath>
</defs>
</svg>
