<svg width="479" height="361" viewBox="0 0 479 361" fill="none" xmlns="http://www.w3.org/2000/svg">
<path opacity="0.3" d="M288.957 69.3421C246.374 57.6072 201.144 50.6022 158.178 55.811C138.467 58.2059 117.87 63.7021 102.698 77.2212C82.6274 95.0869 71.9697 124.711 66.4732 150.349C58.6056 187.014 69.2633 221.919 96.6981 247.856C119.558 269.409 149.508 282.006 179.733 290.688C213.61 300.406 248.577 305.813 283.807 306.781C316.811 307.691 347.514 305.105 373.189 282.042C390.529 266.476 402.791 245.676 409.653 223.368C419.065 192.822 416.502 161.269 398.875 134.315C382.11 108.774 355.37 90.848 326.786 81.053C314.499 76.8739 301.854 72.8865 288.957 69.3421Z" fill="#E6E6E6"/>
<path d="M389.786 82.3821H264.42V307.2H389.786V82.3821Z" fill="#C9C9C9"/>
<path d="M378.554 108.019H274.79V266.248H378.554V108.019Z" fill="white"/>
<path opacity="0.56" d="M327.48 298.759C334.253 298.759 339.743 293.269 339.743 286.497C339.743 279.725 334.253 274.235 327.48 274.235C320.708 274.235 315.218 279.725 315.218 286.497C315.218 293.269 320.708 298.759 327.48 298.759Z" fill="white"/>
<path opacity="0.12" d="M351.646 91.1714H316.499V96.2964H351.646V91.1714Z" fill="black"/>
<path d="M303.77 100.02C306.931 100.02 309.494 97.4579 309.494 94.2967C309.494 91.1356 306.931 88.573 303.77 88.573C300.609 88.573 298.046 91.1356 298.046 94.2967C298.046 97.4579 300.609 100.02 303.77 100.02Z" fill="white"/>
<path d="M304.943 211.334L295.567 221.117C294.817 221.897 293.897 222.492 292.879 222.857C291.861 223.221 290.772 223.345 289.698 223.219C288.624 223.092 287.594 222.719 286.688 222.128C285.783 221.537 285.026 220.744 284.478 219.812L272.371 199.156C272.035 198.585 271.785 197.968 271.629 197.324C271.102 195.109 269.641 189.708 268.036 189.098C266.001 188.343 265.498 193.337 265.498 193.337C265.498 193.337 259.642 189.433 257.115 193.337C255.606 195.672 259.307 198.761 262.564 200.892C265.285 202.664 267.311 205.32 268.3 208.412C271.401 218.243 278.994 239.103 287.927 240.815C299.638 243.078 320.259 225.44 320.259 225.44L304.943 211.334Z" fill="#F4A28C"/>
<path d="M327.684 178.931C327.684 178.931 290.382 184.978 294.956 210.747C298.273 229.415 308.009 228.086 307.506 242.312L307.29 251.364L346.976 250.167C346.976 250.167 344.449 232.325 349.371 219.62C354.292 206.915 367.98 175.543 327.684 178.931Z" fill="#3D9BFB"/>
<path d="M336.318 156.659L338.042 179.159L325.576 179.219L329.324 162.826L336.318 156.659Z" fill="#F4A28C"/>
<path opacity="0.09" d="M338.892 183.733C338.892 183.733 319.505 189.541 325.612 206.233C331.719 222.925 341.467 233.511 331.66 238.839C321.852 244.168 307.326 251.364 307.326 251.364H340.856L348.832 242.659L355.729 217.513L338.892 183.733Z" fill="black"/>
<path opacity="0.31" d="M328.354 166.382C329.931 166.115 331.395 165.395 332.57 164.311C332.57 164.311 332.055 168.406 327.205 172.106L328.354 166.382Z" fill="#CE8172"/>
<path d="M323.804 154.767C323.804 154.767 323.05 161.617 324.091 166.203C324.3 167.097 324.854 167.873 325.633 168.36C326.411 168.847 327.351 169.006 328.247 168.801C329.697 168.555 331.044 167.895 332.128 166.901C333.212 165.907 333.985 164.621 334.354 163.197L336.557 157.21C336.876 155.97 336.8 154.661 336.34 153.466C335.881 152.271 335.061 151.248 333.995 150.54C330.187 147.678 324.055 150.564 323.804 154.767Z" fill="#F4A28C"/>
<path d="M307.29 251.364L302.417 266.105H352.831L346.976 250.167L307.29 251.364Z" fill="#24285B"/>
<path d="M330.977 160.838C330.977 160.838 331.097 158.192 333.085 158.443C335.072 158.695 334.929 162.527 332.21 162.814L330.977 160.838Z" fill="#F4A28C"/>
<path d="M323.552 159.102L321.565 161.712C321.451 161.86 321.377 162.034 321.35 162.218C321.322 162.402 321.341 162.59 321.406 162.765C321.47 162.939 321.578 163.095 321.719 163.216C321.86 163.338 322.029 163.422 322.211 163.46L324.834 164.011L323.552 159.102Z" fill="#F4A28C"/>
<path d="M333.085 158.443C333.085 158.443 324.798 178.8 331.432 182.619C338.066 186.439 349.886 185.661 351.442 177.004C352.999 168.346 344.521 166.227 344.449 154.073C344.377 141.919 321.098 142.817 320.846 149.774C320.595 156.731 333.085 158.443 333.085 158.443Z" fill="#FFD200"/>
<path d="M338.892 183.733C339.973 182.841 341.231 182.187 342.583 181.816C343.935 181.445 345.35 181.365 346.735 181.581C348.12 181.798 349.444 182.305 350.619 183.07C351.793 183.835 352.792 184.841 353.55 186.02C359.788 195.514 362.822 206.756 362.208 218.1C360.843 242.18 366.028 256.777 340.82 251.364C322.439 247.413 300.105 217.249 300.105 217.249C300.105 217.249 292.633 212.304 298.405 205.012C304.177 197.719 308.596 215.022 308.596 215.022C308.596 215.022 338.809 240.168 344.916 232.888C350.221 226.458 323.181 197.001 338.892 183.733Z" fill="#F4A28C"/>
<path d="M214.58 53.7876H89.2137V278.606H214.58V53.7876Z" fill="#C9C9C9"/>
<path d="M203.347 79.4246H99.5841V237.654H203.347V79.4246Z" fill="white"/>
<path opacity="0.56" d="M152.274 270.164C159.046 270.164 164.537 264.674 164.537 257.902C164.537 251.13 159.046 245.64 152.274 245.64C145.502 245.64 140.012 251.13 140.012 257.902C140.012 264.674 145.502 270.164 152.274 270.164Z" fill="white"/>
<path opacity="0.12" d="M176.44 62.5767H141.293V67.7017H176.44V62.5767Z" fill="black"/>
<path d="M128.564 71.4257C131.725 71.4257 134.288 68.8631 134.288 65.702C134.288 62.5409 131.725 59.9783 128.564 59.9783C125.402 59.9783 122.84 62.5409 122.84 65.702C122.84 68.8631 125.402 71.4257 128.564 71.4257Z" fill="white"/>
<path d="M179.398 178.333C179.398 178.333 178.631 205.682 191.373 211.095C207.203 217.848 224.795 202.713 232.375 194.977C234.565 192.716 237.448 191.254 240.566 190.822C243.314 190.523 245.863 189.249 247.751 187.23C252.074 182.44 242.661 178.057 238.841 181.626C239.021 181.321 239.13 180.98 239.162 180.628C239.194 180.277 239.147 179.922 239.026 179.59C238.905 179.258 238.712 178.957 238.46 178.709C238.209 178.46 237.905 178.27 237.572 178.153C236.375 177.483 235.321 179.183 234.614 181.087C234.117 182.463 233.322 183.713 232.287 184.747C231.253 185.782 230.003 186.576 228.627 187.074L211.335 193.205C210.179 193.658 208.923 193.796 207.696 193.604C206.468 193.412 205.315 192.897 204.352 192.113C203.389 191.328 202.653 190.301 202.217 189.138C201.782 187.975 201.664 186.717 201.875 185.493L203.348 176.836L179.398 178.333Z" fill="#F4A28C"/>
<path d="M184.583 136.327C184.583 136.327 207.886 146.265 204.317 182.667L181.565 180.716L184.583 136.327Z" fill="#3D9BFB"/>
<path opacity="0.36" d="M184.583 136.327C184.583 136.327 207.886 146.265 204.317 182.667L181.565 180.716L184.583 136.327Z" fill="white"/>
<path d="M160.321 105.146L153.855 127.921L166.668 130.591L166.225 112.941L160.321 105.146Z" fill="#F4A28C"/>
<path opacity="0.31" d="M166.453 116.797C164.885 116.199 163.527 115.154 162.549 113.791C162.549 113.791 162.225 118.114 166.441 122.927L166.453 116.797Z" fill="#CE8172"/>
<path d="M153.855 127.921L161.459 129.501C161.459 129.501 196.186 133.249 197.635 152.875C199.084 172.501 179.397 222.626 179.397 222.626H126.707C126.707 222.626 84.5315 122.736 153.855 127.921Z" fill="#3D9BFB"/>
<path d="M173.638 105.804C173.638 105.804 172.991 112.989 170.955 117.503C170.762 117.939 170.485 118.332 170.139 118.659C169.792 118.986 169.385 119.242 168.939 119.41C168.493 119.578 168.018 119.656 167.542 119.639C167.066 119.622 166.598 119.511 166.165 119.311C164.708 118.764 163.442 117.805 162.521 116.551C161.6 115.296 161.065 113.8 160.98 112.246L159.95 105.66C159.886 104.319 160.238 102.99 160.958 101.856C161.678 100.722 162.732 99.838 163.974 99.3259C168.5 97.1825 174.2 101.469 173.638 105.804Z" fill="#F4A28C"/>
<path opacity="0.09" d="M138.299 137.069C138.299 137.069 156.262 147.535 152.13 171.208C147.999 194.881 140.994 203.036 155.855 199.719C170.716 196.402 176.823 188.942 176.823 188.942C176.823 188.942 187.517 197.659 176.823 204.281C166.129 210.903 151.675 210.879 149.28 222.602H126.731C126.731 222.602 124.899 217.465 122.48 210.999C120.061 204.533 138.299 137.069 138.299 137.069Z" fill="black"/>
<path d="M171.769 105.792C169.556 105.486 167.386 104.923 165.303 104.116C165.766 105.199 165.9 106.395 165.687 107.553C165.474 108.712 164.924 109.782 164.105 110.63C163.338 111.471 162.302 112.02 161.175 112.181C160.048 112.343 158.899 112.108 157.926 111.516L159.675 102.403C159.877 101.094 160.428 99.8635 161.271 98.8414C162.114 97.8193 163.218 97.0435 164.465 96.5959C165.548 96.2049 166.656 95.8849 167.782 95.6379C170.596 95.0512 174.14 97.4939 176.823 96.1408C177.092 96.0059 177.391 95.9431 177.691 95.9585C177.991 95.9739 178.283 96.067 178.536 96.2288C178.79 96.3905 178.997 96.6154 179.137 96.8812C179.278 97.1471 179.347 97.4448 179.338 97.7454C179.254 100.595 177.984 104.93 173.949 105.732C173.23 105.866 172.495 105.886 171.769 105.792Z" fill="#FFD200"/>
<path d="M164.944 110.558C164.944 110.558 165.375 107.804 163.279 107.648C161.184 107.492 160.537 111.468 163.279 112.33L164.944 110.558Z" fill="#F4A28C"/>
<path opacity="0.08" d="M212.76 231.235C236.126 231.235 255.068 212.294 255.068 188.93C255.068 165.565 236.126 146.625 212.76 146.625C189.394 146.625 170.452 165.565 170.452 188.93C170.452 212.294 189.394 231.235 212.76 231.235Z" fill="black"/>
<path d="M212.76 231.235C236.126 231.235 255.068 212.294 255.068 188.93C255.068 165.565 236.126 146.625 212.76 146.625C189.394 146.625 170.452 165.565 170.452 188.93C170.452 212.294 189.394 231.235 212.76 231.235Z" fill="#FFD200"/>
<g opacity="0.08">
<path opacity="0.08" d="M213.454 222.362C236.82 222.362 255.762 203.421 255.762 180.057C255.762 156.692 236.82 137.751 213.454 137.751C190.089 137.751 171.147 156.692 171.147 180.057C171.147 203.421 190.089 222.362 213.454 222.362Z" fill="black"/>
</g>
<path opacity="0.08" d="M212.76 231.235C236.126 231.235 255.068 212.294 255.068 188.93C255.068 165.565 236.126 146.625 212.76 146.625C189.394 146.625 170.452 165.565 170.452 188.93C170.452 212.294 189.394 231.235 212.76 231.235Z" fill="black"/>
<path d="M213.454 222.362C236.82 222.362 255.762 203.421 255.762 180.057C255.762 156.692 236.82 137.751 213.454 137.751C190.089 137.751 171.147 156.692 171.147 180.057C171.147 203.421 190.089 222.362 213.454 222.362Z" fill="#FFD200"/>
<path d="M211.035 161.245C212.233 161.006 212.652 161.341 212.892 162.514L213.395 165.017C218.185 164.73 221.394 166.526 224.172 170.202C225.034 171.304 224.915 172.01 223.657 172.908L221.418 174.513C220.364 175.303 219.753 175.159 218.843 174.07C218.062 172.908 216.928 172.028 215.608 171.56C214.288 171.092 212.853 171.061 211.515 171.471C207.18 172.345 205.455 174.022 206.042 176.932C206.425 178.812 208.437 179.638 210.257 179.638C211.521 179.658 212.785 179.598 214.041 179.458C216.376 179.118 218.748 179.118 221.083 179.458C222.25 179.584 223.384 179.929 224.424 180.476C225.52 181.245 226.451 182.224 227.165 183.357C227.878 184.49 228.359 185.753 228.579 187.074C229.693 192.63 226.735 197.156 220.364 199.455L220.891 202.102C221.13 203.299 220.891 203.754 219.693 203.994L216.891 204.556C215.694 204.796 215.227 204.473 214.987 203.359L214.46 200.761C209.227 201.132 205.287 199.216 202.677 194.977C202.522 194.771 202.416 194.532 202.367 194.278C202.318 194.025 202.327 193.764 202.394 193.515C202.461 193.265 202.584 193.035 202.753 192.84C202.923 192.645 203.134 192.491 203.372 192.39L205.683 190.966C206.88 190.247 207.491 190.439 208.317 191.6C210.018 194.235 212.592 195.193 216.065 194.498C220.759 193.54 222.795 191.588 222.196 188.583C222.093 187.878 221.758 187.228 221.244 186.736C220.73 186.244 220.066 185.937 219.358 185.864C217.619 185.608 215.852 185.608 214.113 185.864C211.748 186.206 209.343 186.173 206.988 185.769C205.831 185.61 204.711 185.245 203.683 184.691C202.588 183.971 201.653 183.032 200.938 181.934C200.223 180.836 199.743 179.601 199.528 178.309C198.414 172.8 201.132 168.43 207.491 166.239L206.988 163.748C206.748 162.55 207.072 162.083 208.185 161.844L211.035 161.245Z" fill="white"/>
<path d="M110.505 178.919C110.505 178.919 107.536 209.334 122.48 211.023C133.749 212.304 151.819 205.946 162.86 202.796C167.65 201.431 169.961 200.797 173.638 197.444C178.032 193.42 184.14 190.559 179.398 186.739C171.015 179.949 165.028 191.529 165.028 191.529C157.984 193.569 150.725 194.774 143.401 195.121C142.026 195.158 140.662 194.874 139.417 194.291C138.171 193.709 137.079 192.843 136.227 191.764C135.374 190.686 134.786 189.423 134.507 188.076C134.229 186.73 134.269 185.337 134.623 184.009L137.413 173.531C137.413 173.531 117.607 155.055 110.505 178.919Z" fill="#F4A28C"/>
<path d="M172.943 110.318L174.44 113.444C174.515 113.62 174.547 113.812 174.532 114.003C174.518 114.195 174.457 114.38 174.356 114.543C174.255 114.706 174.117 114.842 173.952 114.941C173.787 115.039 173.601 115.097 173.41 115.108H170.596L172.943 110.318Z" fill="#F4A28C"/>
<path d="M126.025 134.686C118.301 140.673 106.589 153.845 106.865 178.68L138.766 180.715C138.766 180.715 147.987 153.414 138.347 137.069C137.744 136.048 136.93 135.166 135.96 134.483C134.991 133.799 133.887 133.329 132.722 133.104C131.558 132.879 130.358 132.903 129.204 133.176C128.049 133.449 126.966 133.963 126.025 134.686Z" fill="#3D9BFB"/>
<path opacity="0.36" d="M126.025 134.686C118.301 140.673 106.589 153.845 106.865 178.68L138.766 180.715C138.766 180.715 147.987 153.414 138.347 137.069C137.744 136.048 136.93 135.166 135.96 134.483C134.991 133.799 133.887 133.329 132.722 133.104C131.558 132.879 130.358 132.903 129.204 133.176C128.049 133.449 126.966 133.963 126.025 134.686Z" fill="white"/>
<path d="M126.731 222.626V238.156H184.211L179.397 222.626H126.731Z" fill="#24285B"/>
<path d="M252.289 175.303C251.225 176.526 250.597 178.067 250.505 179.686C250.396 180.556 250.56 181.439 250.972 182.212C251.265 182.651 251.644 183.026 252.086 183.314C253.822 184.512 256.493 184.703 257.882 183.099C258.614 182.116 258.983 180.91 258.923 179.686C258.923 178.249 259.091 175.411 257.942 174.309C256.397 172.825 253.499 174.022 252.289 175.303Z" fill="#F4A28C"/>
</svg>
