<svg width="406" height="306" viewBox="0 0 406 306" fill="none" xmlns="http://www.w3.org/2000/svg">
<path d="M147.977 61.5891H228.943V111.832C228.943 112.855 228.537 113.836 227.814 114.559C227.09 115.282 226.109 115.689 225.086 115.689H151.834C150.811 115.689 149.83 115.282 149.107 114.559C148.383 113.836 147.977 112.855 147.977 111.832V61.5891Z" fill="white"/>
<path d="M225.086 116.145H151.834C150.689 116.143 149.592 115.686 148.783 114.875C147.974 114.065 147.52 112.966 147.52 111.821V61.589C147.52 61.4669 147.568 61.3496 147.653 61.2624C147.739 61.1751 147.855 61.1247 147.977 61.1221H228.943C229.067 61.1221 229.186 61.1713 229.274 61.2588C229.361 61.3464 229.41 61.4651 229.41 61.589V111.821C229.41 112.968 228.955 114.068 228.144 114.879C227.333 115.69 226.233 116.145 225.086 116.145ZM148.444 62.0559V111.791C148.444 112.691 148.801 113.554 149.436 114.192C150.072 114.829 150.934 115.188 151.834 115.191H225.086C225.988 115.191 226.853 114.833 227.491 114.195C228.128 113.558 228.487 112.693 228.487 111.791V62.0559H148.444Z" fill="#231F20"/>
<path d="M151.834 54.4028H225.086C226.109 54.4028 227.09 54.8092 227.814 55.5325C228.537 56.2558 228.943 57.2369 228.943 58.2598V61.589H147.977V58.2598C147.977 57.2369 148.383 56.2558 149.107 55.5325C149.83 54.8092 150.811 54.4028 151.834 54.4028Z" fill="white"/>
<path d="M228.943 62.0559H147.977C147.855 62.0532 147.739 62.0029 147.653 61.9156C147.568 61.8283 147.52 61.7111 147.52 61.589V58.2598C147.523 57.1165 147.978 56.0209 148.787 55.2125C149.595 54.4041 150.691 53.9487 151.834 53.946H225.086C226.228 53.9514 227.321 54.4079 228.127 55.216C228.933 56.0242 229.387 57.1183 229.39 58.2598V61.589C229.39 61.7094 229.344 61.8252 229.261 61.9122C229.177 61.9992 229.064 62.0507 228.943 62.0559ZM148.444 61.1221H228.487V58.2598C228.484 57.3598 228.125 56.4975 227.487 55.862C226.85 55.2265 225.986 54.8697 225.086 54.8697H151.834C150.936 54.8724 150.075 55.2304 149.44 55.8656C148.804 56.5008 148.446 57.3615 148.444 58.2598V61.1221Z" fill="#231F20"/>
<path d="M167.911 81.6962C170.793 81.6962 173.129 79.3604 173.129 76.4791C173.129 73.5977 170.793 71.262 167.911 71.262C165.03 71.262 162.694 73.5977 162.694 76.4791C162.694 79.3604 165.03 81.6962 167.911 81.6962Z" fill="#3D9BFB"/>
<path d="M158.431 92.2522C158.512 89.7903 159.547 87.4561 161.317 85.7431C163.087 84.03 165.453 83.0723 167.917 83.0723C170.38 83.0723 172.747 84.03 174.517 85.7431C176.287 87.4561 177.321 89.7903 177.402 92.2522H158.431Z" fill="#3D9BFB"/>
<path d="M209.009 81.6962C211.89 81.6962 214.226 79.3604 214.226 76.4791C214.226 73.5977 211.89 71.262 209.009 71.262C206.127 71.262 203.792 73.5977 203.792 76.4791C203.792 79.3604 206.127 81.6962 209.009 81.6962Z" fill="#3D9BFB"/>
<path d="M199.529 92.2522C199.609 89.7903 200.644 87.4561 202.414 85.7431C204.184 84.03 206.551 83.0723 209.014 83.0723C211.477 83.0723 213.844 84.03 215.614 85.7431C217.384 87.4561 218.419 89.7903 218.499 92.2522H199.529Z" fill="#3D9BFB"/>
<path d="M197.367 76.9461H185.187C185.063 76.9461 184.944 76.8969 184.857 76.8094C184.769 76.7218 184.72 76.603 184.72 76.4792C184.72 76.3554 184.769 76.2366 184.857 76.1491C184.944 76.0615 185.063 76.0123 185.187 76.0123H196.291L193.865 73.4647C193.822 73.4222 193.788 73.3716 193.765 73.3158C193.741 73.2601 193.729 73.2003 193.729 73.1399C193.729 73.0794 193.741 73.0196 193.765 72.9639C193.788 72.9081 193.822 72.8575 193.865 72.8151C193.954 72.7301 194.072 72.6826 194.195 72.6826C194.318 72.6826 194.436 72.7301 194.525 72.8151L197.692 76.1544C197.755 76.2184 197.798 76.3001 197.814 76.3889C197.831 76.4777 197.82 76.5693 197.783 76.6518C197.75 76.7359 197.692 76.8085 197.619 76.8607C197.545 76.913 197.457 76.9426 197.367 76.9461Z" fill="#231F20"/>
<path d="M194.322 79.92C194.196 79.9188 194.075 79.8677 193.987 79.7779C193.899 79.6904 193.85 79.5718 193.85 79.4481C193.85 79.3244 193.899 79.2057 193.987 79.1182L197.032 76.1544C197.122 76.0736 197.239 76.0308 197.36 76.0349C197.481 76.0391 197.595 76.0898 197.679 76.1765C197.763 76.2632 197.81 76.3792 197.811 76.5C197.811 76.6207 197.765 76.737 197.681 76.8243L194.636 79.7881C194.552 79.8702 194.44 79.9173 194.322 79.92Z" fill="#231F20"/>
<path d="M191.591 80.8539H179.411C179.321 80.8554 179.233 80.8302 179.157 80.7814C179.081 80.7327 179.021 80.6625 178.985 80.5798C178.949 80.4956 178.938 80.4026 178.954 80.3123C178.971 80.2221 179.013 80.1386 179.076 80.0723L182.243 76.7432C182.285 76.6966 182.335 76.6588 182.391 76.6321C182.448 76.6053 182.509 76.5901 182.571 76.5874C182.634 76.5846 182.696 76.5944 182.754 76.6161C182.813 76.6378 182.866 76.671 182.912 76.7137C182.957 76.7564 182.993 76.8078 183.019 76.8648C183.044 76.9218 183.058 76.9833 183.059 77.0457C183.06 77.108 183.048 77.17 183.025 77.2278C183.002 77.2857 182.967 77.3383 182.923 77.3826L180.487 79.9201H191.591C191.714 79.9227 191.832 79.9727 191.919 80.0597C192.006 80.1467 192.056 80.264 192.058 80.387C192.058 80.5108 192.009 80.6296 191.922 80.7171C191.834 80.8047 191.715 80.8539 191.591 80.8539Z" fill="#231F20"/>
<path d="M182.446 83.8176C182.388 83.8185 182.329 83.8072 182.275 83.7845C182.221 83.7618 182.172 83.7281 182.132 83.6857L179.087 80.732C179.002 80.6432 178.954 80.5251 178.954 80.4021C178.954 80.2792 179.002 80.1611 179.087 80.0723C179.174 79.9849 179.293 79.9358 179.416 79.9358C179.54 79.9358 179.659 79.9849 179.746 80.0723L182.791 83.0361C182.834 83.0785 182.868 83.1291 182.892 83.1849C182.915 83.2406 182.927 83.3004 182.927 83.3609C182.927 83.4213 182.915 83.4811 182.892 83.5369C182.868 83.5926 182.834 83.6432 182.791 83.6857C182.745 83.7295 182.691 83.7637 182.632 83.7864C182.573 83.8091 182.51 83.8197 182.446 83.8176Z" fill="#231F20"/>
<path d="M212.602 98.3929H164.318C164.184 98.3929 164.055 98.3395 163.96 98.2443C163.864 98.1491 163.811 98.02 163.811 97.8854C163.813 97.7516 163.868 97.6241 163.962 97.5295C164.057 97.4348 164.185 97.3805 164.318 97.3779H212.602C212.737 97.3779 212.866 97.4314 212.961 97.5266C213.056 97.6217 213.109 97.7508 213.109 97.8854C213.109 98.02 213.056 98.1491 212.961 98.2443C212.866 98.3395 212.737 98.3929 212.602 98.3929Z" fill="#D1D3D4"/>
<path d="M212.602 101.824H164.318C164.184 101.824 164.055 101.77 163.96 101.675C163.864 101.58 163.811 101.451 163.811 101.316C163.813 101.182 163.868 101.055 163.962 100.96C164.057 100.865 164.185 100.811 164.318 100.809H212.602C212.737 100.809 212.866 100.862 212.961 100.957C213.056 101.052 213.109 101.181 213.109 101.316C213.109 101.451 213.056 101.58 212.961 101.675C212.866 101.77 212.737 101.824 212.602 101.824Z" fill="#D1D3D4"/>
<path d="M207.639 105.295H164.318C164.184 105.295 164.055 105.242 163.96 105.146C163.864 105.051 163.811 104.922 163.811 104.788C163.813 104.654 163.868 104.526 163.962 104.432C164.057 104.337 164.185 104.283 164.318 104.28H207.639C207.772 104.283 207.9 104.337 207.995 104.432C208.089 104.526 208.143 104.654 208.146 104.788C208.146 104.922 208.093 105.051 207.997 105.146C207.902 105.242 207.773 105.295 207.639 105.295Z" fill="#D1D3D4"/>
<path d="M153.671 59.2342C154.355 59.2342 154.909 58.6798 154.909 57.9959C154.909 57.312 154.355 56.7576 153.671 56.7576C152.987 56.7576 152.433 57.312 152.433 57.9959C152.433 58.6798 152.987 59.2342 153.671 59.2342Z" fill="#3D9BFB"/>
<path d="M158.035 59.2342C158.719 59.2342 159.274 58.6798 159.274 57.9959C159.274 57.312 158.719 56.7576 158.035 56.7576C157.352 56.7576 156.797 57.312 156.797 57.9959C156.797 58.6798 157.352 59.2342 158.035 59.2342Z" fill="#D1D3D4"/>
<path d="M162.4 59.2342C163.084 59.2342 163.638 58.6798 163.638 57.9959C163.638 57.312 163.084 56.7576 162.4 56.7576C161.716 56.7576 161.162 57.312 161.162 57.9959C161.162 58.6798 161.716 59.2342 162.4 59.2342Z" fill="#D1D3D4"/>
<path d="M241.479 56.9504H345.963V180.253C345.963 181.599 345.428 182.889 344.476 183.841C343.525 184.793 342.234 185.328 340.888 185.328H246.543C245.198 185.328 243.907 184.793 242.955 183.841C242.003 182.889 241.468 181.599 241.468 180.253V56.9504H241.479Z" fill="white"/>
<path d="M340.888 185.835H246.493C245.014 185.833 243.597 185.243 242.552 184.197C241.507 183.15 240.92 181.732 240.92 180.253V56.9506C240.92 56.816 240.974 56.6869 241.069 56.5918C241.164 56.4966 241.293 56.4431 241.428 56.4431H345.963C346.097 56.4431 346.226 56.4966 346.322 56.5918C346.417 56.6869 346.47 56.816 346.47 56.9506V180.253C346.468 181.733 345.879 183.151 344.832 184.197C343.786 185.244 342.367 185.833 340.888 185.835ZM241.986 57.4581V180.273C241.986 181.483 242.466 182.643 243.32 183.499C244.175 184.356 245.334 184.838 246.543 184.841H340.938C342.149 184.838 343.309 184.356 344.165 183.5C345.021 182.644 345.503 181.484 345.506 180.273V57.4581H241.986Z" fill="#231F20"/>
<path d="M324.658 175.168H262.743C261.441 175.157 260.196 174.637 259.274 173.718C258.351 172.8 257.826 171.556 257.81 170.255V167.311C257.813 165.996 258.336 164.735 259.267 163.805C260.197 162.875 261.458 162.351 262.773 162.348H324.688C326.005 162.348 327.267 162.871 328.198 163.802C329.129 164.733 329.652 165.995 329.652 167.311V170.255C329.638 171.568 329.105 172.822 328.169 173.743C327.233 174.663 325.971 175.176 324.658 175.168ZM262.743 163.363C261.701 163.371 260.705 163.791 259.971 164.53C259.237 165.27 258.825 166.27 258.825 167.311V170.255C258.828 171.3 259.245 172.302 259.985 173.04C260.725 173.779 261.728 174.193 262.773 174.193H324.688C325.734 174.193 326.737 173.779 327.477 173.04C328.217 172.302 328.634 171.3 328.637 170.255V167.311C328.637 166.264 328.221 165.26 327.48 164.52C326.74 163.779 325.736 163.363 324.688 163.363H262.743Z" fill="#231F20"/>
<path d="M264.702 90.74H256.419V150.432H264.702V90.74Z" fill="#3D9BFB"/>
<path d="M279.988 104.716H271.705V150.422H279.988V104.716Z" fill="#3D9BFB"/>
<path d="M295.263 95.6118H286.981V150.432H295.263V95.6118Z" fill="#3D9BFB"/>
<path d="M310.549 112.126H302.267V150.422H310.549V112.126Z" fill="#3D9BFB"/>
<path d="M325.835 95.6118H317.553V150.432H325.835V95.6118Z" fill="#3D9BFB"/>
<path d="M325.642 67.7401H311.605C311.47 67.7401 311.341 67.6866 311.246 67.5915C311.151 67.4963 311.098 67.3672 311.098 67.2326C311.098 67.098 311.151 66.9689 311.246 66.8737C311.341 66.7786 311.47 66.7251 311.605 66.7251H325.622C325.756 66.7277 325.884 66.782 325.978 66.8766C326.073 66.9712 326.127 67.0988 326.13 67.2326C326.13 67.3638 326.079 67.4898 325.988 67.5845C325.897 67.6791 325.773 67.7349 325.642 67.7401Z" fill="#231F20"/>
<path d="M320.74 72.9671H311.605C311.47 72.9671 311.341 72.9137 311.246 72.8185C311.151 72.7233 311.098 72.5942 311.098 72.4596C311.098 72.3251 311.151 72.196 311.246 72.1008C311.341 72.0056 311.47 71.9521 311.605 71.9521H320.74C320.875 71.9521 321.004 72.0056 321.099 72.1008C321.194 72.196 321.248 72.3251 321.248 72.4596C321.248 72.5942 321.194 72.7233 321.099 72.8185C321.004 72.9137 320.875 72.9671 320.74 72.9671Z" fill="#231F20"/>
<path d="M307.433 96.2311C303.008 96.2311 299.151 91.2982 296.045 87.3194C294.015 84.7413 292.117 82.2444 290.848 82.2444C289.407 82.2444 287.418 83.432 285.317 84.65C282.454 86.3044 279.227 88.1822 276.182 88.0096C270.487 87.7051 259.789 75.1394 259.343 74.6015C259.301 74.5538 259.269 74.4982 259.248 74.438C259.228 74.3778 259.22 74.3141 259.225 74.2508C259.23 74.1874 259.247 74.1257 259.276 74.0691C259.305 74.0126 259.345 73.9624 259.393 73.9214C259.486 73.8321 259.61 73.7822 259.738 73.7822C259.867 73.7822 259.991 73.8321 260.084 73.9214C260.185 74.0534 270.954 86.7104 276.232 86.9946C279.013 87.157 282.119 85.3503 284.86 83.7568C287.072 82.4779 289.163 81.27 290.848 81.2193C292.533 81.1685 294.492 83.5741 296.867 86.6292C299.912 90.5167 303.668 95.3481 307.738 95.1552C311.26 94.9827 312.945 91.9174 314.731 88.6694C316.518 85.4214 318.213 82.3155 321.775 81.6354C321.896 81.6259 322.015 81.6614 322.111 81.7351C322.207 81.8088 322.272 81.9155 322.293 82.0344C322.315 82.1533 322.291 82.276 322.228 82.3785C322.164 82.4811 322.064 82.5563 321.948 82.5895C318.842 83.1782 317.259 86.071 315.574 89.1363C313.747 92.4756 311.849 95.9266 307.789 96.1296L307.433 96.2311Z" fill="#D1D3D4"/>
<path d="M332.92 150.909H249.69C249.626 150.909 249.564 150.897 249.505 150.872C249.447 150.847 249.393 150.811 249.349 150.766C249.305 150.721 249.27 150.667 249.246 150.608C249.223 150.549 249.212 150.485 249.213 150.422C249.218 150.298 249.27 150.181 249.359 150.094C249.448 150.007 249.566 149.958 249.69 149.955H332.92C333.049 149.955 333.173 150.006 333.264 150.098C333.356 150.189 333.407 150.313 333.407 150.442C333.406 150.505 333.392 150.567 333.367 150.624C333.342 150.681 333.306 150.733 333.26 150.777C333.215 150.82 333.162 150.854 333.103 150.877C333.045 150.9 332.983 150.911 332.92 150.909Z" fill="#D1D3D4"/>
<path d="M259.84 76.1544C259.471 76.1544 259.11 76.0449 258.802 75.8396C258.495 75.6344 258.256 75.3427 258.115 75.0015C257.973 74.6602 257.936 74.2847 258.008 73.9224C258.08 73.5602 258.258 73.2274 258.519 72.9662C258.781 72.705 259.113 72.5271 259.476 72.4551C259.838 72.383 260.213 72.42 260.555 72.5614C260.896 72.7027 261.188 72.9421 261.393 73.2492C261.598 73.5563 261.708 73.9174 261.708 74.2868C261.708 74.7821 261.511 75.2571 261.161 75.6074C260.81 75.9576 260.335 76.1544 259.84 76.1544ZM259.84 73.3936C259.661 73.3936 259.486 73.4469 259.337 73.5466C259.188 73.6463 259.073 73.788 259.004 73.9536C258.936 74.1193 258.919 74.3014 258.955 74.4769C258.991 74.6524 259.078 74.8134 259.205 74.9393C259.332 75.0652 259.494 75.1504 259.67 75.1842C259.846 75.2179 260.028 75.1985 260.193 75.1286C260.358 75.0586 260.498 74.9413 260.596 74.7914C260.694 74.6415 260.745 74.4659 260.743 74.2868C260.743 74.1686 260.72 74.0517 260.674 73.9426C260.629 73.8336 260.562 73.7347 260.478 73.6516C260.394 73.5685 260.294 73.5029 260.185 73.4586C260.075 73.4144 259.958 73.3922 259.84 73.3936Z" fill="#D1D3D4"/>
<path d="M321.755 84.0814C321.386 84.0794 321.026 83.9681 320.72 83.7617C320.414 83.5553 320.177 83.2629 320.037 82.9215C319.897 82.58 319.861 82.2048 319.935 81.8432C320.008 81.4816 320.187 81.1498 320.448 80.8896C320.71 80.6294 321.042 80.4526 321.404 80.3813C321.766 80.3101 322.141 80.3477 322.482 80.4893C322.823 80.631 323.114 80.8703 323.319 81.1772C323.523 81.4841 323.633 81.8448 323.633 82.2138C323.63 82.71 323.431 83.185 323.079 83.535C322.727 83.8849 322.251 84.0814 321.755 84.0814ZM321.755 81.3104C321.576 81.3104 321.402 81.3634 321.253 81.4627C321.105 81.5619 320.989 81.703 320.92 81.8681C320.852 82.0331 320.834 82.2148 320.869 82.39C320.904 82.5652 320.99 82.7262 321.116 82.8525C321.243 82.9789 321.403 83.0649 321.579 83.0998C321.754 83.1346 321.936 83.1167 322.101 83.0483C322.266 82.98 322.407 82.8642 322.506 82.7156C322.605 82.5671 322.658 82.3924 322.658 82.2138C322.658 81.9742 322.563 81.7444 322.394 81.575C322.224 81.4056 321.995 81.3104 321.755 81.3104Z" fill="#D1D3D4"/>
<path d="M246.543 46.425H340.888C342.234 46.425 343.525 46.9597 344.476 47.9115C345.428 48.8632 345.963 50.1541 345.963 51.5V56.9303H241.479V51.5C241.479 50.1558 242.012 48.8665 242.961 47.9151C243.911 46.9636 245.199 46.4277 246.543 46.425Z" fill="white"/>
<path d="M345.963 57.458H241.479C241.344 57.458 241.215 57.4046 241.12 57.3094C241.025 57.2142 240.971 57.0851 240.971 56.9505V51.5C240.971 50.0212 241.558 48.6028 242.603 47.5561C243.647 46.5095 245.065 45.9202 246.543 45.9175H340.938C342.418 45.9202 343.837 46.5092 344.883 47.5555C345.929 48.6019 346.518 50.0202 346.521 51.5V56.9302C346.524 57.0031 346.512 57.0757 346.485 57.1433C346.457 57.2109 346.416 57.2718 346.363 57.3219C346.31 57.372 346.247 57.4101 346.178 57.4336C346.109 57.457 346.035 57.4654 345.963 57.458ZM241.986 56.443H345.455V51.5C345.453 50.2894 344.97 49.1292 344.114 48.2732C343.258 47.4172 342.098 46.9352 340.888 46.9325H246.493C245.283 46.9352 244.124 47.4176 243.27 48.2739C242.415 49.1301 241.935 50.2904 241.935 51.5L241.986 56.443Z" fill="#231F20"/>
<path d="M133.665 109.182H63.7623C61.705 109.182 60.0373 110.85 60.0373 112.907V200.502C60.0373 202.559 61.705 204.227 63.7623 204.227H133.665C135.723 204.227 137.39 202.559 137.39 200.502V112.907C137.39 110.85 135.723 109.182 133.665 109.182Z" fill="white"/>
<path d="M133.665 204.765H63.7623C62.6398 204.765 61.5632 204.319 60.7694 203.525C59.9757 202.732 59.5298 201.655 59.5298 200.533V112.908C59.5324 111.786 59.9792 110.711 60.7724 109.918C61.5656 109.125 62.6406 108.678 63.7623 108.675H133.665C134.787 108.678 135.862 109.125 136.655 109.918C137.448 110.711 137.895 111.786 137.898 112.908V200.502C137.902 201.06 137.795 201.614 137.584 202.131C137.374 202.648 137.062 203.118 136.669 203.515C136.276 203.911 135.808 204.225 135.292 204.44C134.777 204.655 134.224 204.765 133.665 204.765ZM63.7623 109.69C62.9098 109.693 62.0929 110.033 61.4901 110.635C60.8873 111.238 60.5474 112.055 60.5448 112.908V200.502C60.5407 200.927 60.621 201.349 60.7809 201.743C60.9408 202.137 61.1771 202.495 61.4763 202.797C61.7755 203.099 62.1316 203.339 62.5239 203.502C62.9163 203.666 63.3372 203.75 63.7623 203.75H133.665C134.519 203.75 135.337 203.411 135.941 202.808C136.544 202.204 136.883 201.386 136.883 200.533V112.908C136.88 112.055 136.54 111.238 135.938 110.635C135.335 110.033 134.518 109.693 133.665 109.69H63.7623Z" fill="#231F20"/>
<path d="M117.892 184.15H76.2062C76.0716 184.15 75.9425 184.097 75.8473 184.002C75.7522 183.906 75.6987 183.777 75.6987 183.643C75.7013 183.509 75.7556 183.381 75.8502 183.287C75.9448 183.192 76.0724 183.138 76.2062 183.135H117.892C118.027 183.135 118.156 183.189 118.251 183.284C118.346 183.379 118.4 183.508 118.4 183.643C118.4 183.777 118.346 183.906 118.251 184.002C118.156 184.097 118.027 184.15 117.892 184.15Z" fill="#D1D3D4"/>
<path d="M97.7648 190.961H76.2062C76.0724 190.958 75.9448 190.904 75.8502 190.81C75.7556 190.715 75.7013 190.587 75.6987 190.454C75.6987 190.319 75.7522 190.19 75.8473 190.095C75.9425 190 76.0716 189.946 76.2062 189.946H97.7648C97.8994 189.946 98.0285 190 98.1237 190.095C98.2188 190.19 98.2723 190.319 98.2723 190.454C98.2697 190.587 98.2154 190.715 98.1208 190.81C98.0262 190.904 97.8986 190.958 97.7648 190.961Z" fill="#D1D3D4"/>
<path d="M78.7843 130.579C84.8743 136.669 90.9406 142.738 96.9832 148.788C97.0757 148.888 97.189 148.968 97.3152 149.02C97.4414 149.073 97.5774 149.097 97.714 149.092H125.596C125.443 153.399 124.258 157.606 122.139 161.359C120.02 165.111 117.03 168.3 113.421 170.655C109.812 173.011 105.69 174.464 101.402 174.893C97.1141 175.322 92.7857 174.714 88.7818 173.12C84.7778 171.526 81.2156 168.994 78.3954 165.735C75.5751 162.476 73.5794 158.588 72.5765 154.397C71.5736 150.205 71.5928 145.835 72.6326 141.652C73.6723 137.47 75.7021 133.599 78.5508 130.365L78.7843 130.579Z" fill="#3D9BFB"/>
<path d="M99.6832 121.21V147.174H99.9471L125.078 147.113C125.637 147.113 125.637 147.113 125.596 146.555C125.279 141.617 123.617 136.859 120.791 132.798C117.964 128.737 114.08 125.526 109.559 123.514C106.8 122.309 103.861 121.565 100.861 121.312L99.6832 121.21Z" fill="#D1D3D4"/>
<path d="M97.7648 146.829V121.23C94.746 121.387 91.7701 122.014 88.9445 123.088C85.5644 124.425 82.481 126.415 79.8704 128.944L97.7648 146.829Z" fill="#D1D3D4"/>
<path d="M178.335 133.005C172.357 131.208 169.201 124.215 167.607 118.652C165.821 112.329 163.719 107.152 166.267 100.565C166.846 99.0528 167.779 97.5201 169.312 97.0329C169.695 96.9778 170.063 96.8504 170.398 96.6574C170.665 96.3942 170.863 96.0703 170.977 95.7134C174.61 87.1468 184.892 86.9134 192.606 88.1212C197.072 88.8216 202.868 90.8617 204.259 95.4495C206.806 103.904 204.654 113.1 199.965 120.408C195.58 127.28 187.288 135.745 178.335 133.005Z" fill="white"/>
<path d="M181.756 134.019C180.549 134.023 179.348 133.845 178.193 133.492C171.951 131.614 168.723 124.468 167.12 118.794C166.917 118.074 166.714 117.363 166.501 116.663C164.877 111.151 163.456 106.381 165.79 100.423C166.612 98.2813 167.769 96.9922 169.2 96.5862L169.505 96.5152C169.753 96.5173 169.993 96.4286 170.18 96.266C170.367 96.1033 170.488 95.8778 170.52 95.6321C174.306 86.7407 184.73 86.3956 192.728 87.6644C195.773 88.1414 203.142 89.8568 204.797 95.3479C207.212 103.387 205.629 112.603 200.442 120.723C196.047 127.493 189.125 134.019 181.756 134.019ZM186.263 88.1008C180.173 88.1008 174.083 89.8263 171.474 95.9062C171.338 96.3472 171.086 96.7434 170.743 97.0531C170.441 97.2655 170.094 97.4045 169.728 97.4591L169.475 97.5302C168.368 97.8347 167.445 98.9207 166.734 100.748C164.542 106.422 165.902 111.04 167.475 116.379C167.688 117.079 167.891 117.79 168.104 118.52C169.637 123.94 172.682 130.782 178.488 132.527C186.608 134.953 194.728 127.716 199.569 120.134C204.594 112.298 206.136 103.356 203.802 95.5915C202.31 90.6586 195.438 89.0752 192.556 88.6286C190.475 88.2908 188.371 88.1143 186.263 88.1008Z" fill="#231F20"/>
<path d="M205.497 115.892C205.497 115.892 211.902 123.9 210.897 125.778C209.892 127.655 205.913 126.793 205.913 126.793" fill="white"/>
<path d="M207.811 127.534C207.129 127.534 206.449 127.466 205.781 127.331C205.647 127.304 205.528 127.224 205.452 127.11C205.376 126.996 205.348 126.856 205.375 126.722C205.402 126.587 205.481 126.469 205.596 126.392C205.71 126.316 205.85 126.289 205.984 126.316C206.999 126.519 209.75 126.782 210.42 125.524C210.947 124.509 208.045 119.911 205.071 116.186C204.986 116.08 204.946 115.946 204.959 115.811C204.972 115.676 205.038 115.552 205.142 115.465C205.249 115.384 205.384 115.347 205.518 115.362C205.652 115.378 205.775 115.443 205.862 115.546C207.415 117.495 212.399 123.981 211.313 126.001C210.684 127.249 209.09 127.534 207.811 127.534Z" fill="#231F20"/>
<path d="M203.264 104.726C207.121 107.325 206.644 113.618 206.979 117.647C207.446 123.311 207.784 128.988 207.994 134.679C208.126 138.282 198.859 139.206 197.103 138.282L199.843 152.34L179.655 146.616L178.792 130.183C178.792 130.183 184.882 129.665 187.927 122.063C190.972 114.46 189.724 103.184 189.724 103.184C189.724 103.184 199.498 102.179 203.264 104.726Z" fill="white"/>
<path d="M199.843 152.848H199.701L179.493 147.123C179.39 147.096 179.299 147.037 179.231 146.955C179.164 146.873 179.124 146.772 179.117 146.666L178.254 130.223C178.248 130.094 178.293 129.967 178.378 129.868C178.462 129.77 178.582 129.708 178.711 129.696C178.955 129.696 184.588 129.097 187.399 121.86C190.292 114.41 189.176 103.326 189.166 103.214C189.157 103.08 189.197 102.947 189.277 102.839C189.32 102.787 189.372 102.744 189.431 102.713C189.491 102.681 189.556 102.662 189.622 102.656C190.028 102.656 199.681 101.712 203.548 104.321C206.969 106.635 207.182 111.507 207.354 115.486C207.354 116.257 207.425 116.998 207.486 117.678C207.953 123.342 208.298 129.076 208.501 134.73C208.497 135.303 208.331 135.864 208.022 136.347C207.713 136.83 207.274 137.216 206.755 137.46C204.391 138.942 199.925 139.44 197.752 139.074L200.341 152.269C200.357 152.355 200.351 152.444 200.325 152.527C200.298 152.61 200.251 152.685 200.188 152.746C200.088 152.817 199.966 152.853 199.843 152.848ZM180.112 146.23L199.184 151.63L196.605 138.384C196.584 138.29 196.59 138.191 196.625 138.101C196.659 138.01 196.719 137.932 196.798 137.876C196.879 137.827 196.972 137.801 197.067 137.801C197.162 137.801 197.255 137.827 197.336 137.876C198.463 138.475 203.68 138.161 206.218 136.577C207.09 136.029 207.517 135.41 207.486 134.74C207.283 129.097 206.938 123.372 206.471 117.729C206.41 117.038 206.38 116.287 206.339 115.496C206.177 111.801 205.974 107.203 202.98 105.183C199.935 103.092 192.251 103.498 190.221 103.64C190.414 105.965 191.003 115.414 188.343 122.245C185.684 129.076 180.863 130.365 179.29 130.66L180.112 146.23Z" fill="#231F20"/>
<path d="M207.476 130.467C207.476 130.467 201.914 130.467 200.584 122.956L207.476 130.467Z" fill="white"/>
<path d="M207.476 130.975C207.415 130.975 201.467 130.883 200.077 123.047C200.056 122.914 200.088 122.779 200.166 122.669C200.243 122.559 200.361 122.483 200.493 122.459C200.625 122.435 200.761 122.464 200.871 122.54C200.981 122.616 201.057 122.733 201.082 122.865C202.31 129.848 207.273 129.97 207.476 129.97C207.611 129.97 207.74 130.023 207.835 130.118C207.93 130.214 207.984 130.343 207.984 130.477C207.981 130.61 207.926 130.737 207.831 130.83C207.737 130.923 207.609 130.975 207.476 130.975Z" fill="#231F20"/>
<path d="M194.961 120.52C194.672 119.12 194.001 117.827 193.023 116.785C192.381 115.88 191.608 115.076 190.729 114.399C190.288 114.063 189.778 113.829 189.235 113.715C188.692 113.601 188.131 113.609 187.592 113.74C187.136 113.906 186.719 114.166 186.369 114.504C186.02 114.841 185.745 115.248 185.562 115.699C185.198 116.61 185.042 117.592 185.106 118.571C185.201 120.713 185.861 122.792 187.018 124.597C188.174 126.403 189.787 127.871 191.693 128.853L191.358 128.538" fill="white"/>
<path d="M191.662 129.34C191.584 129.339 191.507 129.318 191.439 129.28C189.458 128.25 187.782 126.72 186.576 124.841C185.37 122.963 184.678 120.801 184.568 118.571C184.505 117.532 184.675 116.492 185.065 115.526C185.281 115.005 185.605 114.535 186.016 114.148C186.427 113.761 186.916 113.466 187.45 113.283C188.062 113.129 188.701 113.114 189.32 113.241C189.939 113.367 190.521 113.632 191.023 114.014C191.944 114.715 192.752 115.554 193.418 116.501C194.457 117.617 195.161 119.003 195.448 120.5C195.463 120.633 195.424 120.766 195.34 120.871C195.256 120.975 195.135 121.043 195.002 121.058C194.869 121.072 194.735 121.033 194.631 120.95C194.526 120.866 194.459 120.744 194.444 120.611C194.158 119.303 193.523 118.097 192.606 117.12C191.998 116.26 191.266 115.494 190.434 114.846C190.056 114.554 189.617 114.35 189.151 114.248C188.684 114.147 188.2 114.15 187.734 114.258C187.341 114.399 186.982 114.623 186.681 114.913C186.38 115.204 186.144 115.554 185.989 115.942C185.653 116.783 185.511 117.688 185.572 118.592C185.669 120.514 186.237 122.384 187.224 124.037C188.211 125.69 189.589 127.075 191.236 128.072C191.31 128.057 191.387 128.06 191.459 128.081C191.532 128.103 191.598 128.141 191.652 128.193L191.997 128.498C192.077 128.566 192.134 128.658 192.16 128.76C192.186 128.861 192.179 128.969 192.141 129.067C192.103 129.165 192.036 129.249 191.948 129.307C191.861 129.365 191.757 129.394 191.652 129.391L191.662 129.34Z" fill="#231F20"/>
<path d="M197.103 138.283C197.103 138.283 192.14 137.268 189.602 134.121C189.602 134.121 190.495 141.632 198.108 143.459L197.103 138.283Z" fill="#231F20"/>
<path d="M198.108 143.966H197.986C190.12 142.089 189.105 134.283 189.095 134.202C189.081 134.093 189.104 133.983 189.159 133.887C189.214 133.792 189.298 133.718 189.399 133.674C189.499 133.63 189.611 133.62 189.717 133.645C189.824 133.671 189.919 133.731 189.988 133.816C192.393 136.75 197.154 137.795 197.204 137.805C197.303 137.826 197.394 137.876 197.464 137.948C197.535 138.02 197.582 138.112 197.6 138.211L198.615 143.378C198.63 143.452 198.629 143.528 198.611 143.601C198.593 143.674 198.559 143.742 198.511 143.8C198.463 143.859 198.403 143.906 198.335 143.938C198.267 143.97 198.193 143.987 198.118 143.987L198.108 143.966ZM190.495 135.725C190.989 137.377 191.883 138.883 193.097 140.108C194.312 141.333 195.81 142.24 197.458 142.748L196.666 138.688C194.428 138.143 192.327 137.141 190.495 135.745V135.725Z" fill="#231F20"/>
<path d="M202.718 112.328C202.804 111.21 202.516 110.277 202.075 110.242C201.633 110.208 201.205 111.087 201.119 112.205C201.032 113.322 201.32 114.256 201.762 114.29C202.203 114.324 202.631 113.446 202.718 112.328Z" fill="#231F20"/>
<path d="M149.093 180.243L138.679 198.513L111.559 170.681C111.559 170.681 113.751 158.857 110.828 159.801C108.981 160.458 107.375 161.657 106.22 163.241C106.22 163.241 103.814 147.001 97.4806 152.34C91.147 157.679 94.0601 167.058 98.861 176.071C102.424 182.76 134.082 231.551 142.861 229.592C151.641 227.633 172.489 183.318 172.489 183.318L149.093 180.243Z" fill="white"/>
<path d="M142.374 230.14C132.397 230.14 101.591 182.273 98.4144 176.345C94.4153 168.824 89.929 158.075 97.1558 151.985C98.4956 150.848 99.7948 150.503 101.023 150.97C104.352 152.229 105.996 159.303 106.524 162.135C107.65 160.88 109.079 159.936 110.676 159.394C110.891 159.31 111.126 159.287 111.353 159.328C111.581 159.37 111.792 159.473 111.965 159.628C113.66 161.12 112.472 168.519 112.107 170.59L138.568 197.66L148.657 179.968C148.707 179.88 148.781 179.809 148.872 179.764C148.962 179.719 149.064 179.702 149.164 179.715L172.509 182.76C172.589 182.769 172.665 182.799 172.73 182.845C172.796 182.891 172.849 182.952 172.885 183.024C172.92 183.095 172.938 183.173 172.938 183.252C172.938 183.331 172.92 183.409 172.885 183.48C172.022 185.297 151.814 228.049 142.902 230.028C142.73 230.082 142.553 230.119 142.374 230.14ZM99.9369 151.751C99.1285 151.826 98.3729 152.186 97.8054 152.766C92.7304 157.07 93.2074 164.419 99.3177 175.878C103.185 183.145 134.599 230.942 142.75 229.145C150.626 227.389 169.14 189.175 171.738 183.775L149.408 180.831L139.156 198.807C139.117 198.875 139.063 198.933 138.998 198.977C138.933 199.021 138.859 199.05 138.781 199.061C138.703 199.072 138.623 199.064 138.549 199.037C138.475 199.01 138.408 198.966 138.355 198.908L111.234 171.077C111.178 171.018 111.138 170.947 111.115 170.869C111.092 170.792 111.087 170.71 111.102 170.63C111.792 166.885 112.33 161.232 111.335 160.359C111.335 160.359 111.224 160.267 111.021 160.359C109.286 160.987 107.774 162.113 106.676 163.597C106.617 163.681 106.535 163.745 106.439 163.783C106.344 163.821 106.239 163.83 106.139 163.81C106.04 163.787 105.951 163.735 105.882 163.661C105.813 163.586 105.768 163.493 105.753 163.394C105.337 160.582 103.631 153.061 100.678 151.965C100.447 151.847 100.195 151.775 99.9369 151.751Z" fill="#231F20"/>
<path d="M228.426 172.052C228.426 172.052 249.416 166.611 257.282 161.993C265.91 156.918 282.16 124.864 287.438 116.896C290.303 112.497 292.432 107.659 293.741 102.575C294.35 100.301 294.634 98.6569 293.497 96.4848C293.264 96.0281 289.539 91.9478 289.366 92.4248C290.381 89.5727 291.396 86.8626 292.472 84.0409C292.756 83.2594 292.97 82.2748 292.371 81.7064C292.108 81.5015 291.785 81.3901 291.452 81.3901C291.119 81.3901 290.796 81.5015 290.534 81.7064C290.004 82.1121 289.574 82.6327 289.275 83.2289L280.647 98.19C280.717 96.3427 280.345 94.5054 279.561 92.8308C279.438 92.4947 279.215 92.2043 278.922 91.9985C277.978 91.4707 277.065 92.7598 276.77 93.7951C275.238 99.1949 276.344 105.701 273.035 110.482C270.518 114.115 248.157 140.932 248.157 140.932L228.426 146.007" fill="white"/>
<path d="M228.426 172.559C228.291 172.576 228.155 172.54 228.048 172.457C227.94 172.374 227.87 172.252 227.852 172.117C227.835 171.983 227.871 171.847 227.954 171.739C228.037 171.632 228.159 171.561 228.294 171.544C228.507 171.493 249.314 166.083 257.028 161.546C263.271 157.872 273.877 139.287 280.901 126.985C283.439 122.55 285.621 118.713 286.991 116.612C289.822 112.244 291.923 107.445 293.213 102.402C293.792 100.271 294.096 98.7177 293.01 96.6369C291.925 95.2759 290.715 94.0186 289.397 92.8814C289.323 92.8965 289.247 92.8965 289.173 92.8814C289.047 92.8354 288.943 92.7418 288.884 92.6205C288.826 92.4992 288.816 92.3597 288.859 92.2318C289.478 90.4048 290.168 88.6083 290.828 86.8625C291.214 85.8475 291.589 84.8325 291.965 83.8175C292.34 82.8025 292.31 82.3254 291.965 82.0311C291.79 81.9017 291.578 81.8319 291.361 81.8319C291.143 81.8319 290.932 81.9017 290.757 82.0311C290.302 82.4075 289.935 82.8786 289.681 83.4115L281.023 98.403C280.968 98.5021 280.88 98.5793 280.775 98.6217C280.67 98.6642 280.553 98.6694 280.444 98.6365C280.357 98.5983 280.282 98.5361 280.228 98.4571C280.174 98.3781 280.144 98.2854 280.14 98.1899C280.199 96.4424 279.851 94.7052 279.125 93.1149C279.039 92.8779 278.888 92.6702 278.689 92.516C278.633 92.484 278.57 92.4671 278.506 92.4671C278.442 92.4671 278.379 92.484 278.323 92.516C277.804 92.8722 277.441 93.4132 277.308 94.0284C276.786 96.0922 276.446 98.198 276.293 100.321C275.958 103.975 275.603 107.761 273.451 110.857C270.954 114.481 249.457 140.211 248.543 141.307C248.475 141.388 248.382 141.445 248.279 141.469L228.548 146.544C228.417 146.576 228.28 146.555 228.164 146.487C228.049 146.419 227.964 146.308 227.928 146.179C227.912 146.114 227.908 146.047 227.917 145.981C227.926 145.915 227.949 145.851 227.983 145.794C228.016 145.736 228.061 145.686 228.115 145.646C228.168 145.606 228.229 145.576 228.294 145.56L247.873 140.485C249.528 138.455 270.203 113.689 272.619 110.238C274.649 107.355 274.953 103.701 275.288 100.179C275.43 97.9911 275.77 95.8202 276.303 93.6934C276.41 93.238 276.611 92.8098 276.892 92.4359C277.174 92.062 277.53 91.7505 277.937 91.5213C278.137 91.4364 278.354 91.3995 278.571 91.4136C278.788 91.4277 278.999 91.4924 279.186 91.6025C279.576 91.8359 279.876 92.1933 280.038 92.6175C280.599 93.8162 280.959 95.0985 281.104 96.4136L288.859 82.9649C289.198 82.2938 289.688 81.7103 290.29 81.2597C290.652 80.995 291.091 80.8575 291.539 80.8685C291.987 80.8795 292.418 81.0385 292.767 81.3206C293.396 81.9194 293.477 82.8938 292.99 84.2032C292.614 85.2182 292.229 86.2332 291.843 87.2482C291.244 88.8316 290.625 90.4657 290.046 92.1202C291.51 93.3187 292.831 94.6809 293.985 96.1802C295.233 98.5756 294.888 100.382 294.269 102.676C292.943 107.81 290.794 112.694 287.905 117.14C286.524 119.221 284.352 123.037 281.815 127.452C274.314 140.586 264.052 158.582 257.566 162.389C249.741 166.997 229.441 172.275 228.578 172.539L228.426 172.559Z" fill="#231F20"/>
<path d="M233.45 259.575L226.883 229.714L161.385 247.283C161.385 247.283 161.517 252.186 161.7 259.555L233.45 259.575Z" fill="#231F20"/>
<path d="M246.645 138.79C246.645 138.79 172.124 137.217 162.664 150.594C155.302 161.696 149.137 173.546 144.272 185.947L157.67 198.472C157.611 216.186 158.512 233.89 160.37 251.506C183.461 255.566 231.298 237.093 230.892 236.91L224.802 174.995L253.324 166.185L246.645 138.79Z" fill="#3D9BFB"/>
<path d="M156.797 193.823C156.731 193.821 156.665 193.805 156.604 193.777C156.544 193.749 156.489 193.709 156.444 193.66C156.399 193.611 156.364 193.554 156.341 193.491C156.318 193.429 156.307 193.362 156.31 193.295C156.31 192.179 157.193 165.758 160.817 156.522C160.84 156.459 160.876 156.402 160.922 156.353C160.969 156.304 161.024 156.266 161.086 156.239C161.147 156.213 161.214 156.199 161.281 156.198C161.348 156.198 161.415 156.212 161.476 156.238C161.539 156.26 161.596 156.295 161.645 156.34C161.693 156.386 161.732 156.44 161.759 156.501C161.785 156.562 161.799 156.628 161.799 156.694C161.8 156.761 161.787 156.826 161.761 156.887C158.208 165.961 157.335 193.062 157.325 193.326C157.32 193.461 157.261 193.589 157.163 193.682C157.064 193.775 156.933 193.826 156.797 193.823Z" fill="#231F20"/>
<path d="M214.601 178.162C214.491 178.164 214.384 178.129 214.295 178.062C214.207 177.996 214.143 177.903 214.114 177.796C214.08 177.666 214.098 177.527 214.164 177.41C214.23 177.292 214.34 177.205 214.469 177.167L235.531 171.179C235.665 171.141 235.809 171.158 235.931 171.227C236.053 171.295 236.143 171.41 236.18 171.544C236.218 171.679 236.201 171.823 236.132 171.945C236.064 172.066 235.95 172.156 235.815 172.194L214.744 178.182C214.695 178.185 214.647 178.179 214.601 178.162Z" fill="#231F20"/>
<path d="M296.938 249.263H260.104C259.593 249.264 259.087 249.164 258.615 248.969C258.142 248.775 257.713 248.488 257.352 248.127C256.991 247.766 256.705 247.337 256.51 246.864C256.315 246.392 256.215 245.886 256.216 245.375V204.684C256.216 204.173 256.317 203.668 256.512 203.196C256.708 202.725 256.994 202.296 257.355 201.935C257.716 201.574 258.145 201.288 258.616 201.092C259.088 200.897 259.593 200.796 260.104 200.796H292.584L300.785 208.795V245.335C300.79 245.845 300.695 246.352 300.505 246.825C300.314 247.299 300.032 247.731 299.675 248.095C299.318 248.46 298.892 248.751 298.423 248.951C297.953 249.152 297.449 249.257 296.938 249.263Z" fill="white"/>
<path d="M296.938 249.77H260.104C258.938 249.77 257.82 249.307 256.996 248.483C256.172 247.659 255.709 246.541 255.709 245.375V204.684C255.712 203.519 256.176 202.403 256.999 201.579C257.823 200.756 258.939 200.292 260.104 200.289H292.584C292.65 200.287 292.715 200.299 292.776 200.324C292.837 200.348 292.893 200.385 292.939 200.431L301.151 208.439C301.245 208.534 301.3 208.661 301.303 208.795V245.335C301.311 246.501 300.856 247.623 300.038 248.455C299.219 249.286 298.105 249.759 296.938 249.77ZM260.104 201.304C259.208 201.307 258.35 201.664 257.717 202.297C257.084 202.93 256.727 203.788 256.724 204.684V245.365C256.724 245.809 256.811 246.248 256.981 246.659C257.151 247.069 257.4 247.441 257.714 247.755C258.028 248.069 258.4 248.318 258.81 248.488C259.221 248.658 259.66 248.745 260.104 248.745H296.938C297.834 248.742 298.692 248.385 299.325 247.752C299.959 247.119 300.316 246.261 300.318 245.365V209.008L292.411 201.304H260.104Z" fill="#231F20"/>
<path d="M247.812 53.53C248.754 53.53 249.517 52.7666 249.517 51.8248C249.517 50.8831 248.754 50.1196 247.812 50.1196C246.87 50.1196 246.107 50.8831 246.107 51.8248C246.107 52.7666 246.87 53.53 247.812 53.53Z" fill="#3D9BFB"/>
<path d="M253.73 53.53C254.671 53.53 255.435 52.7666 255.435 51.8248C255.435 50.8831 254.671 50.1196 253.73 50.1196C252.788 50.1196 252.025 50.8831 252.025 51.8248C252.025 52.7666 252.788 53.53 253.73 53.53Z" fill="#D1D3D4"/>
<path d="M259.647 53.53C260.589 53.53 261.352 52.7666 261.352 51.8248C261.352 50.8831 260.589 50.1196 259.647 50.1196C258.705 50.1196 257.942 50.8831 257.942 51.8248C257.942 52.7666 258.705 53.53 259.647 53.53Z" fill="#D1D3D4"/>
<path d="M292.32 78.5904C292.204 78.5895 292.092 78.5462 292.005 78.4686C291.908 78.3858 291.847 78.2682 291.836 78.141C291.824 78.0138 291.863 77.8873 291.944 77.7886L296.329 72.5918C296.375 72.5372 296.433 72.4935 296.498 72.4637C296.563 72.4339 296.633 72.4187 296.705 72.4192H307.677C307.812 72.4192 307.941 72.4727 308.036 72.5678C308.131 72.663 308.184 72.7921 308.184 72.9267C308.184 73.0613 308.131 73.1904 308.036 73.2856C307.941 73.3807 307.812 73.4342 307.677 73.4342H296.908L292.665 78.5092C292.564 78.5786 292.441 78.6076 292.32 78.5904Z" fill="#D1D3D4"/>
<path d="M292.624 200.796V209.038L300.826 208.795L292.624 200.796Z" fill="#3D9BFB"/>
<path d="M292.614 209.546C292.485 209.545 292.361 209.494 292.269 209.404C292.218 209.358 292.177 209.301 292.149 209.238C292.121 209.175 292.107 209.107 292.107 209.038V200.796C292.109 200.696 292.139 200.599 292.195 200.516C292.251 200.433 292.33 200.369 292.421 200.329C292.513 200.29 292.613 200.278 292.711 200.296C292.809 200.314 292.899 200.361 292.97 200.431L301.181 208.439C301.25 208.51 301.297 208.598 301.316 208.695C301.336 208.792 301.327 208.892 301.29 208.983C301.253 209.075 301.191 209.154 301.11 209.21C301.03 209.267 300.934 209.299 300.836 209.302L292.635 209.546H292.614ZM293.122 202.004V208.52L299.608 208.328L293.122 202.004Z" fill="#231F20"/>
<path d="M115.101 222.233H104.677C103.147 222.233 101.906 223.474 101.906 225.004V235.428C101.906 236.959 103.147 238.199 104.677 238.199H115.101C116.631 238.199 117.872 236.959 117.872 235.428V225.004C117.872 223.474 116.631 222.233 115.101 222.233Z" fill="#3D9BFB"/>
<path d="M112.35 217.117H101.581C100.146 217.117 98.9828 218.281 98.9828 219.716V230.485C98.9828 231.92 100.146 233.083 101.581 233.083H112.35C113.785 233.083 114.949 231.92 114.949 230.485V219.716C114.949 218.281 113.785 217.117 112.35 217.117Z" fill="white"/>
<path d="M112.35 233.591H101.581C101.172 233.594 100.766 233.515 100.386 233.36C100.007 233.206 99.6624 232.977 99.3719 232.689C99.0813 232.4 98.8507 232.057 98.6933 231.678C98.536 231.3 98.455 230.895 98.455 230.485V219.716C98.455 218.892 98.7822 218.102 99.3647 217.52C99.9472 216.937 100.737 216.61 101.561 216.61H112.33C112.738 216.61 113.142 216.69 113.519 216.847C113.895 217.003 114.238 217.231 114.526 217.52C114.815 217.808 115.043 218.151 115.2 218.527C115.356 218.904 115.436 219.308 115.436 219.716V230.485C115.436 231.305 115.112 232.092 114.533 232.674C113.955 233.256 113.171 233.586 112.35 233.591ZM101.581 217.625C101.305 217.622 101.031 217.675 100.775 217.778C100.519 217.882 100.286 218.036 100.09 218.23C99.8933 218.425 99.7374 218.656 99.6311 218.911C99.5247 219.166 99.47 219.44 99.47 219.716V230.485C99.47 231.04 99.6903 231.572 100.082 231.964C100.475 232.356 101.006 232.576 101.561 232.576H112.33C112.885 232.576 113.416 232.356 113.809 231.964C114.201 231.572 114.421 231.04 114.421 230.485V219.716C114.421 219.161 114.201 218.63 113.809 218.238C113.416 217.845 112.885 217.625 112.33 217.625H101.581Z" fill="#231F20"/>
<path d="M276.324 240.178V237.783C275.451 237.539 274.608 237.367 273.786 237.083C272.2 236.587 270.827 235.571 269.888 234.2C269.116 232.989 268.724 231.576 268.762 230.14H273.441C273.472 230.954 273.77 231.735 274.289 232.363C274.808 232.99 275.52 233.429 276.313 233.611V227.257C275.37 226.983 274.436 226.73 273.502 226.435C272.484 226.142 271.552 225.61 270.782 224.882C269.983 224.083 269.454 223.054 269.269 221.939C268.998 220.584 269.1 219.181 269.564 217.879C269.908 216.942 270.455 216.092 271.166 215.39C271.876 214.688 272.733 214.152 273.674 213.819C274.451 213.574 275.241 213.371 276.039 213.21L276.324 213.149V209.84H280.708V210.155C280.708 211.058 280.708 211.972 280.708 212.875C280.708 213.098 280.779 213.169 280.993 213.22C282.483 213.509 283.879 214.165 285.053 215.128C286.302 216.148 287.13 217.595 287.377 219.188C287.458 219.625 287.489 220.071 287.549 220.528H282.789C282.781 219.879 282.585 219.245 282.225 218.705C281.865 218.164 281.356 217.74 280.759 217.483V223.421L281.277 223.543C282.564 223.792 283.817 224.19 285.012 224.73C285.909 225.119 286.684 225.745 287.252 226.541C287.821 227.337 288.162 228.272 288.24 229.247C288.52 231.063 288.079 232.917 287.012 234.413C286.133 235.63 284.899 236.545 283.479 237.032C282.596 237.336 281.683 237.529 280.739 237.793V240.118L276.324 240.178ZM280.719 228.11V233.632C281.432 233.527 282.102 233.229 282.657 232.769C282.943 232.536 283.172 232.24 283.326 231.904C283.479 231.569 283.554 231.202 283.543 230.833C283.532 230.464 283.436 230.103 283.264 229.777C283.091 229.45 282.845 229.168 282.546 228.953C281.957 228.63 281.346 228.348 280.719 228.11ZM276.313 222.457V217.118C275.739 217.369 275.18 217.654 274.639 217.97C274.328 218.192 274.077 218.487 273.908 218.829C273.74 219.172 273.659 219.551 273.673 219.932C273.687 220.313 273.796 220.685 273.989 221.014C274.182 221.343 274.454 221.619 274.781 221.817C275.258 222.071 275.776 222.243 276.313 222.467V222.457Z" fill="#3D9BFB"/>
<path d="M129.311 68.0547H84.6104V94.6883H129.311V68.0547Z" fill="#D1D3D4"/>
</svg>
