<svg width="222" height="92" viewBox="0 0 222 92" fill="none" xmlns="http://www.w3.org/2000/svg">
<path d="M57.2554 30.4937C61.1411 19.6158 47.5884 12.8717 41.9762 12.1414L39.4707 5.23557C45.4721 5.68321 60.75 10.3011 64.2024 19.5185C68.518 31.0404 62.2872 39.408 56.0158 42.4367C48.3088 46.1588 42.6312 43.8969 41.9019 43.5175L49.8331 53.9957L52.6532 72.125L27.7005 38.1862L33.7896 35.0596C41.1661 37.5079 53.4087 41.2625 57.2554 30.4937Z" fill="#25291C"/>
<path d="M26.4241 0L80.7334 18.0259L77.9716 25.7573L23.6623 7.73143L26.4241 0Z" fill="#25291C"/>
<path d="M20.9006 15.4629L75.2099 33.4887L72.4482 41.2202L18.1389 23.1943L20.9006 15.4629Z" fill="#25291C"/>
<path d="M49.8265 53.9827L57.1912 64.2624L56.1123 69.6542L50.9566 69.9146L42.8511 58.611L49.8265 53.9827Z" fill="#25291C"/>
<path d="M15.0102 46.2469L38.061 77.2681L30.9647 81.3988L8.30843 50.7145L15.0102 46.2469Z" fill="#25291C"/>
<path d="M38.061 77.2681L30.9647 81.3988C35.7725 86.7009 44.3494 90.8324 53.2786 85.2017C61.408 80.0755 61.6045 70.669 57.1912 64.2624L56.1123 69.6542L50.9566 69.9146C52.8982 74.1624 51.1489 77.597 48.4748 79.2832C45.2658 81.3068 39.8542 79.5106 38.061 77.2681Z" fill="#25291C"/>
<path d="M63.2242 71.4538C63.2242 68.567 63.8036 65.9304 64.9624 63.544C66.1211 61.1576 67.724 59.2716 69.7711 57.8859C71.8182 56.5002 74.155 55.8074 76.7815 55.8074C79.0218 55.8074 81.0303 56.3655 82.807 57.4817C84.6224 58.5595 86.0322 59.9451 87.0364 61.6387V44.4335H94.8V77.9202C94.8 78.767 94.9352 79.3636 95.2055 79.71C95.4759 80.0179 95.9394 80.2104 96.596 80.2874V86.5806C95.2055 86.85 94.1047 86.9847 93.2936 86.9847C91.9031 86.9847 90.7444 86.6383 89.8174 85.9455C88.929 85.2526 88.4269 84.3481 88.311 83.2319L88.1951 81.3266C87.075 83.2126 85.5493 84.656 83.6181 85.6568C81.7255 86.6575 79.7363 87.1579 77.6506 87.1579C74.831 87.1579 72.3397 86.4651 70.1767 85.0794C68.0137 83.6553 66.3142 81.7692 65.0782 79.4213C63.8422 77.0349 63.2242 74.3791 63.2242 71.4538ZM87.0364 75.4953V68.2783C86.4184 66.5847 85.3562 65.1798 83.8499 64.0636C82.3435 62.9474 80.7985 62.3893 79.2149 62.3893C77.6313 62.3893 76.2408 62.8319 75.0434 63.7172C73.846 64.564 72.9191 65.6995 72.2624 67.1236C71.6058 68.5093 71.2775 70.0104 71.2775 71.627C71.2775 73.2821 71.6444 74.8025 72.3783 76.1881C73.1122 77.5353 74.0971 78.613 75.3331 79.4213C76.6077 80.1911 78.0561 80.576 79.6784 80.576C81.1461 80.576 82.5946 80.0949 84.0237 79.1327C85.4914 78.1704 86.4957 76.9579 87.0364 75.4953Z" fill="#25291C"/>
<path d="M130.636 86.5806H122.872V69.6063C122.872 67.2583 122.409 65.507 121.482 64.3523C120.593 63.1976 119.357 62.6202 117.774 62.6202C116.808 62.6202 115.804 62.8897 114.761 63.4285C113.757 63.9674 112.83 64.718 111.98 65.6802C111.169 66.604 110.57 67.6817 110.184 68.9134V86.5806H102.421V44.4335H110.184V61.9274C111.304 60.0029 112.83 58.5017 114.761 57.424C116.692 56.3463 118.797 55.8074 121.076 55.8074C123.664 55.8074 125.653 56.3848 127.044 57.5395C128.434 58.6942 129.381 60.1761 129.883 61.9851C130.385 63.7942 130.636 65.6995 130.636 67.701V86.5806Z" fill="#25291C"/>
<path d="M135.301 77.6315C135.301 75.6685 135.841 73.9557 136.923 72.493C138.043 70.9919 139.588 69.8372 141.558 69.0289C143.528 68.2206 145.787 67.8164 148.337 67.8164C149.611 67.8164 150.905 67.9319 152.218 68.1629C153.532 68.3553 154.671 68.644 155.637 69.0289V67.4123C155.637 65.4878 155.057 64.0059 153.899 62.9666C152.778 61.9274 151.098 61.4078 148.858 61.4078C147.197 61.4078 145.614 61.6965 144.107 62.2738C142.601 62.8512 141.017 63.698 139.356 64.8142L136.865 59.7334C138.874 58.4248 140.921 57.4433 143.006 56.7889C145.131 56.1346 147.352 55.8074 149.669 55.8074C153.995 55.8074 157.355 56.8851 159.75 59.0406C162.184 61.1961 163.4 64.2753 163.4 68.2783V77.9202C163.4 78.767 163.535 79.3636 163.806 79.71C164.076 80.0179 164.559 80.2104 165.254 80.2874V86.5806C164.559 86.7345 163.922 86.8308 163.342 86.8692C162.802 86.9462 162.338 86.9847 161.952 86.9847C160.407 86.9847 159.229 86.6383 158.418 85.9455C157.607 85.2526 157.124 84.4058 156.969 83.4051L156.795 81.8462C155.444 83.5783 153.783 84.9062 151.813 85.83C149.882 86.7153 147.892 87.1579 145.845 87.1579C143.798 87.1579 141.983 86.7538 140.399 85.9455C138.816 85.0987 137.56 83.9632 136.633 82.5391C135.745 81.0764 135.301 79.4406 135.301 77.6315ZM154.188 79.1904C155.154 78.2666 155.637 77.3813 155.637 76.5345V73.4745C153.628 72.6662 151.6 72.2621 149.553 72.2621C147.506 72.2621 145.845 72.7047 144.571 73.59C143.296 74.4368 142.659 75.5723 142.659 76.9964C142.659 78.1511 143.122 79.1904 144.049 80.1142C144.976 81.0379 146.309 81.4998 148.047 81.4998C149.206 81.4998 150.326 81.2881 151.407 80.8647C152.527 80.4413 153.454 79.8832 154.188 79.1904Z" fill="#25291C"/>
<path d="M168.569 77.6315C168.569 75.6685 169.11 73.9557 170.192 72.493C171.312 70.9919 172.857 69.8372 174.827 69.0289C176.796 68.2206 179.056 67.8164 181.605 67.8164C182.88 67.8164 184.174 67.9319 185.487 68.1629C186.8 68.3553 187.94 68.644 188.905 69.0289V67.4123C188.905 65.4878 188.326 64.0059 187.167 62.9666C186.047 61.9274 184.367 61.4078 182.127 61.4078C180.466 61.4078 178.882 61.6965 177.376 62.2738C175.869 62.8512 174.286 63.698 172.625 64.8142L170.134 59.7334C172.142 58.4248 174.189 57.4433 176.275 56.7889C178.399 56.1346 180.62 55.8074 182.938 55.8074C187.264 55.8074 190.624 56.8851 193.019 59.0406C195.452 61.1961 196.669 64.2753 196.669 68.2783V77.9202C196.669 78.767 196.804 79.3636 197.074 79.71C197.345 80.0179 197.828 80.2104 198.523 80.2874V86.5806C197.828 86.7345 197.19 86.8308 196.611 86.8692C196.07 86.9462 195.607 86.9847 195.22 86.9847C193.675 86.9847 192.497 86.6383 191.686 85.9455C190.875 85.2526 190.392 84.4058 190.238 83.4051L190.064 81.8462C188.712 83.5783 187.051 84.9062 185.081 85.83C183.15 86.7153 181.161 87.1579 179.114 87.1579C177.067 87.1579 175.251 86.7538 173.668 85.9455C172.084 85.0987 170.829 83.9632 169.902 82.5391C169.014 81.0764 168.569 79.4406 168.569 77.6315ZM187.457 79.1904C188.422 78.2666 188.905 77.3813 188.905 76.5345V73.4745C186.897 72.6662 184.869 72.2621 182.822 72.2621C180.775 72.2621 179.114 72.7047 177.839 73.59C176.565 74.4368 175.927 75.5723 175.927 76.9964C175.927 78.1511 176.391 79.1904 177.318 80.1142C178.245 81.0379 179.577 81.4998 181.315 81.4998C182.474 81.4998 183.594 81.2881 184.676 80.8647C185.796 80.4413 186.723 79.8832 187.457 79.1904Z" fill="#25291C"/>
<path d="M222 63.0244C219.644 63.0244 217.539 63.4863 215.685 64.41C213.831 65.2953 212.498 66.5847 211.687 68.2783V86.5806H203.924V56.327H211.05V62.7934C212.093 60.715 213.445 59.0791 215.105 57.8859C216.805 56.6927 218.582 56.0384 220.436 55.9229C221.247 55.9229 221.768 55.9421 222 55.9806V63.0244Z" fill="#25291C"/>
</svg>
